<?xml version="1.0" ?>
<!DOCTYPE svg  PUBLIC '-//W3C//DTD SVG 1.1//EN'  'http://www.w3.org/Graphics/SVG/1.1/DTD/svg11.dtd'>
<!-- Uploaded to: SVG Repo, www.svgrepo.com, Generator: SVG Repo Mixer Tools -->
<svg width="800px" height="800px" viewBox="0 0 6.82666 6.82666" style="shape-rendering:geometricPrecision; text-rendering:geometricPrecision; image-rendering:optimizeQuality; fill-rule:evenodd; clip-rule:evenodd" xml:space="preserve" xmlns="http://www.w3.org/2000/svg" xmlns:xlink="http://www.w3.org/1999/xlink">
<defs>
<style type="text/css">
   <![CDATA[
    .str0 {stroke:#373435;stroke-width:0.00694488;stroke-linecap:round;stroke-linejoin:round}
    .fil6 {fill:none}
    .fil0 {fill:#81868C}
    .fil4 {fill:#C3AE7E}
    .fil2 {fill:#EDEAE3}
    .fil3 {fill:#FC4E17}
    .fil5 {fill:#FFE156}
    .fil1 {fill:black;fill-rule:nonzero}
   ]]>
  </style>
</defs>
<g id="Layer_x0020_1">
<path class="fil0 str0" d="M3.07378 5.01333l0.264587 0 0.341634 0 0 -0.8c0,-0.0294528 0.0238819,-0.0533346 0.0533346,-0.0533346l0.19378 0 0.264587 0 0.394969 0c0.0294528,0 0.0533346,0.0238819 0.0533346,0.0533346l0 0.853335 0 0.799996 0.106665 0 0 -2.56 -2.66667 0 0 2.56 0.746661 0 0 -0.799996c0,-0.0294528 0.0238819,-0.0533346 0.0533346,-0.0533346l0.19378 0z"/>
<g id="_409103880">
<path class="fil1" d="M1.6 2.34378l3.62667 0c0.0294528,0 0.0533346,0.0238819 0.0533346,0.0533346l0 3.52289c0,0.0294528 -0.0238819,0.0533346 -0.0533346,0.0533346l-3.62667 0c-0.0294528,0 -0.0533346,-0.0238819 -0.0533346,-0.0533346l0 -3.52289c0,-0.0294528 0.0238819,-0.0533346 0.0533346,-0.0533346zm3.57333 0.106669l-3.52 0 0 3.41622 3.52 0 0 -3.41622z" id="_412723312"/>
<path class="fil1" d="M0.997075 2.3502l2.38809 -1.48872 -4.72441e-005 -7.48031e-005c0.0188386,-0.0117402 0.0421654,-0.0102992 0.0591811,0.00182283l2.38802 1.48868 -0.028126 0.0452087 0.0282126 -0.0452598c0.0249961,0.0155787 0.032626,0.0484764 0.0170472,0.0734724 -0.0100984,0.0162047 -0.0274764,0.0251024 -0.0452598,0.025122l-0.00065748 0 -4.78107 0c-0.0294528,0 -0.0533346,-0.0238819 -0.0533346,-0.0533346 0,-0.0202598 0.0113031,-0.0378858 0.0279449,-0.0469134zm2.41626 -1.38079l-2.20467 1.37437 4.40933 0 -2.20467 -1.37437z" id="_409104672"/>
<path class="fil1" d="M4.85333 2.39711c0,-0.0294528 -0.0238819,-0.0533346 -0.0533346,-0.0533346 -0.0294528,0 -0.0533346,0.0238819 -0.0533346,0.0533346l0 3.52289c0,0.0294528 0.0238819,0.0533346 0.0533346,0.0533346 0.0294528,0 0.0533346,-0.0238819 0.0533346,-0.0533346l0 -3.52289zm-2.88 3.52289c0,0.0294528 0.0238819,0.0533346 0.0533346,0.0533346 0.0294528,0 0.0533346,-0.0238819 0.0533346,-0.0533346l0 -3.52289c0,-0.0294528 -0.0238819,-0.0533346 -0.0533346,-0.0533346 -0.0294528,0 -0.0533346,0.0238819 -0.0533346,0.0533346l0 3.52289z" id="_409103280"/>
<path class="fil1" d="M2.02667 2.7883c-0.0294528,0 -0.0533346,0.0238819 -0.0533346,0.0533346 0,0.0294528 0.0238819,0.0533346 0.0533346,0.0533346l2.77333 0c0.0294528,0 0.0533346,-0.0238819 0.0533346,-0.0533346 0,-0.0294528 -0.0238819,-0.0533346 -0.0533346,-0.0533346l-2.77333 0z" id="_409104792"/>
<path class="fil1" d="M2.02667 3.19999c-0.0294528,0 -0.0533346,0.0238819 -0.0533346,0.0533346 0,0.0294528 0.0238819,0.0533346 0.0533346,0.0533346l2.77333 0c0.0294528,0 0.0533346,-0.0238819 0.0533346,-0.0533346 0,-0.0294528 -0.0238819,-0.0533346 -0.0533346,-0.0533346l-2.77333 0z" id="_409104528"/>
<g>
<path class="fil1" d="M3.73333 5.01333l0.853335 0c0.0294528,0 0.0533346,0.0238819 0.0533346,0.0533346l0 0.853335c0,0.0294528 -0.0238819,0.0533346 -0.0533346,0.0533346l-0.853335 0c-0.0294528,0 -0.0533346,-0.0238819 -0.0533346,-0.0533346l0 -0.853335c0,-0.0294528 0.0238819,-0.0533346 0.0533346,-0.0533346zm0.8 0.106669l-0.746665 0 0 0.746665 0.746665 0 0 -0.746665z" id="_409103328"/>
<path class="fil1" d="M3.92711 5.01333l0.264587 0c0.0294528,0 0.0533346,0.0238819 0.0533346,0.0533346l0 0.319996c0,0.0294528 -0.0238819,0.0533346 -0.0533346,0.0533346l-0.264587 0c-0.0294528,0 -0.0533346,-0.0238819 -0.0533346,-0.0533346l0 -0.319996c0,-0.0294528 0.0238819,-0.0533346 0.0533346,-0.0533346zm0.211252 0.106669l-0.157917 0 0 0.213327 0.157917 0 0 -0.213327z" id="_409103592"/>
</g>
<g>
<path class="fil1" d="M2.88 5.01333l0.853335 0c0.0294528,0 0.0533346,0.0238819 0.0533346,0.0533346l0 0.853335c0,0.0294528 -0.0238819,0.0533346 -0.0533346,0.0533346l-0.853335 0c-0.0294528,0 -0.0533346,-0.0238819 -0.0533346,-0.0533346l0 -0.853335c0,-0.0294528 0.0238819,-0.0533346 0.0533346,-0.0533346zm0.8 0.106669l-0.746665 0 0 0.746665 0.746665 0 0 -0.746665z" id="_409103664"/>
<path class="fil1" d="M3.07378 5.01333l0.264587 0c0.0294528,0 0.0533346,0.0238819 0.0533346,0.0533346l0 0.319996c0,0.0294528 -0.0238819,0.0533346 -0.0533346,0.0533346l-0.264587 0c-0.0294528,0 -0.0533346,-0.0238819 -0.0533346,-0.0533346l0 -0.319996c0,-0.0294528 0.0238819,-0.0533346 0.0533346,-0.0533346zm0.211252 0.106669l-0.157917 0 0 0.213327 0.157917 0 0 -0.213327z" id="_409104024"/>
</g>
<g>
<path class="fil1" d="M3.73333 4.16l0.853335 0c0.0294528,0 0.0533346,0.0238819 0.0533346,0.0533346l0 0.853335c0,0.0294528 -0.0238819,0.0533346 -0.0533346,0.0533346l-0.853335 0c-0.0294528,0 -0.0533346,-0.0238819 -0.0533346,-0.0533346l0 -0.853335c0,-0.0294528 0.0238819,-0.0533346 0.0533346,-0.0533346zm0.8 0.106669l-0.746665 0 0 0.746665 0.746665 0 0 -0.746665z" id="_409103808"/>
<path class="fil1" d="M3.92711 4.16l0.264587 0c0.0294528,0 0.0533346,0.0238819 0.0533346,0.0533346l0 0.319996c0,0.0294528 -0.0238819,0.0533346 -0.0533346,0.0533346l-0.264587 0c-0.0294528,0 -0.0533346,-0.0238819 -0.0533346,-0.0533346l0 -0.319996c0,-0.0294528 0.0238819,-0.0533346 0.0533346,-0.0533346zm0.211252 0.106669l-0.157917 0 0 0.213327 0.157917 0 0 -0.213327z" id="_409103208"/>
</g>
<path class="fil1" d="M3.41333 1.42164c0.103087,0 0.196425,0.0417913 0.263984,0.10935 0.0675591,0.0675591 0.10935,0.160898 0.10935,0.263984 0,0.103087 -0.0417913,0.196425 -0.10935,0.263984 -0.0675591,0.0675551 -0.160898,0.10935 -0.263984,0.10935 -0.103087,0 -0.196425,-0.0417953 -0.263984,-0.10935 -0.0675591,-0.0675591 -0.10935,-0.160898 -0.10935,-0.263984 0,-0.103087 0.0417913,-0.196425 0.10935,-0.263984 0.0675591,-0.0675591 0.160898,-0.10935 0.263984,-0.10935zm0.188567 0.184768c-0.048252,-0.048252 -0.114925,-0.0780984 -0.188567,-0.0780984 -0.0736417,0 -0.140315,0.0298465 -0.188567,0.0780984 -0.048252,0.048252 -0.0780984,0.114925 -0.0780984,0.188567 0,0.0736417 0.0298465,0.140315 0.0780984,0.188567 0.048252,0.048248 0.114925,0.0780984 0.188567,0.0780984 0.0736417,0 0.140315,-0.0298504 0.188567,-0.0780984 0.048252,-0.048252 0.0780984,-0.114925 0.0780984,-0.188567 0,-0.0736417 -0.0298465,-0.140315 -0.0780984,-0.188567z" id="_409104288"/>
</g>
<path class="fil2 str0" d="M3.6019 1.60641c-0.048252,-0.048252 -0.114925,-0.0780984 -0.188567,-0.0780984 -0.0736417,0 -0.140315,0.0298465 -0.188567,0.0780984 -0.048252,0.048252 -0.0780984,0.114925 -0.0780984,0.188567 0,0.0736417 0.0298465,0.140315 0.0780984,0.188567 0.048252,0.048248 0.114925,0.0780984 0.188567,0.0780984 0.0736417,0 0.140315,-0.0298504 0.188567,-0.0780984 0.048252,-0.048252 0.0780984,-0.114925 0.0780984,-0.188567 0,-0.0736417 -0.0298465,-0.140315 -0.0780984,-0.188567z"/>
<polygon class="fil3 str0" points="4.85333,3.25332 4.85333,5.86666 5.17333,5.86666 5.17333,2.45044 4.85333,2.45044 4.85333,2.84163 "/>
<polygon class="fil3 str0" points="1.97333,5.86666 1.97333,3.25332 1.97333,2.84163 1.97333,2.45044 1.65333,2.45044 1.65333,5.86666 "/>
<path class="fil4 str0" d="M3.78667 4.26667l0 0.746665 0.140445 0 0.264587 0 0.341634 0 0 -0.746665 -0.288299 0 0 0.266661c0,0.0294528 -0.0238819,0.0533346 -0.0533346,0.0533346l-0.264587 0c-0.0294528,0 -0.0533346,-0.0238819 -0.0533346,-0.0533346l0 -0.266661 -0.0871102 0z"/>
<polygon class="fil5 str0" points="3.98044,4.26667 3.98044,4.47999 4.13836,4.47999 4.13836,4.26667 "/>
<polygon class="fil5 str0" points="4.13836,5.12 3.98044,5.12 3.98044,5.33333 4.13836,5.33333 "/>
<polygon class="fil5 str0" points="3.28503,5.33333 3.28503,5.12 3.12711,5.12 3.12711,5.33333 "/>
<path class="fil4 str0" d="M4.1917 5.44l-0.264587 0c-0.0294528,0 -0.0533346,-0.0238819 -0.0533346,-0.0533346l0 -0.266661 -0.0871102 0 0 0.746661 0.746665 3.93701e-006 0 -0.746665 -0.288299 0 0 0.266661c0,0.0294528 -0.0238819,0.0533346 -0.0533346,0.0533346z"/>
<path class="fil4 str0" d="M3.68 5.86667l0 -0.746665 -0.288299 0 0 0.266661c0,0.0294528 -0.0238819,0.0533346 -0.0533346,0.0533346l-0.264587 0c-0.0294528,0 -0.0533346,-0.0238819 -0.0533346,-0.0533346l0 -0.266661 -0.0871102 0 0 0.746665 0.746665 0z"/>
<polygon class="fil2 str0" points="2.08,2.7883 4.74667,2.7883 4.74667,2.45044 2.08,2.45044 "/>
<polygon class="fil2 str0" points="4.74667,2.89496 2.08,2.89496 2.08,3.19999 4.74667,3.19999 "/>
<path class="fil3 str0" d="M2.02667 2.34378l2.77333 0 0.426665 0 0.391331 0 -2.20467 -1.37437 -2.20467 1.37437 0.391335 0 0.426665 0zm1.12268 -0.284815c-0.0675591,-0.0675591 -0.10935,-0.160898 -0.10935,-0.263984 0,-0.103087 0.0417913,-0.196425 0.10935,-0.263984 0.0675591,-0.0675591 0.160898,-0.10935 0.263984,-0.10935 0.103087,0 0.196425,0.0417913 0.263984,0.10935 0.0675591,0.0675591 0.10935,0.160898 0.10935,0.263984 0,0.103087 -0.0417913,0.196425 -0.10935,0.263984 -0.0675591,0.0675551 -0.160898,0.10935 -0.263984,0.10935 -0.103087,0 -0.196425,-0.0417953 -0.263984,-0.10935z"/>
</g>
<rect class="fil6" height="6.82666" width="6.82666"/>
</svg>