<?xml version="1.0" encoding="iso-8859-1"?>
<!-- Uploaded to: SVG Repo, www.svgrepo.com, Generator: SVG Repo Mixer Tools -->
<svg version="1.1" id="Layer_1" xmlns="http://www.w3.org/2000/svg" xmlns:xlink="http://www.w3.org/1999/xlink"
	 viewBox="0 0 437.804 437.804" xml:space="preserve">
<g>
	<g id="XMLID_38_">
		<g>
			<rect x="167.803" y="64.053" style="fill:#E7ECED;" width="40" height="50"/>
			<rect x="137.803" y="174.053" style="fill:#E7ECED;" width="60" height="50"/>
			<polygon style="fill:#C69C6D;" points="247.803,64.053 247.803,174.053 197.803,174.053 137.803,174.053 127.803,174.053
				127.803,64.053 167.803,64.053 167.803,114.053 207.803,114.053 207.803,64.053 			"/>
			<rect x="247.803" y="209.053" style="fill:#C69C6D;" width="130" height="85"/>
			<polygon style="fill:#A67C52;" points="247.803,209.053 247.803,294.053 87.803,294.053 87.803,174.053 127.803,174.053
				137.803,174.053 137.803,224.053 197.803,224.053 197.803,174.053 247.803,174.053 			"/>
			<path style="fill:#E7ECED;" d="M337.803,334.053c19.3,0,35,15.7,35,35s-15.7,35-35,35s-35-15.7-35-35
				S318.503,334.053,337.803,334.053z"/>
			<path style="fill:#E7ECED;" d="M107.803,334.053c19.3,0,35,15.7,35,35s-15.7,35-35,35s-35-15.7-35-35
				C72.803,349.753,88.503,334.053,107.803,334.053z"/>
			<polygon style="fill:#AFB6BB;" points="407.803,294.053 407.803,334.053 337.803,334.053 107.803,334.053 37.803,334.053
				37.803,294.053 87.803,294.053 247.803,294.053 377.803,294.053 			"/>
		</g>
		<g>
			<path d="M437.803,286.553h-52.5v-85h-130v-145h-135v110h-40v120h-35V60.947L10.606,26.25L0,36.857L30.303,67.16v274.394h45.134
				c-6.313,7.418-10.134,17.019-10.134,27.5c0,23.435,19.065,42.5,42.5,42.5s42.5-19.065,42.5-42.5
				c0-10.481-3.822-20.082-10.134-27.5h165.269c-6.313,7.418-10.134,17.019-10.134,27.5c0,23.435,19.065,42.5,42.5,42.5
				s42.5-19.065,42.5-42.5c0-10.481-3.822-20.082-10.134-27.5h45.134v-40h22.5L437.803,286.553L437.803,286.553z M370.303,236.553
				h-82.5v15h82.5v35h-115v-70h115V236.553z M175.303,71.553h25v35h-25V71.553z M135.303,71.553h25v50h55v-50h25v95h-105V71.553z
				 M190.303,181.553v35h-45v-35H190.303z M95.303,181.553h35v50h75v-50h35v105h-145C95.303,286.553,95.303,181.553,95.303,181.553z
				 M135.303,369.053c0,15.163-12.336,27.5-27.5,27.5s-27.5-12.337-27.5-27.5c0-15.163,12.336-27.5,27.5-27.5
				S135.303,353.89,135.303,369.053z M365.303,369.053c0,15.163-12.337,27.5-27.5,27.5s-27.5-12.337-27.5-27.5
				c0-15.163,12.337-27.5,27.5-27.5S365.303,353.89,365.303,369.053z M400.303,326.553h-355v-25h355V326.553z"/>
			<rect x="97.803" y="361.553" width="20" height="15"/>
			<rect x="327.803" y="361.553" width="20" height="15"/>
		</g>
	</g>
</g>
</svg>
