<?xml version="1.0" encoding="iso-8859-1"?>
<!-- Uploaded to: SVG Repo, www.svgrepo.com, Generator: SVG Repo Mixer Tools -->
<svg version="1.1" id="Layer_1" xmlns="http://www.w3.org/2000/svg" xmlns:xlink="http://www.w3.org/1999/xlink" 
	 viewBox="0 0 460 460" xml:space="preserve">
<g>
	<path style="fill:#FFAD9E;" d="M230,0C102.974,0,0,102.974,0,230c0,103.909,68.906,191.725,163.517,220.245l289.267-277.629
		C427.292,73.356,337.212,0,230,0z"/>
	<path style="fill:#FF6161;" d="M452.783,172.616L320.333,40.167L119.146,405.854l44.376,44.375
		C184.569,456.575,206.883,460,230,460c127.025,0,230-102.975,230-230C460,210.187,457.494,190.959,452.783,172.616z"/>
	<path style="fill:#121149;" d="M350.333,134.667v250c0,16.5-13.5,30-30,30h-90.01l-30-280L350.333,134.667L350.333,134.667z"/>
	<path style="fill:#273B7A;" d="M230.323,134.667v280h-89.99c-16.5,0-30-13.5-30-30v-250L230.323,134.667L230.323,134.667z"/>
	<polygon style="fill:#FFC61B;" points="320.333,204.667 320.333,384.667 230.323,384.667 210.323,194.667 	"/>
	<polygon style="fill:#FEE187;" points="230.323,194.667 230.323,384.667 140.333,384.667 140.333,204.667 	"/>
	<rect x="213.667" y="224.667" style="fill:#273B7A;" width="33.333" height="33.333"/>
	<rect x="213.667" y="278" style="fill:#273B7A;" width="33.333" height="33.333"/>
	<rect x="213.667" y="331.333" style="fill:#273B7A;" width="33.333" height="33.333"/>
	<rect x="267" y="331.333" style="fill:#273B7A;" width="33.333" height="33.333"/>
	<rect x="267" y="278" style="fill:#273B7A;" width="33.333" height="33.333"/>
	<rect x="267" y="224.667" style="fill:#273B7A;" width="33.333" height="33.333"/>
	<rect x="160.333" y="224.667" style="fill:#273B7A;" width="33.333" height="33.333"/>
	<rect x="160.333" y="331.333" style="fill:#273B7A;" width="33.333" height="33.333"/>
	<rect x="160.333" y="278" style="fill:#273B7A;" width="33.333" height="33.333"/>
	<polygon style="fill:#366796;" points="320.333,204.667 140.333,204.667 140.333,184.667 230.333,164.667 320.333,184.667 	"/>
	<polygon style="fill:#C2FBFF;" points="320.333,40.167 320.333,184.667 230.323,184.667 210.323,114.667 230.323,60.737 
		260.323,40.167 290.333,60.737 	"/>
	<polygon style="fill:#FFFFFF;" points="230.323,60.737 230.323,184.667 140.333,184.667 140.333,40.167 170.333,60.737 
		200.333,40.167 	"/>
</g>
</svg>