<?xml version="1.0" encoding="iso-8859-1"?>
<!-- Uploaded to: SVG Repo, www.svgrepo.com, Generator: SVG Repo Mixer Tools -->
<svg version="1.1" id="Layer_1" xmlns="http://www.w3.org/2000/svg" xmlns:xlink="http://www.w3.org/1999/xlink" 
	 viewBox="0 0 512 512" xml:space="preserve">
<path style="fill:#74757B;" d="M424.24,512H87.76c-9.781,0-17.709-7.928-17.709-17.709V78.118c0-9.781,7.928-17.709,17.709-17.709
	H424.24c9.781,0,17.709,7.928,17.709,17.709V494.29C441.949,504.07,434.02,512,424.24,512z"/>
<path style="fill:#606268;" d="M87.76,476.581V60.409c-9.781,0-17.709,7.929-17.709,17.709V494.29
	c0,9.78,7.928,17.709,17.709,17.709H424.24c9.781,0,17.709-7.929,17.709-17.709H105.47C95.688,494.29,87.76,486.361,87.76,476.581z"
	/>
<g>
	<path style="fill:#E5563C;" d="M176.307,370.324h-53.128c-4.89,0-8.855-3.965-8.855-8.855v-53.128c0-4.89,3.965-8.855,8.855-8.855
		h53.128c4.89,0,8.855,3.965,8.855,8.855v53.128C185.162,366.359,181.197,370.324,176.307,370.324z"/>
	<path style="fill:#E5563C;" d="M282.564,370.324h-53.128c-4.89,0-8.855-3.965-8.855-8.855v-53.128c0-4.89,3.965-8.855,8.855-8.855
		h53.128c4.89,0,8.855,3.965,8.855,8.855v53.128C291.419,366.359,287.454,370.324,282.564,370.324z"/>
	<path style="fill:#E5563C;" d="M176.307,476.581h-53.128c-4.89,0-8.855-3.965-8.855-8.855v-53.128c0-4.89,3.965-8.855,8.855-8.855
		h53.128c4.89,0,8.855,3.965,8.855,8.855v53.128C185.162,472.616,181.197,476.581,176.307,476.581z"/>
	<path style="fill:#E5563C;" d="M282.564,476.581h-53.128c-4.89,0-8.855-3.965-8.855-8.855v-53.128c0-4.89,3.965-8.855,8.855-8.855
		h53.128c4.89,0,8.855,3.965,8.855,8.855v53.128C291.419,472.616,287.454,476.581,282.564,476.581z"/>
</g>
<g>
	<path style="fill:#CF442B;" d="M132.034,352.615v-53.128h-8.855c-4.89,0-8.855,3.965-8.855,8.855v53.128
		c0,4.89,3.965,8.855,8.855,8.855h53.128c4.89,0,8.855-3.965,8.855-8.855v-8.855H132.034z"/>
	<path style="fill:#CF442B;" d="M238.29,352.615v-53.128h-8.855c-4.89,0-8.855,3.965-8.855,8.855v53.128
		c0,4.89,3.965,8.855,8.855,8.855h53.128c4.89,0,8.855-3.965,8.855-8.855v-8.855H238.29z"/>
	<path style="fill:#CF442B;" d="M238.29,458.871v-53.128h-8.855c-4.89,0-8.855,3.965-8.855,8.855v53.128
		c0,4.89,3.965,8.855,8.855,8.855h53.128c4.89,0,8.855-3.965,8.855-8.855v-8.855H238.29z"/>
	<path style="fill:#CF442B;" d="M132.034,458.871v-53.128h-8.855c-4.89,0-8.855,3.965-8.855,8.855v53.128
		c0,4.89,3.965,8.855,8.855,8.855h53.128c4.89,0,8.855-3.965,8.855-8.855v-8.855H132.034z"/>
</g>
<path style="fill:#6AC8B7;" d="M388.821,476.581h-53.128c-4.89,0-8.855-3.965-8.855-8.855V308.341c0-4.89,3.965-8.855,8.855-8.855
	h53.128c4.89,0,8.855,3.965,8.855,8.855v159.385C397.675,472.616,393.711,476.581,388.821,476.581z"/>
<path style="fill:#2DB59F;" d="M344.547,458.871V299.486h-8.855c-4.89,0-8.855,3.965-8.855,8.855v159.385
	c0,4.89,3.965,8.855,8.855,8.855h53.128c4.89,0,8.855-3.965,8.855-8.855v-8.855H344.547z"/>
<path style="fill:#EBEBEC;" d="M397.675,264.067H114.324V8.908c0-4.48,4.994-7.154,8.722-4.668l44.406,29.605l40.769-32.615
	c2.049-1.639,4.96-1.639,7.01,0l40.769,32.615L296.77,1.229c2.049-1.639,4.961-1.639,7.01,0l40.769,32.615L388.956,4.24
	c3.728-2.486,8.722,0.187,8.722,4.668v255.16H397.675z"/>
<rect x="114.325" y="237.506" style="fill:#D7D8D9;" width="283.351" height="26.564"/>
<g>
	<path style="fill:#FFFFFF;" d="M140.888,343.76L140.888,343.76L140.888,343.76c0,4.586,3.717,8.301,8.301,8.301
		s8.301-3.716,8.301-8.301l0,0h1.107c4.585,0,8.301-3.716,8.301-8.301c0-4.586-3.717-8.301-8.301-8.301h-1.107v-1.107
		c0-4.586-3.717-8.301-8.301-8.301s-8.301,3.716-8.301,8.301v1.107l0,0c-4.585,0-8.301,3.716-8.301,8.301
		C132.587,340.044,136.304,343.76,140.888,343.76z"/>
	<path style="fill:#FFFFFF;" d="M264.855,343.76c4.586,0,8.301-3.716,8.301-8.301c0-4.586-3.716-8.301-8.301-8.301h-17.709
		c-4.585,0-8.301,3.716-8.301,8.301c0,4.586,3.717,8.301,8.301,8.301H264.855z"/>
	<path style="fill:#FFFFFF;" d="M258.984,426.437l-17.709,17.709c-3.242,3.243-3.242,8.498,0,11.74
		c1.62,1.62,3.746,2.431,5.87,2.431s4.249-0.81,5.87-2.431l17.709-17.709c3.242-3.243,3.242-8.498,0-11.74
		C267.482,423.196,262.227,423.196,258.984,426.437z"/>
	<path style="fill:#FFFFFF;" d="M164.467,426.437c-3.242-3.241-8.498-3.241-11.739,0l-2.985,2.985l-2.985-2.985
		c-3.242-3.241-8.498-3.241-11.739,0c-3.242,3.243-3.242,8.498,0,11.74l2.984,2.984l-2.984,2.984c-3.242,3.243-3.242,8.498,0,11.74
		c1.62,1.62,3.746,2.431,5.87,2.431s4.249-0.81,5.87-2.431l2.985-2.985l2.985,2.985c1.62,1.62,3.746,2.431,5.87,2.431
		c2.124,0,4.249-0.81,5.87-2.431c3.242-3.243,3.242-8.498,0-11.74l-2.984-2.984l2.984-2.984
		C167.709,434.935,167.709,429.68,164.467,426.437z"/>
	<path style="fill:#FFFFFF;" d="M353.402,379.179h17.709c4.586,0,8.301-3.716,8.301-8.301c0-4.586-3.716-8.301-8.301-8.301h-17.709
		c-4.586,0-8.301,3.716-8.301,8.301C345.101,375.463,348.816,379.179,353.402,379.179z"/>
	<path style="fill:#FFFFFF;" d="M371.111,389.14h-17.709c-4.586,0-8.301,3.716-8.301,8.301c0,4.586,3.716,8.301,8.301,8.301h17.709
		c4.586,0,8.301-3.716,8.301-8.301C379.413,392.856,375.696,389.14,371.111,389.14z"/>
</g>
<path style="fill:#6AC8B7;" d="M291.419,86.973c4.586,0,8.301-3.716,8.301-8.301c0-4.586-3.716-8.301-8.301-8.301h-27.671V59.855
	c0-4.586-3.716-8.301-8.301-8.301c-4.585,0-8.301,3.716-8.301,8.301V70.37h-8.855c-14.342,0-26.564,10.561-26.564,24.904v26.564
	c0,14.342,12.222,27.118,26.564,27.118h8.855v45.38h-26.564c-4.585,0-8.301,3.716-8.301,8.301s3.717,8.301,8.301,8.301h26.564v8.301
	c0,4.586,3.717,8.301,8.301,8.301c4.586,0,8.301-3.716,8.301-8.301v-8.301h9.962c14.342,0,25.457-12.775,25.457-27.118v-26.564
	c0-14.342-11.115-24.904-25.457-24.904h-9.962v-45.38H291.419z M273.709,148.956c5.188,0,8.855,3.114,8.855,8.301v26.564
	c0,5.188-3.667,10.515-8.855,10.515h-9.962v-45.38H273.709z M247.145,132.353h-8.855c-5.188,0-9.962-5.327-9.962-10.515V95.274
	c0-5.188,4.774-8.301,9.962-8.301h8.855V132.353z"/>
</svg>