<?xml version="1.0" encoding="iso-8859-1"?>
<!-- Uploaded to: SVG Repo, www.svgrepo.com, Generator: SVG Repo Mixer Tools -->
<svg height="800px" width="800px" version="1.1" id="Layer_1" xmlns="http://www.w3.org/2000/svg" xmlns:xlink="http://www.w3.org/1999/xlink" 
	 viewBox="0 0 512 512" xml:space="preserve">
<circle style="fill:#83CF8F;" cx="256" cy="256" r="256"/>
<path style="fill:#FFD190;" d="M262.048,203.932l14.2-25.771c2.104-3.682,2.235-16.699,2.235-16.699l-20.775-0.92l-17.75,21.169
	l4.733,28.401l9.467,15.91c4.602,8.809-5.522,21.3-12.754,11.965l-18.276-23.01c0,0-8.152-33.003-6.311-42.075
	c1.841-9.072,32.214-60.877,32.214-60.877s49.438-26.428,69.161-35.369l31.162-48.912c16.304,4.076,32.214,10.256,47.466,18.408
	l-41.549,60.22c0,0-17.882,43.784-28.401,55.881c-10.65,11.965-28.401,26.691-28.401,26.691s-14.726,23.404-22.089,28.006
	c-9.335,7.1-20.643-1.315-14.332-12.754V203.932z"/>
<g>
	<path style="fill:#FFFFFF;" d="M238.776,235.62c0.394-0.394,2.893-1.972,2.893-1.972l5.391,6.706c0,0-0.526,3.55-3.156,1.183
		S238.776,235.62,238.776,235.62z"/>
	<polygon style="fill:#FFFFFF;" points="310.303,67.846 377.492,105.976 387.616,88.226 320.427,50.096 	"/>
</g>
<path style="fill:#6B7F9E;" d="M311.881,48.781l81.257,46.151l23.273-38.525c-24.719-19.854-53.251-35.369-84.281-44.968
	L311.881,48.781z"/>
<path style="fill:#8597B1;" d="M393.27,71.265c3.024,1.446,4.208,4.865,2.893,7.889c-1.446,2.893-4.865,4.076-7.889,2.63
	c-3.024-1.446-4.207-4.865-2.893-7.889C386.827,71.002,390.245,69.818,393.27,71.265z"/>
<g>
	<path style="fill:#FF7069;" d="M417.463,365.526c-0.657,49.175-50.753,94.143-74.42,103.478
		c-11.439,14.726,0.132,32.082-23.667,31.425l-7.1-22.221c-27.612,11.176-64.559,13.28-89.409,6.706l-8.284,15.647
		c-9.204,0.131-15.121,1.052-16.436-6.443l-2.235-13.148c-2.104-2.104-17.356-8.021-24.193-11.702
		c-52.857-31.819-48.781-60.088-81.652-66.005c-13.28-2.367-19.197-5.522-18.408-9.861l24.719-2.498l-14.069-0.394l-22.221-0.526
		c-7.1-12.622-6.837-32.74-5.391-40.366c1.578-7.626,14.332,12.491,57.064-39.84c64.296-108.08,296.76-94.143,305.438,45.757
		c1.315,0.92,3.682,1.972,6.18,2.761l0.394,0.131c-0.263-1.052-0.394-2.104-0.394-3.024c0-2.104,0.657-3.945,1.709-5.522
		c1.972-2.893,5.128-4.602,9.072-3.813c6.048,1.315,10.124,8.678,6.048,13.806c-1.183,1.446-3.024,2.761-5.785,3.419
		c2.367,0.92,5.654,1.315,9.73,1.183c-0.131,3.682-13.543,3.024-17.356-0.92c-1.446-0.263-3.156-0.657-4.733-1.183
		s-3.287-1.183-4.602-1.841c0,1.578,0.132,3.287,0,4.865V365.526z M429.033,359.478c0.263,0,0.526,0,0.789,0
		c10.387-0.394,8.941-8.021,3.55-9.204c-1.972-0.394-3.55,0.394-4.47,1.841c-0.657,0.92-0.92,2.104-1.052,3.287
		c0,1.183,0.263,2.498,1.052,3.682c0,0.131,0.131,0.263,0.263,0.263L429.033,359.478z"/>
	<path style="fill:#FF7069;" d="M97.167,253.633l24.588,53.12l54.435-23.536c-23.536-20.38-50.227-28.795-78.891-29.584H97.167z"/>
</g>
<g>
	<path style="fill:#F7635B;" d="M97.167,253.633c0,0,14.989,7.889,25.245,24.851c10.256,16.961-0.657,28.269-0.657,28.269
		L97.167,253.633z"/>
	<path style="fill:#F7635B;" d="M129.644,322.005c9.861,0,17.882,7.1,17.882,15.778c0,8.678-8.021,15.778-17.882,15.778
		c-9.861,0-17.882-7.1-17.882-15.778C111.762,329.105,119.782,322.005,129.644,322.005z"/>
</g>
<path style="fill:#FFFFFF;" d="M128.592,323.451c8.152,0,14.726,5.785,14.726,13.017c0,7.232-6.574,13.017-14.726,13.017
	s-14.726-5.785-14.726-13.017C113.865,329.237,120.44,323.451,128.592,323.451z"/>
<path style="fill:#596366;" d="M128.986,325.161c3.682,0,6.574,2.893,6.574,6.443s-2.893,6.443-6.574,6.443
	s-6.574-2.893-6.574-6.443S125.305,325.161,128.986,325.161z"/>
<g>
	<path style="fill:#F7635B;" d="M257.841,250.346c25.245,0,48.518,4.602,67.32,12.228l10.124,16.961
		c-41.418-17.75-113.997-16.436-152.522,0l7.889-16.961c18.671-7.626,41.943-12.228,67.32-12.228H257.841z"/>
	<path style="fill:#F7635B;" d="M417.463,360.53c-45.362,106.897-219.184,125.173-299.258,59.562
		c10.913,12.491,22.221,30.11,53.646,49.044c6.706,3.682,21.958,9.73,24.193,11.702l2.235,13.148
		c1.315,7.363,7.232,6.574,16.436,6.443l8.284-15.647c24.851,6.574,61.798,4.47,89.409-6.706l7.1,22.221
		c23.667,0.657,12.228-16.699,23.667-31.425c23.667-9.467,73.631-54.435,74.42-103.478c0-1.709,0-3.287,0-4.865H417.463z
		 M109.132,411.283L109.132,411.283c0,0-0.263-0.132-0.657-0.526C108.738,410.889,108.869,411.02,109.132,411.283z"/>
</g>
<path style="fill:#FFE356;" d="M263.232,188.286c19.723,0,35.764,16.041,35.764,35.764s-16.041,35.764-35.764,35.764
	s-35.764-16.041-35.764-35.764S243.509,188.286,263.232,188.286z"/>
<path style="fill:#FCD34E;" d="M263.232,198.015c14.332,0,26.034,11.571,26.034,26.034c0,14.332-11.571,26.034-26.034,26.034
	c-14.332,0-26.034-11.571-26.034-26.034C237.198,209.717,248.768,198.015,263.232,198.015z"/>
<path style="fill:#FFFFFF;" d="M272.436,213.531c0,0-2.104-2.893-6.311-3.55v-3.813h-4.47v4.076
	c-0.263,0.131-0.657,0.131-0.92,0.263c-7.889,2.367-6.18,8.415-6.048,9.335s1.709,3.419,5.259,5.259
	c3.55,1.709,7.626,3.156,8.021,4.865c0.263,1.709-1.183,4.207-4.339,3.813c-3.156-0.263-6.969-3.156-6.969-3.156l-3.024,3.682
	c0,0,2.498,3.156,8.021,3.813v3.813h4.47v-3.945c5.785-0.92,6.574-5.259,6.574-5.259s1.578-4.865-2.367-7.758
	c-3.945-2.761-9.598-3.55-10.65-6.443c-0.92-2.761,2.104-5.259,4.996-4.339c2.761,0.92,4.996,2.893,4.996,2.893l2.63-3.682
	L272.436,213.531z"/>
<path style="fill:#FFD190;" d="M262.048,203.932c6.311-11.439,12.097-22.221,14.2-25.771c2.104-3.682,2.235-16.699,2.235-16.699
	s25.771-17.619,34.843-9.467c8.941,8.152,8.021,10.519,8.941,14.989c-10.387,10.782-23.667,21.695-23.667,21.695
	s-14.726,23.404-21.958,28.006c-9.335,7.1-20.643-1.315-14.332-12.754H262.048z"/>
<path style="fill:#FFFFFF;" d="M266.65,217.081l7.363-11.965l7.1,4.602c0,0-6.311,10.519-9.072,11.308
	C269.148,221.814,266.256,218.79,266.65,217.081z"/>
</svg>