<?xml version="1.0" encoding="iso-8859-1"?>
<!-- Uploaded to: SVG Repo, www.svgrepo.com, Generator: SVG Repo Mixer Tools -->
<svg version="1.1" id="Layer_1" xmlns="http://www.w3.org/2000/svg" xmlns:xlink="http://www.w3.org/1999/xlink" 
	 viewBox="0 0 505 505" xml:space="preserve">
<circle style="fill:#324A5E;" cx="252.5" cy="252.5" r="252.5"/>
<polygon style="fill:#FFFFFF;" points="325.6,86.1 325.6,139.7 379.1,139.7 379.1,418.9 125.9,418.9 125.9,86.1 "/>
<g>
	<polygon style="fill:#E6E9EE;" points="325.6,86.1 379.1,139.7 325.6,139.7 	"/>
	<rect x="155.7" y="110.4" style="fill:#E6E9EE;" width="90" height="11.4"/>
	<rect x="155.7" y="138.8" style="fill:#E6E9EE;" width="62.5" height="11.4"/>
</g>
<polygon style="fill:#FF7058;" points="345.4,244 354.6,196 306.6,205.3 321.1,219.8 267,273.9 221.7,228.6 164.9,285.3 
	174.7,295.2 221.7,248.3 267,293.6 330.9,229.6 "/>
<circle style="fill:#324A5E;" cx="169.8" cy="290.3" r="18.7"/>
<circle style="fill:#FFD05B;" cx="220.2" cy="239.8" r="18.7"/>
<circle style="fill:#54C0EB;" cx="264.5" cy="284.1" r="18.7"/>
</svg>