<?xml version="1.0" encoding="iso-8859-1"?>
<!-- Uploaded to: SVG Repo, www.svgrepo.com, Generator: SVG Repo Mixer Tools -->
<svg height="800px" width="800px" version="1.1" id="Layer_1" xmlns="http://www.w3.org/2000/svg" xmlns:xlink="http://www.w3.org/1999/xlink"
	 viewBox="0 0 512 512" xml:space="preserve">
<circle style="fill:#FFC61B;" cx="256" cy="256" r="256"/>
<path style="fill:#EAA22F;" d="M270.631,511.574c129.164-7.28,232.715-110.306,240.836-239.244L409.774,170.637l-53.315,145.908
	L105.97,346.914L270.631,511.574z"/>
<path style="fill:#273B7A;" d="M386.874,156.444H125.126c-14.122,0-25.571,11.448-25.571,25.571v147.968
	c0,14.122,11.448,25.571,25.571,25.571h261.746c14.122,0,25.571-11.448,25.571-25.571V182.015
	C412.444,167.893,400.996,156.444,386.874,156.444z"/>
<path style="fill:#121149;" d="M386.874,156.444H256v199.111h130.872c14.122,0,25.571-11.448,25.571-25.571V182.017
	C412.444,167.893,400.996,156.444,386.874,156.444z"/>
<circle style="fill:#FFEDB5;" cx="356.28" cy="211.178" r="21.261"/>
<circle style="fill:#FEE187;" cx="328.404" cy="211.178" r="21.261"/>
<g>
	<path style="fill:#FFEDB5;" d="M284.444,287.03H142.222c-1.427,0-2.586-1.158-2.586-2.586s1.158-2.586,2.586-2.586h142.222
		c1.427,0,2.586,1.158,2.586,2.586S285.872,287.03,284.444,287.03z"/>
	<path style="fill:#FFEDB5;" d="M227.556,315.475h-85.333c-1.427,0-2.586-1.158-2.586-2.586s1.158-2.586,2.586-2.586h85.333
		c1.427,0,2.586,1.158,2.586,2.586S228.983,315.475,227.556,315.475z"/>
</g>
</svg>
