<?xml version="1.0" encoding="iso-8859-1"?>
<!-- Uploaded to: SVG Repo, www.svgrepo.com, Generator: SVG Repo Mixer Tools -->
<svg version="1.1" id="Layer_1" xmlns="http://www.w3.org/2000/svg" xmlns:xlink="http://www.w3.org/1999/xlink" 
	 viewBox="0 0 512 512" xml:space="preserve">
<circle style="fill:#FFC61B;" cx="256" cy="256" r="256"/>
<path style="fill:#EAA22F;" d="M261.106,511.936C400.132,509.212,512,395.678,512,256c0-7.913-0.378-15.738-1.081-23.468
	L395.193,116.807l-80.25,85.794l-9.094-9.094l-189.028,31.03l138.942,138.942c-49.404,2.312-134.952,6.299-136.814,6.299
	L261.106,511.936z"/>
<rect x="142.222" y="215.919" style="fill:#FFFFFF;" width="227.556" height="142.222"/>
<rect x="255.431" y="215.919" style="fill:#D0D1D3;" width="114.347" height="142.222"/>
<path style="fill:#930000;" d="M301.684,245.657h-56.889c-2.857,0-5.172-2.315-5.172-5.172s2.315-5.172,5.172-5.172h56.889
	c2.857,0,5.172,2.315,5.172,5.172S304.54,245.657,301.684,245.657z"/>
<path style="fill:#FF5419;" d="M312.889,318.061c-1.324,0-2.646-0.505-3.656-1.515c-2.02-2.019-2.02-5.294,0-7.313l26.929-26.929
	v-54.748c0-2.857,2.315-5.172,5.172-5.172s5.172,2.315,5.172,5.172v56.889c0,1.372-0.545,2.688-1.515,3.656l-28.444,28.444
	C315.535,317.555,314.213,318.061,312.889,318.061z"/>
<path style="fill:#C92F00;" d="M118.949,369.778h274.101c2.857,0,5.172-2.315,5.172-5.172v-18.101c0-2.857-2.315-5.172-5.172-5.172
	H118.949c-2.857,0-5.172,2.315-5.172,5.172v18.101C113.778,367.463,116.093,369.778,118.949,369.778z"/>
<path style="fill:#930000;" d="M393.051,341.333H255.426v28.444h137.625c2.857,0,5.172-2.315,5.172-5.172v-18.101
	C398.222,343.649,395.907,341.333,393.051,341.333z"/>
<rect x="182.303" y="248.242" style="fill:#FF5419;" width="62.061" height="18.963"/>
<g>
	<rect x="170.667" y="224.539" style="fill:#C92F00;" width="85.333" height="28.444"/>
	<path style="fill:#C92F00;" d="M124.121,227.556h263.758c5.713,0,10.343-4.63,10.343-10.343v-93.091
		c0-5.713-4.63-10.343-10.343-10.343H124.121c-5.713,0-10.343,4.63-10.343,10.343v93.091
		C113.778,222.925,118.408,227.556,124.121,227.556z"/>
</g>
<path style="fill:#930000;" d="M387.879,113.778H255.426v113.778h132.453c5.713,0,10.343-4.63,10.343-10.343v-93.091
	C398.222,118.408,393.592,113.778,387.879,113.778z"/>
<path style="fill:#FEE187;" d="M273.67,298.667L273.67,298.667c0,7.854-6.368,14.222-14.222,14.222h-14.222v-28.444h14.222
	C267.302,284.444,273.67,290.813,273.67,298.667z"/>
<path style="fill:#FFC61B;" d="M213.333,341.333L213.333,341.333c-23.564,0-42.667-19.103-42.667-42.667v-14.222H256v14.222
	C256,322.231,236.897,341.333,213.333,341.333z"/>
<path style="fill:#EAA22F;" d="M212.902,284.444v56.879c0.145,0.002,0.286,0.01,0.431,0.01c23.564,0,42.667-19.103,42.667-42.667
	v-14.222H212.902z"/>
<g>
	<path style="fill:#E09112;" d="M156.444,175.838c-10.693,0-19.394-8.701-19.394-19.394s8.701-19.394,19.394-19.394
		s19.394,8.701,19.394,19.394S167.138,175.838,156.444,175.838z M156.444,147.394c-4.991,0-9.051,4.06-9.051,9.051
		c0,4.991,4.06,9.051,9.051,9.051c4.991,0,9.051-4.06,9.051-9.051C165.495,151.454,161.433,147.394,156.444,147.394z"/>
	<path style="fill:#E09112;" d="M213.333,175.838c-10.693,0-19.394-8.701-19.394-19.394s8.701-19.394,19.394-19.394
		s19.394,8.701,19.394,19.394S224.027,175.838,213.333,175.838z M213.333,147.394c-4.991,0-9.051,4.06-9.051,9.051
		c0,4.991,4.06,9.051,9.051,9.051s9.051-4.06,9.051-9.051C222.384,151.454,218.322,147.394,213.333,147.394z"/>
	<path style="fill:#E09112;" d="M270.222,175.838c-10.693,0-19.394-8.701-19.394-19.394s8.701-19.394,19.394-19.394
		c10.693,0,19.394,8.701,19.394,19.394S280.916,175.838,270.222,175.838z M270.222,147.394c-4.991,0-9.051,4.06-9.051,9.051
		c0,4.991,4.06,9.051,9.051,9.051c4.991,0,9.051-4.06,9.051-9.051C279.273,151.454,275.211,147.394,270.222,147.394z"/>
</g>
<g>
	<path style="fill:#FF5419;" d="M369.778,147.394h-28.444c-2.857,0-5.172-2.315-5.172-5.172s2.315-5.172,5.172-5.172h28.444
		c2.857,0,5.172,2.315,5.172,5.172S372.634,147.394,369.778,147.394z"/>
	<path style="fill:#FF5419;" d="M369.778,175.838h-28.444c-2.857,0-5.172-2.315-5.172-5.172s2.315-5.172,5.172-5.172h28.444
		c2.857,0,5.172,2.315,5.172,5.172S372.634,175.838,369.778,175.838z"/>
	<path style="fill:#FF5419;" d="M369.778,204.283h-28.444c-2.857,0-5.172-2.315-5.172-5.172c0-2.857,2.315-5.172,5.172-5.172h28.444
		c2.857,0,5.172,2.315,5.172,5.172C374.949,201.968,372.634,204.283,369.778,204.283z"/>
</g>
</svg>