<?xml version="1.0" encoding="iso-8859-1"?>
<!-- Uploaded to: SVG Repo, www.svgrepo.com, Generator: SVG Repo Mixer Tools -->
<svg height="800px" width="800px" version="1.1" id="Layer_1" xmlns="http://www.w3.org/2000/svg" xmlns:xlink="http://www.w3.org/1999/xlink" 
	 viewBox="0 0 480 480" xml:space="preserve">
<circle style="fill:#033251;" cx="240" cy="240" r="235.2"/>
<g>
	<path style="fill:#00233F;" d="M240,4.8c129.6,0,235.2,105.6,235.2,235.2S369.6,475.2,240,475.2"/>
	<path style="fill:#00233F;" d="M272,8.8c0,4-3.2,7.2-7.2,7.2h-57.6c-4,0-7.2-3.2-7.2-7.2V7.2c0-4,3.2-7.2,7.2-7.2h57.6
		c4,0,7.2,3.2,7.2,7.2V8.8z"/>
	<path style="fill:#00233F;" d="M272,472.8c0,4-3.2,7.2-7.2,7.2h-57.6c-4,0-7.2-3.2-7.2-7.2v-1.6c0-4,3.2-7.2,7.2-7.2h57.6
		c4,0,7.2,3.2,7.2,7.2V472.8z"/>
	<path style="fill:#00233F;" d="M432,100.8c-2.4,2.4-7.2,2.4-9.6,0l-43.2-43.2c-2.4-2.4-2.4-7.2,0-9.6l0,0c2.4-2.4,7.2-2.4,9.6,0
		L432,91.2C435.2,93.6,435.2,97.6,432,100.8L432,100.8z"/>
	<path style="fill:#00233F;" d="M100.8,432c-2.4,2.4-7.2,2.4-9.6,0L48,388.8c-2.4-2.4-2.4-7.2,0-9.6l0,0c2.4-2.4,7.2-2.4,9.6,0
		l43.2,43.2C103.2,424.8,103.2,429.6,100.8,432L100.8,432z"/>
	<path style="fill:#00233F;" d="M480,264.8c0,4-3.2,7.2-7.2,7.2h-2.4c-4,0-7.2-3.2-7.2-7.2v-57.6c0-4,3.2-7.2,7.2-7.2h2.4
		c4,0,7.2,3.2,7.2,7.2V264.8z"/>
	<path style="fill:#00233F;" d="M16,264.8c0,4-3.2,7.2-7.2,7.2H7.2c-4,0-7.2-3.2-7.2-7.2v-57.6c0-4,3.2-7.2,7.2-7.2h1.6
		c4,0,7.2,3.2,7.2,7.2V264.8z"/>
	<path style="fill:#00233F;" d="M379.2,432c-2.4-2.4-2.4-7.2,0-9.6l43.2-43.2c2.4-2.4,7.2-2.4,9.6,0l0,0c2.4,2.4,2.4,7.2,0,9.6
		L388.8,432C386.4,435.2,382.4,435.2,379.2,432L379.2,432z"/>
	<path style="fill:#00233F;" d="M48,100.8c-2.4-2.4-2.4-7.2,0-9.6L91.2,48c2.4-2.4,7.2-2.4,9.6,0l0,0c2.4,2.4,2.4,7.2,0,9.6
		l-43.2,43.2C55.2,103.2,50.4,103.2,48,100.8L48,100.8z"/>
	<path style="fill:#00233F;" d="M363.2,36.8c-1.6,3.2-5.6,5.6-8.8,4l-56.8-23.2c-3.2-1.6-5.6-5.6-4-8.8l0,0c1.6-3.2,5.6-5.6,8.8-4
		L360,28C363.2,29.6,364.8,33.6,363.2,36.8L363.2,36.8z"/>
	<path style="fill:#00233F;" d="M185.6,471.2c-1.6,3.2-5.6,5.6-8.8,4L120,452c-3.2-1.6-5.6-5.6-4-8.8l0,0c1.6-3.2,5.6-5.6,8.8-4
		l56.8,23.2C185.6,463.2,187.2,468,185.6,471.2L185.6,471.2z"/>
	<path style="fill:#00233F;" d="M470.4,184c-3.2,1.6-8,0-8.8-4l-24-56c-1.6-3.2,0-8,4-8.8l0,0c3.2-1.6,8,0,8.8,4l23.2,56
		C476,178.4,474.4,182.4,470.4,184L470.4,184z"/>
	<path style="fill:#00233F;" d="M38.4,365.6c-3.2,1.6-8,0-8.8-4l-23.2-56c-1.6-3.2,0-8,4-8.8l0,0c3.2-1.6,8,0,8.8,4l23.2,56
		C43.2,360,41.6,364,38.4,365.6L38.4,365.6z"/>
	<path style="fill:#00233F;" d="M443.2,363.2c-3.2-1.6-5.6-5.6-4-8.8l23.2-56.8c1.6-3.2,5.6-5.6,8.8-4l0,0c3.2,1.6,5.6,5.6,4,8.8
		L452,360C450.4,363.2,446.4,364.8,443.2,363.2L443.2,363.2z"/>
	<path style="fill:#00233F;" d="M8.8,185.6c-3.2-1.6-5.6-5.6-4-8.8L28,120c1.6-3.2,5.6-5.6,8.8-4l0,0c3.2,1.6,5.6,5.6,4,8.8
		l-23.2,56.8C16.8,185.6,12,187.2,8.8,185.6L8.8,185.6z"/>
	<path style="fill:#00233F;" d="M296,470.4c-1.6-3.2,0-8,4-8.8l56-24c3.2-1.6,8,0,8.8,4l0,0c1.6,3.2,0,8-4,8.8l-56,23.2
		C301.6,476,297.6,474.4,296,470.4L296,470.4z"/>
	<path style="fill:#00233F;" d="M114.4,38.4c-1.6-3.2,0-8,4-8.8l56-23.2c3.2-1.6,8,0,8.8,4l0,0c1.6,3.2,0,8-4,8.8l-56,23.2
		C120,43.2,116,41.6,114.4,38.4L114.4,38.4z"/>
</g>
<circle style="fill:#92A2A5;" cx="240" cy="240" r="129.6"/>
<path style="fill:#CED8DB;" d="M369.6,240c0,71.2-57.6,113.6-129.6,113.6S110.4,311.2,110.4,240S168,126.4,240,126.4
	S369.6,168.8,369.6,240z"/>
<path style="fill:#B3C2C6;" d="M309.6,240c0,38.4-31.2,77.6-69.6,77.6s-69.6-39.2-69.6-77.6s31.2-77.6,69.6-77.6
	S309.6,201.6,309.6,240z"/>
<circle style="fill:#E6F1F4;" cx="240" cy="240" r="69.6"/>
<circle style="fill:#92A2A5;" cx="240" cy="240" r="45.6"/>
<g>
	<path style="fill:#798C8E;" d="M240,285.6c-24.8,0-45.6-20-45.6-45.6c0-24.8,20-45.6,45.6-45.6"/>
	<g style="opacity:0.3;">
		<circle style="fill:#798C8E;" cx="240" cy="120" r="3.2"/>
		<circle style="fill:#798C8E;" cx="240" cy="133.6" r="3.2"/>
		<circle style="fill:#798C8E;" cx="240" cy="146.4" r="3.2"/>
		<circle style="fill:#798C8E;" cx="240" cy="159.2" r="3.2"/>
	</g>
	<g style="opacity:0.3;">
		<circle style="fill:#798C8E;" cx="240" cy="320.8" r="3.2"/>
		<circle style="fill:#798C8E;" cx="240" cy="333.6" r="3.2"/>
		<circle style="fill:#798C8E;" cx="240" cy="346.4" r="3.2"/>
		<circle style="fill:#798C8E;" cx="240" cy="360" r="3.2"/>
	</g>
	<g style="opacity:0.3;">
		<circle style="fill:#798C8E;" cx="324.8" cy="155.2" r="3.2"/>
		<circle style="fill:#798C8E;" cx="315.2" cy="164.8" r="3.2"/>
		<circle style="fill:#798C8E;" cx="306.4" cy="173.6" r="3.2"/>
		<circle style="fill:#798C8E;" cx="296.8" cy="183.2" r="3.2"/>
	</g>
	<g style="opacity:0.3;">
		<circle style="fill:#798C8E;" cx="183.2" cy="296.8" r="3.2"/>
		<circle style="fill:#798C8E;" cx="173.6" cy="306.4" r="3.2"/>
		<circle style="fill:#798C8E;" cx="164.8" cy="315.2" r="3.2"/>
		<circle style="fill:#798C8E;" cx="155.2" cy="324.8" r="3.2"/>
	</g>
	<g style="opacity:0.3;">
		<circle style="fill:#798C8E;" cx="360" cy="240" r="3.2"/>
		<circle style="fill:#798C8E;" cx="346.4" cy="240" r="3.2"/>
		<circle style="fill:#798C8E;" cx="333.6" cy="240" r="3.2"/>
		<circle style="fill:#798C8E;" cx="320.8" cy="240" r="3.2"/>
	</g>
	<g style="opacity:0.3;">
		<circle style="fill:#798C8E;" cx="159.2" cy="240" r="3.2"/>
		<circle style="fill:#798C8E;" cx="146.4" cy="240" r="3.2"/>
		<circle style="fill:#798C8E;" cx="133.6" cy="240" r="3.2"/>
		<circle style="fill:#798C8E;" cx="120" cy="240" r="3.2"/>
	</g>
	<g style="opacity:0.3;">
		<circle style="fill:#798C8E;" cx="324.8" cy="324.8" r="3.2"/>
		<circle style="fill:#798C8E;" cx="315.2" cy="315.2" r="3.2"/>
		<circle style="fill:#798C8E;" cx="306.4" cy="306.4" r="3.2"/>
		<circle style="fill:#798C8E;" cx="296.8" cy="296.8" r="3.2"/>
	</g>
	<g style="opacity:0.3;">
		<circle style="fill:#798C8E;" cx="183.2" cy="183.2" r="3.2"/>
		<circle style="fill:#798C8E;" cx="173.6" cy="173.6" r="3.2"/>
		<circle style="fill:#798C8E;" cx="164.8" cy="164.8" r="3.2"/>
		<circle style="fill:#798C8E;" cx="155.2" cy="155.2" r="3.2"/>
	</g>
	<g style="opacity:0.3;">
		<circle style="fill:#798C8E;" cx="285.6" cy="129.6" r="3.2"/>
		<circle style="fill:#798C8E;" cx="280.8" cy="141.6" r="3.2"/>
		<circle style="fill:#798C8E;" cx="276" cy="153.6" r="3.2"/>
		<circle style="fill:#798C8E;" cx="270.4" cy="165.6" r="3.2"/>
	</g>
	<g style="opacity:0.3;">
		<circle style="fill:#798C8E;" cx="209.6" cy="314.4" r="3.2"/>
		<circle style="fill:#798C8E;" cx="204" cy="326.4" r="3.2"/>
		<circle style="fill:#798C8E;" cx="199.2" cy="338.4" r="3.2"/>
		<circle style="fill:#798C8E;" cx="194.4" cy="350.4" r="3.2"/>
	</g>
	<g style="opacity:0.3;">
		<circle style="fill:#798C8E;" cx="350.4" cy="194.4" r="3.2"/>
		<circle style="fill:#798C8E;" cx="338.4" cy="199.2" r="3.2"/>
		<circle style="fill:#798C8E;" cx="326.4" cy="204" r="3.2"/>
		<circle style="fill:#798C8E;" cx="314.4" cy="208.8" r="3.2"/>
	</g>
	<g style="opacity:0.3;">
		<circle style="fill:#798C8E;" cx="165.6" cy="271.2" r="3.2"/>
		<circle style="fill:#798C8E;" cx="153.6" cy="276" r="3.2"/>
		<circle style="fill:#798C8E;" cx="141.6" cy="280.8" r="3.2"/>
		<circle style="fill:#798C8E;" cx="129.6" cy="285.6" r="3.2"/>
	</g>
	<g style="opacity:0.3;">
		<circle style="fill:#798C8E;" cx="350.4" cy="285.6" r="3.2"/>
		<circle style="fill:#798C8E;" cx="338.4" cy="280.8" r="3.2"/>
		<circle style="fill:#798C8E;" cx="326.4" cy="276" r="3.2"/>
		<circle style="fill:#798C8E;" cx="314.4" cy="270.4" r="3.2"/>
	</g>
	<g style="opacity:0.3;">
		<circle style="fill:#798C8E;" cx="165.6" cy="209.6" r="3.2"/>
		<circle style="fill:#798C8E;" cx="153.6" cy="204" r="3.2"/>
		<circle style="fill:#798C8E;" cx="141.6" cy="199.2" r="3.2"/>
		<circle style="fill:#798C8E;" cx="129.6" cy="194.4" r="3.2"/>
	</g>
	<g style="opacity:0.3;">
		<circle style="fill:#798C8E;" cx="285.6" cy="350.4" r="3.2"/>
		<circle style="fill:#798C8E;" cx="280.8" cy="338.4" r="3.2"/>
		<circle style="fill:#798C8E;" cx="276" cy="326.4" r="3.2"/>
		<circle style="fill:#798C8E;" cx="271.2" cy="314.4" r="3.2"/>
	</g>
	<g style="opacity:0.3;">
		<circle style="fill:#798C8E;" cx="208.8" cy="165.6" r="3.2"/>
		<circle style="fill:#798C8E;" cx="204" cy="153.6" r="3.2"/>
		<circle style="fill:#798C8E;" cx="199.2" cy="141.6" r="3.2"/>
		<circle style="fill:#798C8E;" cx="194.4" cy="129.6" r="3.2"/>
	</g>
</g>
<g>
	<path style="fill:#516477;" d="M240,438.4c-112,0-198.4-88.8-198.4-198.4h16c0,100.8,78.4,182.4,182.4,182.4V438.4z"/>
	<path style="fill:#516477;" d="M438.4,240h-16C422.4,139.2,344,57.6,240,57.6v-16C352,41.6,438.4,130.4,438.4,240z"/>
</g>
</svg>