<?xml version="1.0" encoding="utf-8"?>
<!-- Uploaded to: SVG Repo, www.svgrepo.com, Generator: SVG Repo Mixer Tools -->
<svg xmlns="http://www.w3.org/2000/svg" xmlns:xlink="http://www.w3.org/1999/xlink" version="1.1" id="network"  viewBox="0 0 232 215.8223" enable-background="new 0 0 232 215.8223" xml:space="preserve" width="512" height="512">
<g>
	<rect x="96" y="156" fill="#5CB0FF" width="40" height="16"/>
	<rect x="96" y="8" fill="#5CB0FF" width="40" height="24"/>
	<rect x="52" y="84" fill="#5CB0FF" width="40" height="16"/>
	<rect x="8" y="156" fill="#D0E8FF" width="40" height="16"/>
	<rect x="184" y="156" fill="#D0E8FF" width="40" height="16"/>
	<rect x="140" y="84" fill="#D0E8FF" width="40" height="16"/>
	<path fill="#1C71DA" d="M228,148h-20V92c0-2.2109-1.7891-4-4-4h-16v-8c0-2.2109-1.7891-4-4-4h-20V20c0-2.2109-1.7891-4-4-4h-16V4   c0-2.2109-1.7891-4-4-4H92c-2.2109,0-4,1.7891-4,4v12H72c-2.2109,0-4,1.7891-4,4v56H48c-2.2109,0-4,1.7891-4,4v8H28   c-2.2109,0-4,1.7891-4,4v56H4c-2.2109,0-4,1.7891-4,4v24c0,2.2109,1.7891,4,4,4h48c2.2109,0,4-1.7891,4-4v-24   c0-2.2109-1.7891-4-4-4H32V96h12v8c0,2.2109,1.7891,4,4,4h48c2.2109,0,4-1.7891,4-4v-8h12v52H92c-2.2109,0-4,1.7891-4,4v24   c0,2.2109,1.7891,4,4,4h48c2.2109,0,4-1.7891,4-4v-24c0-2.2109-1.7891-4-4-4h-20V96h12v8c0,2.2109,1.7891,4,4,4h48   c2.2109,0,4-1.7891,4-4v-8h12v52h-20c-2.2109,0-4,1.7891-4,4v24c0,2.2109,1.7891,4,4,4h48c2.2109,0,4-1.7891,4-4v-24   C232,149.7891,230.2109,148,228,148z M48,172H8v-16h40V172z M136,172H96v-16h40V172z M96,8h40v24H96V8z M92,100H52V84h40V100z    M132,80v8h-12h-8h-12v-8c0-2.2109-1.7891-4-4-4H76V24h12v12c0,2.2109,1.7891,4,4,4h48c2.2109,0,4-1.7891,4-4V24h12v52h-20   C133.7891,76,132,77.7891,132,80z M180,100h-40V84h40V100z M224,172h-40v-16h40V172z"/>
</g>
<path fill="#FF5D5D" d="M28.252,47.8223c-1.0234,0-2.0479-0.3906-2.8281-1.1719c-1.5625-1.5615-1.5625-4.0947,0-5.6562  l14.1426-14.1426c1.5605-1.5625,4.0957-1.5625,5.6562,0c1.5625,1.5615,1.5625,4.0947,0,5.6562L31.0801,46.6504  C30.2998,47.4316,29.2754,47.8223,28.252,47.8223z"/>
<path fill="#FF5D5D" d="M42.3945,47.8223c-1.0234,0-2.0469-0.3906-2.8281-1.1719L25.4238,32.5088  c-1.5625-1.5615-1.5625-4.0947,0-5.6562c1.5605-1.5625,4.0938-1.5625,5.6562,0l14.1426,14.1416  c1.5625,1.5615,1.5625,4.0947,0,5.6562C44.4424,47.4316,43.418,47.8223,42.3945,47.8223z"/>
<path fill="#00D40B" d="M122.252,215.8223c-7.7197,0-14-6.2803-14-14s6.2803-14,14-14s14,6.2803,14,14  S129.9717,215.8223,122.252,215.8223z M122.252,195.8223c-3.3086,0-6,2.6914-6,6s2.6914,6,6,6s6-2.6914,6-6  S125.5605,195.8223,122.252,195.8223z"/>
<path fill="#FFC504" d="M203.5664,38.4492c-1.0234,0-2.0469-0.3906-2.8281-1.1719l-11.3145-11.3135  c-0.75-0.75-1.1719-1.7676-1.1719-2.8281s0.4219-2.0781,1.1719-2.8281l11.3145-11.3135c1.5625-1.5625,4.0938-1.5625,5.6562,0  l11.3135,11.3135c1.5625,1.5615,1.5625,4.0947,0,5.6562l-11.3135,11.3135C205.6143,38.0586,204.5898,38.4492,203.5664,38.4492z   M197.9092,23.1357l5.6572,5.6572l5.6562-5.6572l-5.6562-5.6572L197.9092,23.1357z"/>
</svg>
