<?xml version="1.0" encoding="utf-8"?>
<!-- Uploaded to: SVG Repo, www.svgrepo.com, Generator: SVG Repo Mixer Tools -->
<svg version="1.1" id="Uploaded to svgrepo.com" xmlns="http://www.w3.org/2000/svg" xmlns:xlink="http://www.w3.org/1999/xlink" 
	 width="800px" height="800px" viewBox="0 0 32 32" xml:space="preserve">
<style type="text/css">
	.pictogram_een{fill:#F4D6B0;}
	.pictogram_twee{fill:#F8AD89;}
	.pictogram_zes{fill:#0C6667;}
	.pictogram_vijf{fill:#01A59C;}
	.st0{fill:#E54D2E;}
	.st1{fill:#F8AD89;}
	.st2{fill:#F27261;}
	.st3{fill:none;}
	.st4{fill:#01A59C;}
	.st5{fill:#008A74;}
</style>
<g>
	<path class="pictogram_twee" d="M4,16c0,6.627,5.373,12,12,12V4C9.373,4,4,9.373,4,16z"/>
	<path class="pictogram_een" d="M28,16c0-6.627-5.373-12-12-12v24C22.627,28,28,22.627,28,16z"/>
	<path class="pictogram_vijf" d="M16,0v4c6.627,0,12,5.373,12,12c0,6.627-5.373,12-12,12v4c8.837,0,16-7.163,16-16S24.837,0,16,0z"
		/>
	<path class="pictogram_vijf" d="M16,0v4c6.627,0,12,5.373,12,12c0,6.627-5.373,12-12,12v4c8.837,0,16-7.163,16-16S24.837,0,16,0z"
		/>
	<path class="pictogram_zes" d="M16,28v4C7.163,32,0,24.837,0,16S7.163,0,16,0v4C9.373,4,4,9.373,4,16C4,22.627,9.373,28,16,28z
		 M23.5,15.5c0-0.828-0.672-1.5-1.5-1.5H10c-0.828,0-1.5,0.672-1.5,1.5S9.172,17,10,17h12C22.828,17,23.5,16.328,23.5,15.5z M16,8
		c-0.828,0-1.5,0.672-1.5,1.5S15.172,11,16,11c0.828,0,1.5-0.672,1.5-1.5S16.828,8,16,8z M16,20c-0.828,0-1.5,0.672-1.5,1.5
		S15.172,23,16,23c0.828,0,1.5-0.672,1.5-1.5S16.828,20,16,20z"/>
</g>
</svg>