<?xml version="1.0" encoding="utf-8"?>
<!-- Uploaded to: SVG Repo, www.svgrepo.com, Generator: SVG Repo Mixer Tools -->
<svg width="800px" height="800px" viewBox="0 0 1024 1024" class="icon"  version="1.1" xmlns="http://www.w3.org/2000/svg"><path d="M943.393604 141.784568H608.804262c-8.609852 0-15.590702 6.905083-15.590702 15.422785l-41.408994 81.110147H103.541427c-21.977698 0-39.798423 17.62721-39.798422 39.368391v568.140656c0 21.745277 17.8197 39.366343 39.798422 39.366343h815.64548c21.977698 0 39.796375-17.621066 39.796375-39.366343V157.206329c0.001024-8.516678-6.979826-15.421761-15.589678-15.421761z" fill="#BED3F4" /><path d="M932.423697 168.344153V845.8245c0 7.061737-5.938535 12.806758-13.235766 12.806757H103.541427c-7.299278 0-13.237813-5.745021-13.237813-12.806757V277.684867c0-7.062761 5.938535-12.808805 13.237813-12.808805H551.80559a26.560609 26.560609 0 0 0 23.655846-14.482858l41.407971-81.110148c0.158702-0.310237 0.310237-0.623546 0.456652-0.938903h315.097638m10.969907-26.559585H608.804262c-8.609852 0-15.590702 6.905083-15.590702 15.422785l-41.408994 81.110147H103.541427c-21.977698 0-39.798423 17.62721-39.798422 39.368391v568.140656c0 21.745277 17.8197 39.366343 39.798422 39.366343h815.64548c21.977698 0 39.796375-17.621066 39.796375-39.366343V157.206329c0-8.516678-6.979826-15.421761-15.589678-15.421761z" fill="#4E6DC4" /><path d="M448.906139 344.798503h385.42832c17.405027 0 31.516214 13.959653 31.516214 31.177308v275.024813c0 17.221751-14.111188 31.176284-31.516214 31.176284H188.393876c-17.405027 0-31.517238-13.954533-31.517238-31.176284V375.975811c0-17.217656 14.112211-31.177308 31.517238-31.177308h260.512263z" fill="#FFFFFF" /><path d="M834.334459 371.359112c2.73275 0 4.956629 2.07132 4.956628 4.616699v275.025837c0 2.545379-2.223879 4.615675-4.956628 4.615675H188.393876c-2.733774 0-4.957653-2.07132-4.957653-4.615675v-275.025837c0-2.545379 2.223879-4.616699 4.957653-4.616699h645.940583m0-26.560609H188.393876c-17.405027 0-31.517238 13.959653-31.517238 31.177308v275.025837c0 17.220727 14.112211 31.176284 31.517238 31.176284h645.940583c17.405027 0 31.516214-13.955557 31.516214-31.176284v-275.025837c0-17.217656-14.111188-31.177308-31.516214-31.177308z" fill="#4E6DC4" /><path d="M432.496328 454.263107H919.187931c21.977698 0 39.796375 17.62721 39.796375 39.36839v347.282449c0 21.7463-17.818676 39.366343-39.796375 39.366343H103.540403c-21.977698 0-39.798423-17.621066-39.798422-39.366343V493.631497c0-21.741181 17.8197-39.368391 39.798422-39.36839h328.955925z" fill="#DCE5F7" /><path d="M919.186907 480.822692c7.299278 0 13.236789 5.746044 13.23679 12.808805v347.282449c0 7.061737-5.938535 12.806758-13.23679 12.806757H103.541427c-7.299278 0-13.237813-5.745021-13.237813-12.806757V493.630473c0-7.062761 5.938535-12.808805 13.237813-12.808805h815.64548m0-26.559585H103.541427c-21.977698 0-39.798423 17.628234-39.798422 39.36839v347.282449c0 21.7463 17.8197 39.366343 39.798422 39.366343h815.64548c21.977698 0 39.797399-17.620043 39.797399-39.366343V493.630473c0-21.740157-17.818676-39.368391-39.797399-39.36839z" fill="#4E6DC4" /><path d="M780.670581 588.755563c0 13.150783-10.998576 23.811477-24.566081 23.811477H266.62281c-13.567504 0-24.566081-10.660694-24.56608-23.811477s10.998576-23.811477 24.56608-23.811477h489.48169c13.567504 0 24.566081 10.660694 24.566081 23.811477zM780.670581 705.988385c0 13.150783-10.998576 23.811477-24.566081 23.811477H266.62281c-13.567504 0-24.566081-10.660694-24.56608-23.811477s10.998576-23.811477 24.56608-23.811477h489.48169c13.567504 0 24.566081 10.660694 24.566081 23.811477z" fill="#4E6DC4" /></svg>