<?xml version="1.0" encoding="iso-8859-1"?>
<!-- Uploaded to: SVG Repo, www.svgrepo.com, Generator: SVG Repo Mixer Tools -->
<svg height="800px" width="800px" version="1.1" id="Layer_1" xmlns="http://www.w3.org/2000/svg" xmlns:xlink="http://www.w3.org/1999/xlink" 
	 viewBox="0 0 473.931 473.931" xml:space="preserve">
<circle style="fill:#EFC849;" cx="236.966" cy="236.966" r="236.966"/>
<path style="fill:#F5F5F5;" d="M144.395,93.791c-8.823,0-15.981,7.158-15.981,15.985v255.753c0,8.827,7.158,15.985,15.981,15.985
	H328.22c8.827,0,15.981-7.158,15.981-15.985V167.814l-77.047-74.023H144.395z"/>
<path style="fill:#E1E1E1;" d="M344.205,167.814h-61.066c-8.827,0-15.981-7.158-15.981-15.985V93.791L344.205,167.814z"/>
<g>
	<path style="fill:#C9C9C8;" d="M321.717,189.64c0,2.754-2.234,4.988-4.992,4.988H157.079c-2.754,0-4.988-2.234-4.988-4.988l0,0
		c0-2.754,2.234-4.988,4.988-4.988h159.646C319.483,184.652,321.717,186.886,321.717,189.64L321.717,189.64z"/>
	<path style="fill:#C9C9C8;" d="M321.717,215.832c0,2.754-2.234,4.988-4.992,4.988H157.079c-2.754,0-4.988-2.234-4.988-4.988l0,0
		c0-2.754,2.234-4.988,4.988-4.988h159.646C319.483,210.844,321.717,213.078,321.717,215.832L321.717,215.832z"/>
	<path style="fill:#C9C9C8;" d="M321.717,240.779c0,2.754-2.234,4.988-4.992,4.988H157.079c-2.754,0-4.988-2.234-4.988-4.988l0,0
		c0-2.754,2.234-4.988,4.988-4.988h159.646C319.483,235.787,321.717,238.025,321.717,240.779L321.717,240.779z"/>
	<path style="fill:#C9C9C8;" d="M321.717,266.971c0,2.754-2.234,4.988-4.992,4.988H157.079c-2.754,0-4.988-2.234-4.988-4.988l0,0
		c0-2.754,2.234-4.988,4.988-4.988h159.646C319.483,261.979,321.717,264.217,321.717,266.971L321.717,266.971z"/>
	<path style="fill:#C9C9C8;" d="M240.648,288.172h-83.568c-2.754,0-4.988,2.234-4.988,4.988s2.234,4.988,4.988,4.988h83.568
		c2.758,0,4.992-2.234,4.992-4.988S243.405,288.172,240.648,288.172z"/>
</g>
<circle style="fill:#0EA24A;" cx="328.227" cy="358.012" r="57.062"/>
<g>
	<path style="fill:#FFFFFF;" d="M366.547,357.847c0,4.969-4.026,8.995-8.999,8.995h-58.559c-4.965,0-8.995-4.026-8.995-8.995l0,0
		c0-4.969,4.03-8.995,8.995-8.995h58.559C362.52,348.848,366.547,352.874,366.547,357.847L366.547,357.847z"/>
	<path style="fill:#FFFFFF;" d="M328.268,396.121c-4.969,0-8.995-4.026-8.995-8.999v-58.559c0-4.965,4.026-8.995,8.995-8.995l0,0
		c4.969,0,8.995,4.03,8.995,8.995v58.559C337.267,392.095,333.237,396.121,328.268,396.121L328.268,396.121z"/>
</g>
</svg>