<?xml version="1.0" encoding="iso-8859-1"?>
<!-- Uploaded to: SVG Repo, www.svgrepo.com, Generator: SVG Repo Mixer Tools -->
<svg height="800px" width="800px" version="1.1" id="Layer_1" xmlns="http://www.w3.org/2000/svg" xmlns:xlink="http://www.w3.org/1999/xlink" 
	 viewBox="0 0 512.001 512.001" xml:space="preserve">
<path style="fill:#FFDFB3;" d="M389.565,512.001c-2.554,0-5.12-0.587-7.467-1.761l-59.315-29.658l-59.315,29.658
	c-4.696,2.347-10.239,2.347-14.935,0l-59.315-29.658l-59.315,29.658c-4.696,2.347-10.239,2.347-14.935,0l-66.782-33.391
	c-5.652-2.832-9.228-8.609-9.228-14.935V16.697c0-5.788,3-11.157,7.913-14.201c4.935-3.043,11.076-3.316,16.25-0.733l59.315,29.657
	L181.75,1.761c4.696-2.347,10.239-2.347,14.935,0L256,31.42l59.315-29.658c4.696-2.347,10.239-2.347,14.935,0l59.315,29.658
	L448.88,1.761c5.173-2.587,11.315-2.31,16.25,0.733c4.913,3.044,7.913,8.413,7.913,14.202v445.216
	c0,6.327-3.576,12.103-9.228,14.935l-66.782,33.391C394.685,511.413,392.12,512.001,389.565,512.001z"/>
<path style="fill:#FFCC99;" d="M263.468,510.24l59.315-29.658l59.315,29.658c2.347,1.174,4.913,1.761,7.467,1.761
	s5.12-0.587,7.467-1.761l66.782-33.391c5.652-2.832,9.228-8.608,9.228-14.935V16.697c0-5.788-3-11.157-7.913-14.201
	c-4.935-3.043-11.076-3.32-16.25-0.733L389.565,31.42L330.25,1.763c-4.696-2.347-10.239-2.347-14.935,0L256,31.42v480.58
	C258.56,512.001,261.12,511.413,263.468,510.24z"/>
<g>
	<path style="fill:#A6673A;" d="M122.435,411.827H89.044c-9.217,0-16.696-7.473-16.696-16.696c0-9.223,7.479-16.696,16.696-16.696
		h33.391c9.217,0,16.696,7.473,16.696,16.696C139.131,404.354,131.654,411.827,122.435,411.827z"/>
	<path style="fill:#A6673A;" d="M222.609,411.827h-33.391c-9.217,0-16.696-7.473-16.696-16.696c0-9.223,7.479-16.696,16.696-16.696
		h33.391c9.217,0,16.696,7.473,16.696,16.696C239.305,404.354,231.827,411.827,222.609,411.827z"/>
</g>
<g>
	<path style="fill:#99522E;" d="M322.783,411.827h-33.391c-9.217,0-16.696-7.473-16.696-16.696c0-9.223,7.479-16.696,16.696-16.696
		h33.391c9.217,0,16.696,7.473,16.696,16.696C339.478,404.354,332.001,411.827,322.783,411.827z"/>
	<path style="fill:#99522E;" d="M422.956,411.827h-33.391c-9.217,0-16.696-7.473-16.696-16.696c0-9.223,7.479-16.696,16.696-16.696
		h33.391c9.217,0,16.696,7.473,16.696,16.696C439.652,404.354,432.175,411.827,422.956,411.827z"/>
</g>
<g>
	<path style="fill:#A6673A;" d="M211.479,133.567h-89.043c-9.217,0-16.696-7.473-16.696-16.696s7.479-16.696,16.696-16.696h89.043
		c9.217,0,16.696,7.473,16.696,16.696S220.697,133.567,211.479,133.567z"/>
	<path style="fill:#A6673A;" d="M211.479,200.349h-89.043c-9.217,0-16.696-7.473-16.696-16.696s7.479-16.696,16.696-16.696h89.043
		c9.217,0,16.696,7.473,16.696,16.696S220.697,200.349,211.479,200.349z"/>
	<path style="fill:#A6673A;" d="M211.479,267.132h-89.043c-9.217,0-16.696-7.473-16.696-16.696s7.479-16.696,16.696-16.696h89.043
		c9.217,0,16.696,7.473,16.696,16.696S220.697,267.132,211.479,267.132z"/>
	<path style="fill:#A6673A;" d="M211.479,333.914h-89.043c-9.217,0-16.696-7.473-16.696-16.696c0-9.223,7.479-16.696,16.696-16.696
		h89.043c9.217,0,16.696,7.473,16.696,16.696C228.174,326.441,220.697,333.914,211.479,333.914z"/>
</g>
<path style="fill:#99522E;" d="M352.848,191.159c-17.521-9.262-35.631-18.837-35.631-29.766c0-15.342,12.478-27.826,27.826-27.826
	s27.826,12.484,27.826,27.826c0,9.223,7.479,16.696,16.696,16.696s16.696-7.473,16.696-16.696c0-27.961-18.869-51.55-44.522-58.843
	V94.61c0-9.223-7.479-16.696-16.696-16.696s-16.696,7.473-16.696,16.696v7.939c-25.652,7.293-44.522,30.882-44.522,58.843
	c0,31.049,29.619,46.707,53.413,59.288c17.523,9.255,35.631,18.83,35.631,29.755c0,15.342-12.478,27.826-27.826,27.826
	s-27.826-12.484-27.826-27.826c0-9.223-7.479-16.696-16.696-16.696s-16.696,7.473-16.696,16.696
	c0,27.961,18.869,51.551,44.522,58.843v7.939c0,9.223,7.479,16.696,16.696,16.696s16.696-7.473,16.696-16.696v-7.939
	c25.652-7.293,44.522-30.882,44.522-58.843C406.261,219.392,376.642,203.735,352.848,191.159z"/>
</svg>