<?xml version="1.0" encoding="iso-8859-1"?>
<!-- Uploaded to: SVG Repo, www.svgrepo.com, Generator: SVG Repo Mixer Tools -->
<svg version="1.1" id="Layer_1" xmlns="http://www.w3.org/2000/svg" xmlns:xlink="http://www.w3.org/1999/xlink"
	 viewBox="0 0 512 512" xml:space="preserve">
<circle style="fill:#273B7A;" cx="256" cy="256" r="256"/>
<path style="fill:#121149;" d="M275.52,511.264c125.818-9.487,226.251-109.916,235.744-235.73L409.741,174.011l-124.578,69.06
	l-182.369,95.468L275.52,511.264z"/>
<path style="fill:#FFFFFF;" d="M402.172,341.333H109.827c-5.673,0-10.271-4.599-10.271-10.271V180.939
	c0-5.673,4.599-10.273,10.271-10.273h292.345c5.673,0,10.271,4.599,10.271,10.273v150.123
	C412.444,336.734,407.845,341.333,402.172,341.333z"/>
<path style="fill:#D0D1D3;" d="M402.172,170.667H256v170.667h146.172c5.673,0,10.271-4.599,10.271-10.271V180.939
	C412.444,175.266,407.845,170.667,402.172,170.667z"/>
<path style="fill:#808183;" d="M385.072,327.685H126.926c-4.882,0-8.84-3.958-8.84-8.84V193.153c0-4.882,3.958-8.84,8.84-8.84
	h258.146c4.882,0,8.84,3.958,8.84,8.84v125.692C393.912,323.727,389.954,327.685,385.072,327.685z"/>
<path style="fill:#59595B;" d="M385.072,184.315H256v143.37h129.072c4.882,0,8.84-3.958,8.84-8.84V193.153
	C393.912,188.273,389.954,184.315,385.072,184.315z"/>
<rect x="144.377" y="207.731" style="fill:#FFC61B;" width="24.135" height="96.539"/>
<g>
	<rect x="290.909" y="216.557" style="fill:#FFAD9E;" width="15.515" height="15.515"/>
	<rect x="322.577" y="216.557" style="fill:#FFAD9E;" width="15.515" height="15.515"/>
	<rect x="354.263" y="216.557" style="fill:#FFAD9E;" width="15.515" height="15.515"/>
	<rect x="290.909" y="248.242" style="fill:#FFAD9E;" width="15.515" height="15.515"/>
	<rect x="322.577" y="248.242" style="fill:#FFAD9E;" width="15.515" height="15.515"/>
	<rect x="354.263" y="248.242" style="fill:#FFAD9E;" width="15.515" height="15.515"/>
	<rect x="290.909" y="279.911" style="fill:#FFAD9E;" width="15.515" height="15.515"/>
	<rect x="322.577" y="279.911" style="fill:#FFAD9E;" width="15.515" height="15.515"/>
	<rect x="354.263" y="279.911" style="fill:#FFAD9E;" width="15.515" height="15.515"/>
</g>
</svg>
