<?xml version="1.0" encoding="iso-8859-1"?>
<!-- Uploaded to: SVG Repo, www.svgrepo.com, Generator: SVG Repo Mixer Tools -->
<svg height="800px" width="800px" version="1.1" id="Layer_1" xmlns="http://www.w3.org/2000/svg" xmlns:xlink="http://www.w3.org/1999/xlink" 
	 viewBox="0 0 512 512" xml:space="preserve">
<g>
	<polygon style="fill:#E64C3C;" points="247.172,450.207 176.551,450.207 211.8,388.414 	"/>
	<polygon style="fill:#C03A2B;" points="158.896,512 176.551,450.207 247.172,450.207 264.827,512 	"/>
	<path style="fill:#13A085;" d="M512,141.241C512,63.232,448.759,0,370.758,0S229.517,63.232,229.517,141.241
		s63.241,141.241,141.241,141.241S512,219.251,512,141.241"/>
	<path style="fill:#4482C3;" d="M17.797,422.664C6.859,428.42,0,439.807,0,452.175v59.825h158.897l17.655-61.793l-45.497-68.996
		C95.956,385.491,57.901,401.557,17.797,422.664"/>
	<path style="fill:#C03A2B;" d="M134.46,338.819l-10.302,31.938l52.392,79.448l35.31-61.793
		C181.273,388.412,153.793,367.844,134.46,338.819"/>
	<path style="fill:#4482C3;" d="M405.926,422.664c10.937,5.756,17.796,17.143,17.796,29.511v59.825H264.826l-17.655-61.793
		l45.497-68.996C327.767,385.491,365.823,401.557,405.926,422.664"/>
	<path style="fill:#C03A2B;" d="M289.263,338.819l10.302,31.938l-52.392,79.448l-35.31-61.793
		C242.45,388.412,269.93,367.844,289.263,338.819"/>
	<path style="fill:#FDD7AD;" d="M229.517,141.241c0-17.346,3.275-33.88,8.995-49.231c-8.527-2.357-17.426-3.734-26.65-3.734
		c-58.5,0-105.931,50.388-105.931,112.552v46.345c0,66.304,47.431,141.241,105.931,141.241c51.456,0,94.305-57.962,103.901-117.045
		C265.074,249.927,229.517,199.733,229.517,141.241"/>
	<g>
		<path style="fill:#FFFFFF;" d="M370.758,256c-4.873,0-8.828-3.946-8.828-8.828V35.31c0-4.882,3.955-8.828,8.828-8.828
			s8.828,3.946,8.828,8.828v211.862C379.586,252.054,375.631,256,370.758,256"/>
		<path style="fill:#FFFFFF;" d="M370.758,238.345c-21.804,0-40.413-7.645-51.041-20.983c-3.037-3.814-2.419-9.366,1.395-12.403
			c3.814-3.037,9.375-2.419,12.403,1.404c7.159,8.978,21.08,14.327,37.244,14.327c21.23,0,44.138-13.497,44.138-35.31
			c0-21.124-22.819-35.31-44.138-35.31c-29.723,0-61.793-20.25-61.793-52.966s32.071-52.966,61.793-52.966
			c22.131,0,40.254,7.45,51.041,20.983c3.037,3.814,2.419,9.366-1.395,12.403c-3.814,3.028-9.375,2.419-12.403-1.404
			c-7.371-9.242-20.595-14.327-37.244-14.327c-21.319,0-44.138,14.186-44.138,35.31c0,21.813,22.908,35.31,44.138,35.31
			c29.722,0,61.793,20.25,61.793,52.966S400.481,238.345,370.758,238.345"/>
		<path style="fill:#FFFFFF;" d="M414.896,105.931c-4.873,0-8.828-3.946-8.828-8.828V44.138c0-4.882,3.955-8.828,8.828-8.828
			c4.873,0,8.828,3.946,8.828,8.828v52.966C423.724,101.985,419.769,105.931,414.896,105.931"/>
		<path style="fill:#FFFFFF;" d="M326.62,247.172c-4.873,0-8.828-3.946-8.828-8.828v-52.966c0-4.882,3.955-8.828,8.828-8.828
			c4.873,0,8.828,3.946,8.828,8.828v52.966C335.448,243.226,331.493,247.172,326.62,247.172"/>
	</g>
</g>
</svg>