<?xml version="1.0" encoding="iso-8859-1"?>
<!-- Uploaded to: SVG Repo, www.svgrepo.com, Generator: SVG Repo Mixer Tools -->
<svg version="1.1" id="Layer_1" xmlns="http://www.w3.org/2000/svg" xmlns:xlink="http://www.w3.org/1999/xlink" 
	 viewBox="0 0 512.002 512.002" xml:space="preserve">
<circle style="fill:#B5F1F4;" cx="256.001" cy="256" r="256"/>
<path style="fill:#84DBFF;" d="M512.001,256c0-0.147-0.005-0.291-0.005-0.438l-85.328-85.326L286.39,258.231
	c-52.838,29.417-201.056,111.9-201.056,111.547l140.438,140.438c9.916,1.167,19.999,1.786,30.229,1.786
	C397.385,512,512.001,397.384,512.001,256z"/>
<rect x="85.334" y="170.236" style="fill:#FD8469;" width="170.667" height="199.111"/>
<rect x="256.001" y="170.236" style="fill:#FC6F58;" width="170.667" height="199.111"/>
<polygon style="fill:#324A5E;" points="426.668,170.236 256.001,269.791 85.334,170.236 "/>
<polygon style="fill:#2B3B4E;" points="256.003,170.236 256.003,269.791 426.668,170.236 "/>
<polygon style="fill:#FC6F58;" points="85.334,369.778 256.001,270.222 426.668,369.778 "/>
<polygon style="fill:#F1543F;" points="256.003,270.222 256.003,369.778 426.668,369.778 "/>
</svg>