<?xml version="1.0" encoding="iso-8859-1"?>
<!-- Uploaded to: SVG Repo, www.svgrepo.com, Generator: SVG Repo Mixer Tools -->
<svg height="800px" width="800px" version="1.1" id="Layer_1" xmlns="http://www.w3.org/2000/svg" xmlns:xlink="http://www.w3.org/1999/xlink" 
	 viewBox="0 0 508 508" xml:space="preserve">
<path style="fill:#FFC10D;" d="M253.9,241.1c58.7,0,106.4-47.7,106.4-106.4S312.6,28.2,253.9,28.2S147.5,75.9,147.5,134.6
	S195.2,241.1,253.9,241.1z"/>
<path style="fill:#194F82;" d="M253.9,86.4c9.4,0,17.1,7.7,17.1,17.1c0,7.8,6.3,14.1,14.1,14.1c7.8,0,14.1-6.3,14.1-14.1
	c0-20.1-13.1-37.1-31.2-43.1v-7.1c0-7.8-6.3-14.1-14.1-14.1s-14.1,6.3-14.1,14.1v7.1c-18.1,6-31.2,23-31.2,43.1
	c0,25,18.7,45.3,43.7,45.3c-0.3,0,0,0,0.1,0c8.6,0.9,18.7,8.1,18.7,16.9c0,9.4-7.7,17.1-17.1,17.1c-9.4,0-17.1-7.7-17.1-17.1
	c0-7.8-6.3-14.1-14.1-14.1s-14.1,6.3-14.1,14.1c0,20.1,13.1,37.1,31.2,43.1v7.1c0,7.8,6.3,14.1,14.1,14.1c7.8,0,14.1-6.3,14.1-14.1
	v-7.1c18.1-5.9,31.2-23,31.2-43.1c0-25-22-45.3-47-45.3c-0.6,0,0.5,0,0,0.1c-8.7-0.8-15.4-8.2-15.4-17
	C236.8,94.1,244.5,86.4,253.9,86.4z"/>
<g>
	<path style="fill:#56ACE0;" d="M272.7,406.4l72.9-72.9c5.5-5.5,14.4-5.5,20,0c5.5,5.5,5.5,14.4,0,20l-73,73
		c68.7-16.5,121-75.3,127.3-147.3C348,285.6,289.2,337.9,272.7,406.4z"/>
	<path style="fill:#56ACE0;" d="M162.4,333.7l72.7,72.7c-16.5-68.5-75.3-120.8-147.2-127.2c6.3,71.9,58.6,130.7,127.2,147.2
		l-72.7-72.7c-5.5-5.5-5.5-14.4,0-20C147.9,328.2,156.8,328.2,162.4,333.7z"/>
</g>
<path style="fill:#194F82;" d="M434.7,250.4c-82.4,0-136.7,44.2-166.6,93.3v-75.1c67.6-7.1,120.5-64.4,120.5-133.9
	C388.5,60.4,328.1,0,253.9,0S119.3,60.4,119.3,134.7c0,69.5,52.9,126.8,120.5,133.9v75.1c-30-49.1-84.3-93.3-166.6-93.3
	c-7.8,0-14.1,6.3-14.1,14.1c0,102.7,79.9,187,180.8,194.3v35.1c0,7.8,6.3,14.1,14.1,14.1c7.8,0,14.1-6.3,14.1-14.1v-35.1
	c100.9-7.3,180.8-91.6,180.8-194.3C448.8,256.7,442.4,250.4,434.7,250.4z M292.7,426.4l73-73c5.5-5.5,5.5-14.4,0-20
	c-5.5-5.5-14.4-5.5-20,0l-72.9,72.9C289.2,337.7,348,285.4,420,279.1C413.6,351.2,361.3,410,292.7,426.4z M253.9,28.2
	c58.7,0,106.4,47.7,106.4,106.4s-47.7,106.5-106.4,106.5s-106.4-47.7-106.4-106.4S195.2,28.2,253.9,28.2z M142.4,353.7l72.7,72.7
	C146.5,410,94.2,351.2,87.9,279.2c71.9,6.3,130.7,58.6,147.2,127.2l-72.7-72.7c-5.5-5.5-14.4-5.5-20,0
	C136.9,339.2,136.9,348.2,142.4,353.7z"/>
</svg>