<?xml version="1.0" encoding="iso-8859-1"?>
<!-- Uploaded to: SVG Repo, www.svgrepo.com, Generator: SVG Repo Mixer Tools -->
<svg height="800px" width="800px" version="1.1" id="Layer_1" xmlns="http://www.w3.org/2000/svg" xmlns:xlink="http://www.w3.org/1999/xlink"
	 viewBox="0 0 392.533 392.533" xml:space="preserve">
<path style="fill:#FFFFFF;" d="M266.667,329.568V32.711c0-6.012-4.848-10.925-10.925-10.925H32.711
	c-6.012,0-10.925,4.848-10.925,10.925v296.857c0,22.691,18.489,41.18,41.18,41.18h219.087
	C272.485,359.693,266.667,345.341,266.667,329.568z"/>
<path style="fill:#194F82;" d="M81.519,224.84c8.857,0,16.097,7.176,16.097,16.097c0,6.012,4.848,10.925,10.925,10.925
	c6.077,0,10.925-4.848,10.925-10.925c0-17.067-11.378-31.547-26.958-36.267v-7.111c0-6.012-4.848-10.925-10.925-10.925
	c-6.077,0-10.925,4.848-10.925,10.925v7.111c-15.58,4.719-26.958,19.135-26.958,36.267c0,20.881,17.002,37.883,37.883,37.883
	c-0.323,0.065,0,0,0.065,0c8.21,0.776,15.968,7.564,15.968,15.903c0,8.857-7.176,16.097-16.097,16.097s-16.097-7.176-16.097-16.097
	c0-6.012-4.848-10.925-10.925-10.925s-10.925,4.849-10.925,10.925c0,17.067,11.378,31.547,26.958,36.267v7.046
	c0,6.012,4.848,10.925,10.925,10.925c6.012,0,10.925-4.848,10.925-10.925v-7.046c15.58-4.719,26.958-19.135,26.958-36.267
	c0-20.881-18.36-37.818-39.305-37.818c0.323-0.065,0,0-0.065,0c-8.21-0.776-14.545-7.628-14.545-15.968
	C65.422,232.016,72.663,224.84,81.519,224.84z"/>
<path style="fill:#FFC10D;" d="M359.822,164.525h-71.37v165.107c0,22.691,18.489,41.18,41.18,41.18l1.875-0.065
	c0.065,0,0.065,0,0.129,0c21.786-1.099,39.176-19.006,39.176-41.051V175.386C370.747,169.374,365.834,164.525,359.822,164.525z"/>
<path style="fill:#56ACE0;" d="M212.105,65.422H76.347c-6.012,0-10.925,4.848-10.925,10.925v55.467
	c0,6.012,4.848,10.925,10.925,10.925h135.758c6.012,0,10.925-4.848,10.925-10.925V76.347
	C223.03,70.335,218.117,65.422,212.105,65.422z"/>
<g>
	<path style="fill:#194F82;" d="M212.105,43.572H76.347c-18.036,0-32.711,14.675-32.711,32.711v55.467
		c0,18.036,14.675,32.711,32.711,32.711h135.758c18.036,0,32.711-14.675,32.711-32.711V76.283
		C244.816,58.246,230.141,43.572,212.105,43.572z M223.03,131.749c0,6.012-4.848,10.925-10.925,10.925H76.347
		c-6.012,0-10.925-4.848-10.925-10.925V76.283c0-6.012,4.848-10.925,10.925-10.925h135.758c6.012,0,10.925,4.848,10.925,10.925
		V131.749z"/>
	<path style="fill:#194F82;" d="M233.891,228.396h-80.162c-6.012,0-10.925,4.848-10.925,10.925c0,6.012,4.848,10.925,10.925,10.925
		h80.162c6.012,0,10.925-4.848,10.925-10.925C244.816,233.309,239.903,228.396,233.891,228.396z"/>
	<path style="fill:#194F82;" d="M233.891,275.135h-80.162c-6.012,0-10.925,4.848-10.925,10.925c0,6.012,4.848,10.925,10.925,10.925
		h80.162c6.012,0,10.925-4.849,10.925-10.925C244.816,280.048,239.903,275.135,233.891,275.135z"/>
	<path style="fill:#194F82;" d="M359.822,142.61h-71.37V32.711C288.453,14.675,273.778,0,255.741,0H32.711
		C14.675,0,0,14.675,0,32.711v296.857c0,34.78,28.186,62.966,62.966,62.966h266.667h2.457c0.388,0,0.776-0.129,1.164-0.129
		c32.97-1.939,59.281-29.285,59.281-62.772V175.386C392.533,157.349,377.859,142.61,359.822,142.61z M62.966,370.747
		c-22.691,0-41.18-18.489-41.18-41.18V32.711c0-6.012,4.848-10.925,10.925-10.925h223.03c6.012,0,10.925,4.848,10.925,10.925
		v296.857c0,15.774,5.883,30.125,15.451,41.18H62.966z M370.747,329.568c0,22.044-17.39,40.016-39.176,41.051
		c-0.065,0-0.065,0-0.129,0l-1.875,0.065c-22.691,0-41.18-18.489-41.18-41.18V164.525h30.19v147.459
		c0,6.012,4.849,10.925,10.925,10.925s10.925-4.849,10.925-10.925V164.525h19.329c6.012,0,10.925,4.848,10.925,10.925v154.182h0.065
		V329.568z"/>
</g>
</svg>
