<?xml version="1.0" encoding="iso-8859-1"?>
<!-- Uploaded to: SVG Repo, www.svgrepo.com, Generator: SVG Repo Mixer Tools -->
<svg version="1.1" id="Layer_1" xmlns="http://www.w3.org/2000/svg" xmlns:xlink="http://www.w3.org/1999/xlink" 
	 viewBox="0 0 512 512" xml:space="preserve">
<polygon style="fill:#945F5A;" points="284.132,328.018 306.637,485.556 340.396,485.556 340.396,328.018 "/>
<g>
	<rect x="182.857" y="328.018" style="fill:#A77C77;" width="123.78" height="157.538"/>
	<path style="fill:#A77C77;" d="M376.404,101.275h-2.251L256,371.341c83.898,0,151.912-68.014,151.912-151.912v-50.637
		L376.404,101.275z"/>
</g>
<g>
	<path style="fill:#BA9894;" d="M374.154,219.429V101.275h-83.573l-152.735,33.758v84.396L256,371.341
		C321.255,371.341,374.154,303.327,374.154,219.429z"/>
	<path style="fill:#BA9894;" d="M239.121,0c-18.645,0-33.758,15.114-33.758,33.758l-22.505,101.275h112.527L272.879,33.758
		C272.879,15.114,257.766,0,239.121,0z"/>
</g>
<g>
	<path style="fill:#A77C77;" d="M306.637,33.758c-18.645,0-33.758,15.114-33.758,33.758v67.516
		c0,18.645,15.114,33.758,33.758,33.758c18.645,0,33.758-15.114,33.758-33.758V67.516C340.396,48.872,325.282,33.758,306.637,33.758
		z"/>
	<path style="fill:#A77C77;" d="M171.604,0c-18.645,0-33.758,15.114-33.758,33.758v101.275h67.516V33.758
		C205.363,15.114,190.249,0,171.604,0z"/>
</g>
<path style="fill:#BA9894;" d="M374.154,67.516l-22.505,67.516l22.505,67.516c18.645,0,33.758-15.114,33.758-33.758v-67.516
	C407.912,82.63,392.799,67.516,374.154,67.516z"/>
<g>
	<path style="fill:#CDB4B1;" d="M340.396,101.275v67.516c0,18.645,15.114,33.758,33.758,33.758V67.516
		C355.509,67.516,340.396,82.63,340.396,101.275z"/>
	<path style="fill:#CDB4B1;" d="M239.121,168.791c18.645,0,33.758-15.114,33.758-33.758s-15.114-33.758-33.758-33.758H137.846
		c-18.645,0-33.758,15.114-33.758,33.758v84.396c0,83.898,68.014,151.912,151.912,151.912v-67.516
		c0-46.61-37.786-84.396-84.396-84.396v-50.637H239.121z"/>
</g>
<path style="fill:#B175C8;" d="M340.958,459.112l-11.253,26.444L340.958,512c14.605,0,26.444-11.839,26.444-26.444
	S355.563,459.112,340.958,459.112z"/>
<g>
	<path style="fill:#C397DB;" d="M314.514,485.556c0,14.605,11.839,26.444,26.444,26.444v-52.888
		C326.353,459.112,314.514,470.951,314.514,485.556z"/>
	<path style="fill:#C397DB;" d="M182.295,459.112l-11.253,26.444L182.295,512c14.605,0,26.444-11.839,26.444-26.444
		S196.899,459.112,182.295,459.112z"/>
</g>
<path style="fill:#D6BAED;" d="M155.851,485.556c0,14.605,11.839,26.444,26.444,26.444v-52.888
	C167.69,459.112,155.851,470.951,155.851,485.556z"/>
<path style="fill:#C397DB;" d="M235.182,459.112l-11.253,26.444L235.182,512c14.605,0,26.444-11.839,26.444-26.444
	S249.787,459.112,235.182,459.112z"/>
<path style="fill:#D6BAED;" d="M208.738,485.556c0,14.605,11.839,26.444,26.444,26.444v-52.888
	C220.577,459.112,208.738,470.951,208.738,485.556z"/>
<path style="fill:#C397DB;" d="M288.07,459.112l-11.253,26.444L288.07,512c14.605,0,26.444-11.839,26.444-26.444
	S302.675,459.112,288.07,459.112z"/>
<path style="fill:#D6BAED;" d="M261.626,485.556c0,14.605,11.839,26.444,26.444,26.444v-52.888
	C273.465,459.112,261.626,470.951,261.626,485.556z"/>
<path style="fill:#A7B65F;" d="M343.209,416.914H317.89l-11.253,8.44l11.253,8.44h25.319c4.662,0,8.44-3.779,8.44-8.44
	C351.648,420.693,347.871,416.914,343.209,416.914z"/>
<path style="fill:#C4CE94;" d="M180.044,416.914c-4.662,0-8.44,3.779-8.44,8.44c0,4.661,3.778,8.44,8.44,8.44H317.89v-16.879
	H180.044z"/>
</svg>