<?xml version="1.0" encoding="iso-8859-1"?>
<!-- Uploaded to: SVG Repo, www.svgrepo.com, Generator: SVG Repo Mixer Tools -->
<svg version="1.1" id="Layer_1" xmlns="http://www.w3.org/2000/svg" xmlns:xlink="http://www.w3.org/1999/xlink" 
	 viewBox="0 0 512.001 512.001" xml:space="preserve">
<path style="fill:#EFF2FA;" d="M119.576,376.246h369.583c8.856,0,16.034-7.178,16.034-16.034V103.668
	c0-8.856-7.178-16.034-16.034-16.034H119.576c-8.856,0-16.034,7.178-16.034,16.034v256.545
	C103.542,369.068,110.721,376.246,119.576,376.246z"/>
<polyline style="fill:#FF6464;" points="271.945,336.134 271.825,271.998 223.723,272.088 223.843,336.224 "/>
<polyline style="fill:#C3E678;" points="352.116,335.984 351.754,143.575 303.652,143.665 304.013,336.074 "/>
<polyline style="fill:#9BE6D2;" points="432.286,335.832 432.014,191.526 383.912,191.617 384.184,335.923 "/>
<rect x="255.771" y="239.818" transform="matrix(0.0019 1 -1 0.0019 591.1703 -64.5559)" style="fill:#A5D76E;" width="144.307" height="48.102"/>
<rect x="223.762" y="272.042" transform="matrix(-1 0.0019 -0.0019 -1 496.1736 575.6812)" style="fill:#FF6464;" width="48.102" height="32.068"/>
<rect x="231.832" y="296.105" transform="matrix(-0.0019 -1 1 -0.0019 -71.8184 568.6303)" style="fill:#D2555A;" width="32.068" height="48.102"/>
<rect x="368.07" y="271.728" transform="matrix(0.0019 1 -1 0.0019 703.1558 -112.9348)" style="fill:#78D2BE;" width="80.165" height="48.102"/>
<g>
	<path style="fill:#E6AF78;" d="M146.437,367.411c-2.632-0.752-10.857-3.734-10.869-10.343l-0.061-19.389l-64.573,0.14l0.012,19.39
		c0.011,5.825-6.366,8.854-9.679,10.013l42.057,25.749L146.437,367.411z"/>
	<path style="fill:#E6AF78;" d="M135.567,357.07l-0.051-16.232c-8.48,16.486-25.648,27.771-45.465,27.771
		c-7.96,0-15.495-1.821-22.212-5.068c-2.09,1.872-4.778,3.054-6.573,3.683l42.057,25.749l43.113-25.559
		C143.805,366.66,135.58,363.678,135.567,357.07z"/>
</g>
<path style="fill:#D29B6E;" d="M135.517,340.836l-0.01-3.157l-64.573,0.14l0.012,19.39c0.005,2.67-1.337,4.746-3.106,6.33
	c6.717,3.246,14.251,5.068,22.212,5.068C109.867,368.607,127.037,357.323,135.517,340.836z"/>
<path style="fill:#785550;" d="M151.242,216.506c-24.431,3.537-56.501-19.435-80.38,0.15c-14.46,0.027-23.652,11.56-23.623,26.931
	c0.027,14.487,8.026,43.24,8.026,43.24l0.015,7.763c-0.027-14.101,8.259-37.834,8.259-37.834
	c41.452-0.078,75.582,11.771,87.811,16.62l-0.001-0.752l0.001,0.752c0.886,0.352,1.652,0.664,2.302,0.935
	C160.195,246.297,154.17,223.126,151.242,216.506z"/>
<path style="fill:#F0C087;" d="M55.279,294.591c0.056,30.015,21.216,58.011,48.057,57.961c26.841-0.051,48.112-26.606,48.056-56.621
	l-0.042-22.554c-12.229-4.85-46.36-16.699-87.811-16.62C63.538,256.757,55.252,280.49,55.279,294.591z"/>
<path style="fill:#E6AF78;" d="M72.606,301.544c-0.818-38.977,5.661-37.016,5.661-37.016c11.765-2.715,29.208-2.021,48.267,0.73
	c-16.394-4.397-38.407-8.548-62.998-8.502c0,0-8.285,23.733-8.259,37.834c0.052,27.854,18.284,53.956,42.361,57.53
	C87.211,343.883,73.098,325.007,72.606,301.544z"/>
<path style="fill:#B4E1FA;" d="M199.609,407.01c-0.025-13.451-8.531-27.794-23.169-31.865l-29.999-7.731
	c-0.001,0-0.003-0.001-0.004-0.001l-43.113,25.559l-42.057-25.749c-0.448,0.156-0.844,0.282-1.156,0.372l-29.97,7.844
	C15.518,379.565,7.067,393.94,7.092,407.39l0.016,8.658c0.009,5.065,4.706,9.162,10.49,9.151l171.569-0.342
	c5.784-0.011,10.465-4.126,10.456-9.191L199.609,407.01z"/>
<g>
	<path style="fill:#A0D2F0;" d="M42.14,424.726v-9.651c0-4.944-2.241-9.655-6.164-12.959l-20.578-17.164
		c-5.392,6.28-8.32,14.519-8.305,22.439l0.016,8.658c0.006,3.427,2.163,6.407,5.346,7.975c1.336,0.445,2.623,0.703,3.67,0.703H42.14
		V424.726z"/>
	<path style="fill:#A0D2F0;" d="M199.625,415.668l-0.016-8.658c-0.013-6.911-2.27-14.054-6.442-19.921l-18.505,15.029
		c-3.923,3.304-6.164,8.015-6.164,12.958v9.651h22.355C195.833,424.011,199.634,420.231,199.625,415.668z"/>
</g>
<path style="fill:#694B4B;" d="M151.242,216.506c-10.608,1.535-22.656-1.926-34.848-4.732c-15.888-3.657-32.021-6.2-45.533,4.882
	c-0.115,0-0.226,0.007-0.341,0.009c-1.674,1.728,1.492,6.633,1.492,6.633s-6.346,3.006-9.019,15.032
	c-1.462,6.58-1.069,13.634,0.988,18.428c18.817,0.003,36.104,2.455,50.504,5.582c17.168,3.727,30.236,8.408,36.862,11.036
	c0.886,0.352,1.652,0.664,2.302,0.935C160.195,246.297,154.17,223.126,151.242,216.506z"/>
<path d="M178.878,367.502c-0.046-0.013-0.092-0.025-0.138-0.037l-29.894-7.704c-2.875-0.839-5.114-2.411-5.338-3.117l-0.052-16.536
	c0.063-0.075,0.13-0.145,0.192-0.22c10.145-12.172,15.714-27.93,15.683-44.373l-0.023-12.175
	c10.145-33.193,2.925-61.923-0.769-70.276c-0.012-0.026-0.026-0.05-0.038-0.076c-0.068-0.149-0.143-0.293-0.22-0.437
	c-0.042-0.079-0.083-0.159-0.127-0.236c-0.076-0.13-0.159-0.256-0.243-0.381c-0.056-0.084-0.111-0.171-0.17-0.254
	c-0.076-0.104-0.158-0.203-0.241-0.305c-0.075-0.093-0.148-0.187-0.227-0.276c-0.075-0.084-0.155-0.162-0.233-0.243
	c-0.092-0.094-0.183-0.19-0.28-0.28c-0.081-0.074-0.166-0.142-0.251-0.213c-0.099-0.084-0.197-0.169-0.301-0.249
	c-0.099-0.075-0.203-0.143-0.307-0.213c-0.093-0.063-0.184-0.13-0.281-0.189c-0.127-0.079-0.26-0.148-0.391-0.219
	c-0.077-0.042-0.151-0.086-0.229-0.125c-0.153-0.076-0.312-0.142-0.47-0.208c-0.061-0.025-0.121-0.054-0.183-0.078
	c-0.166-0.063-0.336-0.117-0.507-0.168c-0.06-0.018-0.119-0.04-0.18-0.056c-0.159-0.044-0.322-0.078-0.485-0.111
	c-0.078-0.016-0.155-0.035-0.234-0.049c-0.137-0.024-0.278-0.038-0.417-0.054c-0.11-0.013-0.219-0.028-0.331-0.036
	c-0.11-0.008-0.222-0.008-0.334-0.011c-0.143-0.004-0.286-0.008-0.43-0.003c-0.089,0.003-0.179,0.011-0.27,0.018
	c-0.164,0.011-0.328,0.024-0.492,0.046c-0.027,0.003-0.053,0.003-0.079,0.007c-7.82,1.13-17.293-1.117-27.322-3.498
	c-17.586-4.176-37.428-8.878-54.69,3.696c-8.022,0.666-15.14,4.232-20.254,10.225c-5.29,6.201-8.194,14.763-8.176,24.112
	c0.026,13.923,6.573,38.87,8.028,44.242l0.012,6.761c0.032,17.239,6.049,33.155,15.655,44.985l0.013,17.647
	c-0.224,0.683-2.456,2.263-5.327,3.114l-29.865,7.817c-0.046,0.012-0.092,0.025-0.138,0.038C9.76,373.099-0.029,391.532,0,407.004
	l0.017,8.658c0.008,4.581,2.069,9.001,5.655,12.13c3.345,2.918,7.722,4.525,12.329,4.525c0.012,0,0.025,0,0.037,0l85.593-0.17
	c0.059,0.001,0.117,0.009,0.176,0.009c0.005,0,0.01,0,0.015,0c0.062,0,0.122-0.008,0.184-0.01l85.6-0.17
	c4.619-0.009,9.005-1.631,12.348-4.571c3.574-3.141,5.618-7.569,5.609-12.15l-0.016-8.659
	C207.52,391.123,197.662,372.727,178.878,367.502z M103.763,383.823l-28.588-17.08c2.259-2.688,3.718-5.992,3.711-9.94l-0.003-4.333
	c7.517,4.579,15.957,7.196,24.807,7.196c0.027,0,0.057,0,0.084,0c8.713-0.016,17.105-2.373,24.688-6.795l0.012,3.811
	c0.008,4.063,1.557,7.441,3.935,10.161L103.763,383.823z M59.759,228.845c2.864-3.357,6.747-5.065,11.542-5.074
	c0.057,0,0.112-0.008,0.169-0.009c0.188-0.005,0.376-0.011,0.564-0.03c0.097-0.01,0.191-0.027,0.288-0.041
	c0.147-0.021,0.296-0.039,0.443-0.068c0.111-0.022,0.218-0.052,0.327-0.079c0.129-0.032,0.259-0.061,0.386-0.1
	c0.115-0.035,0.226-0.078,0.339-0.118c0.118-0.042,0.237-0.082,0.353-0.13c0.118-0.049,0.232-0.107,0.348-0.162
	c0.105-0.05,0.211-0.097,0.316-0.152c0.129-0.069,0.253-0.147,0.377-0.223c0.085-0.052,0.171-0.1,0.255-0.155
	c0.157-0.105,0.307-0.219,0.455-0.336c0.044-0.035,0.091-0.063,0.135-0.099c11.97-9.818,27.402-6.154,43.742-2.275
	c8.732,2.073,17.699,4.203,26.374,4.203c0.093,0,0.185-0.004,0.279-0.004c2.177,7.801,4.395,21.981,2.039,38.89
	c-12.619-4.626-43.302-14.042-84.043-14.042c-0.165,0-0.331,0-0.496,0c-0.018,0-0.035,0.003-0.052,0.003
	c-0.177,0.002-0.354,0.014-0.529,0.028c-0.078,0.006-0.157,0.008-0.235,0.017c-0.146,0.016-0.291,0.042-0.436,0.067
	c-0.104,0.018-0.21,0.032-0.314,0.054c-0.102,0.022-0.201,0.052-0.302,0.078c-0.14,0.036-0.282,0.07-0.419,0.114
	c-0.059,0.019-0.117,0.044-0.176,0.065c-0.171,0.06-0.342,0.12-0.506,0.191c-0.044,0.019-0.085,0.042-0.128,0.062
	c-0.175,0.08-0.349,0.161-0.516,0.254c-0.074,0.041-0.144,0.089-0.217,0.132c-0.13,0.078-0.263,0.153-0.388,0.24
	c-0.135,0.092-0.265,0.194-0.394,0.296c-0.057,0.045-0.117,0.085-0.173,0.131c-0.156,0.129-0.305,0.269-0.451,0.411
	c-0.025,0.025-0.053,0.047-0.078,0.073c-0.132,0.133-0.256,0.275-0.379,0.418c-0.036,0.042-0.075,0.081-0.11,0.124
	c-0.095,0.116-0.182,0.241-0.271,0.364c-0.057,0.079-0.117,0.155-0.171,0.236c-0.062,0.093-0.116,0.191-0.174,0.289
	c-0.073,0.12-0.146,0.241-0.212,0.365c-0.038,0.073-0.072,0.15-0.108,0.225c-0.075,0.154-0.148,0.309-0.212,0.468
	c-0.007,0.017-0.016,0.033-0.023,0.051c-0.05,0.126-0.259,0.66-0.574,1.507c-0.73-4.517-1.211-8.712-1.217-11.93
	C55.168,237.408,56.795,232.32,59.759,228.845z M63.214,291.439c0-0.001,0-0.001,0-0.002c-0.015-8.16,3.459-20.131,5.989-27.519
	c36.966,0.723,64.788,9.64,75.062,13.452l0.009,4.795c0,0.029,0,0.058,0,0.087l0.025,13.292c0.05,26.568-18.521,49.049-40.554,49.09
	c-0.02,0-0.036,0-0.055,0c-21.514,0-40.421-23.563-40.472-50.458L63.214,291.439z M18.009,417.282c-0.002,0-0.005,0-0.008,0
	c-0.958,0-1.85-0.299-2.447-0.82c-0.151-0.132-0.504-0.478-0.504-0.83l-0.018-8.658c-0.018-9.789,5.991-21.399,17.511-24.686
	l27.357-7.16l36.339,21.711l0.038,20.288L18.009,417.282z M192.032,416.112c-0.597,0.525-1.491,0.828-2.454,0.83l-78.268,0.156
	l-0.038-20.251l36.74-21.777l26.902,6.933c11.532,3.244,17.584,14.831,17.602,24.62l0.016,8.659
	C192.533,415.633,192.182,415.98,192.032,416.112z"/>
<path d="M511.517,103.19c-0.012-6.272-2.477-12.177-6.943-16.625c-4.454-4.437-10.35-6.88-16.606-6.88c-0.015,0-0.03,0-0.045,0
	L119.14,80.378c-12.986,0.024-23.53,10.609-23.506,23.594l0.135,72.155c0.008,4.146,3.371,7.502,7.516,7.502c0.005,0,0.01,0,0.015,0
	c4.151-0.008,7.51-3.379,7.502-7.53l-0.135-72.155c-0.004-2.258,0.883-4.393,2.497-6.014c1.614-1.62,3.747-2.515,6.005-2.52
	l368.783-0.693c0.005,0,0.011,0,0.016,0c2.252,0,4.381,0.887,5.998,2.497c1.62,1.614,2.515,3.747,2.52,6.005l0.482,256.545
	c0.004,2.258-0.883,4.393-2.497,6.014c-1.614,1.62-3.747,2.515-6.005,2.52l-264.56,0.497c-4.151,0.008-7.51,3.379-7.502,7.53
	c0.008,4.146,3.371,7.502,7.516,7.502c0.005,0,0.01,0,0.015,0l264.56-0.497c6.272-0.012,12.177-2.477,16.625-6.943
	c4.448-4.465,6.892-10.379,6.881-16.651L511.517,103.19z"/>
<path d="M176.242,336.315c0.008,4.146,3.371,7.502,7.516,7.502c0.005,0,0.01,0,0.015,0l272.579-0.512
	c4.151-0.008,7.51-3.379,7.502-7.53c-0.008-4.146-3.371-7.502-7.516-7.502c-0.005,0-0.01,0-0.015,0l-16.535,0.031l-0.136-72.651
	c0-0.001,0-0.002,0-0.003c0-0.001,0-0.002,0-0.003l-0.12-64.133c-0.004-1.993-0.799-3.903-2.212-5.31
	c-1.409-1.404-3.316-2.192-5.304-2.192c-0.004,0-0.009,0-0.014,0l-48.102,0.09c-4.151,0.008-7.51,3.379-7.502,7.53l0.12,64.134
	c0,0.001,0,0.001,0,0.002c0,0,0,0.001,0,0.002l0.136,72.652l-17.036,0.032l-0.257-136.788c0-0.001,0-0.002,0-0.002v-0.002
	l-0.09-48.099c-0.008-4.146-3.371-7.502-7.516-7.502c-0.005,0-0.01,0-0.015,0l-48.102,0.09c-1.993,0.004-3.903,0.8-5.31,2.212
	c-1.407,1.412-2.195,3.325-2.192,5.318l0.348,184.893l-17.036,0.032l-0.046-24.552l0,0l0,0l-0.06-32.068
	c-0.008-4.146-3.371-7.502-7.516-7.502c-0.005,0-0.01,0-0.015,0l-48.102,0.09c-4.151,0.008-7.51,3.379-7.502,7.53l0.106,56.62
	l-32.569,0.061C179.593,328.792,176.234,332.163,176.242,336.315z M424.512,199.056l0.092,49.104l-33.07,0.062l-0.092-49.104
	L424.512,199.056z M391.563,263.254l33.07-0.062l0.122,65.138l-33.07,0.062L391.563,263.254z M344.252,151.105l0.062,33.07
	l-33.07,0.062l-0.062-33.07L344.252,151.105z M311.272,199.27l33.07-0.062l0.243,129.274l-33.07,0.062L311.272,199.27z
	 M264.323,279.528l0.032,17.036l-33.07,0.062l-0.032-17.036L264.323,279.528z M231.313,311.658l33.07-0.062l0.032,17.036
	l-33.07,0.062L231.313,311.658z"/>
</svg>