<?xml version="1.0" encoding="iso-8859-1"?>
<!-- Uploaded to: SVG Repo, www.svgrepo.com, Generator: SVG Repo Mixer Tools -->
<svg version="1.1" id="Layer_1" xmlns="http://www.w3.org/2000/svg" xmlns:xlink="http://www.w3.org/1999/xlink" 
	 viewBox="0 0 512.001 512.001" xml:space="preserve">
<path style="fill:#FFEA8D;" d="M471.602,194.148l-28.653,6.826l-9.257-38.855l28.653-6.826c6.056-1.442,12.135,2.297,13.577,8.353
	l4.032,16.926C481.397,186.627,477.658,192.705,471.602,194.148z"/>
<path style="fill:#C27526;" d="M505.662,321.897c-4.017-3.349-9.314-4.743-14.457-3.804l-88.719,16.196l-60.446-9.648
	c-7.793-1.251-15.481,2.853-18.789,10.029l-17.262,37.456l-68.177-17.199c-4.66-1.176-9.598-0.399-13.67,2.153l-47.43,29.708
	l-163.884,46.42c-8.467,2.398-13.869,10.671-12.658,19.388S8.831,467.8,17.631,467.8H494.37c9.737,0,17.629-7.894,17.629-17.629
	V335.437C512.001,330.207,509.678,325.248,505.662,321.897z"/>
<rect x="70.873" y="132.07" transform="matrix(-0.8944 -0.4473 0.4473 -0.8944 82.7491 390.7348)" style="fill:#57565C;" width="33.261" height="107.057"/>
<path style="fill:#79C6BF;" d="M387.605,160.49l-176.583,41.726l-22.342-94.552c-2.791-11.809,4.52-23.644,16.33-26.435
	l79.906-18.881c24.943-5.894,50.773,5.458,63.298,27.819L387.605,160.49z"/>
<path style="fill:#348A7A;" d="M203.588,143.404c-2.791-11.809,4.52-23.644,16.33-26.435l79.906-18.881
	c24.943-5.894,50.773,5.458,63.298,27.819l19.969,35.65l4.515-1.067l-39.391-70.323c-12.525-22.361-38.354-33.713-63.298-27.819
	l-79.906,18.881c-11.809,2.791-19.121,14.626-16.33,26.435l22.342,94.552l6.12-1.446L203.588,143.404z"/>
<g>
	<path style="fill:#7F1B12;" d="M198.662,222.224l-26.166-110.737c-2.371-10.035-0.693-20.392,4.726-29.163
		c5.418-8.773,13.929-14.91,23.963-17.28l79.906-18.881c31.999-7.558,65.565,7.192,81.631,35.876l50.168,89.565L198.662,222.224z
		 M298.027,77.45c-3.084,0-6.198,0.353-9.286,1.082l-79.906,18.881c-2.866,0.677-4.645,3.56-3.969,6.426l18.517,78.367
		l138.935-32.83l-28.614-51.083C326.406,85.262,312.547,77.45,298.027,77.45z"/>
	
		<rect x="195.273" y="114.03" transform="matrix(-0.23 -0.9732 0.9732 -0.23 186.2928 408.7174)" style="fill:#7F1B12;" width="119.13" height="33.26"/>
</g>
<path style="fill:#2D2E30;" d="M130.32,234.324c-7.536,0-14.362-5.157-16.17-12.81L86.755,105.578
	c-2.112-8.938,3.421-17.897,12.36-20.009c8.936-2.113,17.897,3.421,20.009,12.361l27.395,115.934
	c2.112,8.938-3.421,17.897-12.36,20.009C132.873,234.177,131.586,234.324,130.32,234.324z"/>
<path style="fill:#DE3205;" d="M484.926,255.482L32.175,362.465L3.738,242.12c-1.105-4.676,1.791-9.364,6.467-10.468l415.061-98.077
	c16.139-3.814,32.314,6.178,36.128,22.317L484.926,255.482z"/>
<path style="fill:#C6C5CA;" d="M487.15,205.122L15.649,316.537c-6.925,1.636-11.211,8.576-9.575,15.501l5.227,22.124
	c1.636,6.925,8.576,11.211,15.501,9.575l471.502-111.415c6.925-1.636,11.211-8.576,9.575-15.501l-5.227-22.124
	C501.014,207.772,494.075,203.485,487.15,205.122z"/>
<path style="fill:#9D2217;" d="M425.266,133.574l-193.198,45.652l30.495,128.799l222.363-52.543l-23.533-99.591
	C457.579,139.753,441.406,129.76,425.266,133.574z"/>
<circle style="fill:#57565C;" cx="128.088" cy="339.97" r="58.434"/>
<path style="fill:#2D2E30;" d="M114.631,283.104l26.925,113.723c31.404-7.435,50.834-38.921,43.399-70.325
	C177.519,295.099,146.035,275.669,114.631,283.104z"/>
<path style="fill:#AAAAAA;" d="M128.078,363.694c-11.037,0-20.524-7.509-23.071-18.262c-3.013-12.73,4.892-25.538,17.622-28.551
	c1.799-0.426,3.644-0.643,5.48-0.643c11.037,0,20.524,7.51,23.071,18.262c3.013,12.73-4.892,25.538-17.622,28.551
	C131.759,363.478,129.915,363.694,128.078,363.694z"/>
<path style="fill:#282828;" d="M128.109,321.629c8.304,0,15.827,5.68,17.823,14.113c2.333,9.852-3.763,19.73-13.616,22.062
	c-1.42,0.336-2.84,0.498-4.239,0.498c-8.304,0-15.827-5.68-17.823-14.113c-2.333-9.852,3.763-19.73,13.616-22.062
	C125.29,321.791,126.71,321.629,128.109,321.629 M128.109,310.846L128.109,310.846c-2.255,0-4.518,0.265-6.724,0.787
	c-15.623,3.699-25.324,19.418-21.625,35.04c3.124,13.196,14.769,22.412,28.317,22.412c2.254,0,4.517-0.265,6.723-0.787
	c7.568-1.792,13.985-6.424,18.07-13.042c4.084-6.618,5.347-14.431,3.556-21.999C153.302,320.062,141.657,310.846,128.109,310.846
	L128.109,310.846z"/>
<path style="fill:#797882;" d="M487.15,205.122l-235.761,55.71l11.173,47.195l235.741-55.705c6.925-1.636,11.211-8.576,9.576-15.501
	l-5.228-22.124C501.014,207.772,494.075,203.485,487.15,205.122z"/>
<circle style="fill:#57565C;" cx="400.129" cy="275.555" r="58.434"/>
<path style="fill:#2D2E30;" d="M386.671,218.696l26.925,113.723c31.404-7.435,50.835-38.921,43.399-70.325
	C449.559,230.691,418.075,211.262,386.671,218.696z"/>
<path style="fill:#AAAAAA;" d="M400.119,299.285c-11.038,0-20.525-7.509-23.071-18.262c-1.46-6.167-0.432-12.532,2.896-17.924
	c3.328-5.393,8.557-9.167,14.723-10.627c1.799-0.426,3.644-0.642,5.48-0.642c11.038,0,20.525,7.509,23.071,18.262
	c3.013,12.729-4.89,25.537-17.621,28.551C403.799,299.069,401.955,299.285,400.119,299.285z"/>
<path style="fill:#282828;" d="M400.149,257.221c8.304,0,15.827,5.68,17.823,14.113c2.333,9.852-3.763,19.73-13.616,22.062
	c-1.42,0.336-2.84,0.498-4.239,0.498c-8.304,0-15.827-5.68-17.823-14.113c-2.333-9.852,3.763-19.73,13.616-22.062
	C397.329,257.382,398.751,257.221,400.149,257.221 M400.15,246.438L400.15,246.438c-2.255,0-4.518,0.265-6.724,0.787
	c-15.623,3.699-25.324,19.418-21.625,35.04c3.124,13.196,14.769,22.412,28.317,22.412c2.254,0,4.517-0.265,6.723-0.787
	c15.623-3.699,25.324-19.418,21.625-35.04C425.342,255.654,413.698,246.438,400.15,246.438L400.15,246.438z"/>
<path style="fill:#383838;" d="M224.413,225.677c-4.521,0-8.617-3.094-9.702-7.685c-1.267-5.363,2.053-10.739,7.416-12.006
	l46.397-10.963c5.356-1.267,10.738,2.052,12.005,7.416c1.267,5.363-2.053,10.739-7.416,12.006l-46.397,10.963
	C225.945,225.59,225.173,225.677,224.413,225.677z"/>
<path style="fill:#7E4F1F;" d="M505.662,321.897c-4.017-3.349-9.314-4.743-14.457-3.804l-88.719,16.196l-60.446-9.648
	c-7.793-1.251-15.481,2.853-18.789,10.029l-17.262,37.456l-23.716-5.983v101.654h212.099c9.737,0,17.629-7.894,17.629-17.629
	V335.437C512.001,330.207,509.678,325.248,505.662,321.897z"/>
<rect x="18.291" y="245.299" transform="matrix(-0.9731 0.2305 -0.2305 -0.9731 113.2185 526.6762)" style="fill:#FFEA8D;" width="15.11" height="49.305"/>
</svg>