<?xml version="1.0" encoding="iso-8859-1"?>
<!-- Uploaded to: SVG Repo, www.svgrepo.com, Generator: SVG Repo Mixer Tools -->
<svg version="1.1" id="Layer_1" xmlns="http://www.w3.org/2000/svg" xmlns:xlink="http://www.w3.org/1999/xlink" 
	 viewBox="0 0 512 512" xml:space="preserve">
<circle style="fill:#334D5C;" cx="256" cy="256" r="256"/>
<path style="opacity:0.1;enable-background:new    ;" d="M142.293,109.349v293.333l109.2,109.2c1.504,0.027,2.997,0.117,4.507,0.117
	c141.387,0,256-114.619,256-256c0-1.499-0.085-2.976-0.112-4.469L369.707,109.349H142.293z"/>
<rect x="142.267" y="109.333" style="fill:#FFFFFF;" width="227.461" height="293.333"/>
<g>
	<rect x="165.867" y="135.429" style="fill:#E1E6E9;" width="42.773" height="5.333"/>
	<rect x="165.867" y="154.144" style="fill:#E1E6E9;" width="60.603" height="5.333"/>
	<rect x="215.573" y="192.48" style="fill:#E1E6E9;" width="80.8" height="5.333"/>
	<rect x="163.893" y="220.533" style="fill:#E1E6E9;" width="184.208" height="5.333"/>
	<rect x="163.893" y="242.827" style="fill:#E1E6E9;" width="184.208" height="5.333"/>
	<rect x="163.893" y="265.109" style="fill:#E1E6E9;" width="184.208" height="5.333"/>
	<rect x="163.893" y="287.392" style="fill:#E1E6E9;" width="184.208" height="5.333"/>
	<rect x="163.893" y="309.653" style="fill:#E1E6E9;" width="88.395" height="5.333"/>
</g>
<path style="fill:#27A2DB;" d="M313.867,364.117c-1.104,0-2.133-0.688-2.517-1.787c-1.099-3.152-1.877-6.507-2.309-9.984
	c-0.101-0.779-0.181-1.643-0.229-2.549c-3.541-0.405-7.072-1.04-10.576-1.904c-1.36-0.336-2.229-1.669-1.984-3.045
	c0.24-1.381,1.499-2.384,2.896-2.192c3.445,0.352,6.928,0.624,10.459,0.811c0.944-2.619,2.811-4.805,5.184-6.053
	c2.176-1.147,4.453-1.392,6.416-1.531c0.709-0.059,2.528-0.187,4.107,0.827c1.072-1.264,2.347-2.224,3.744-2.773
	c2.789-1.077,5.669-0.368,7.52,1.877c0.08,0.101,0.155,0.197,0.235,0.304c0.715-0.331,1.371-0.331,1.851-0.219
	c0.661,0.144,1.765,0.608,2.357,2.139c0.677,1.669,0.485,3.568-0.096,5.067c1.888-0.133,3.808-0.288,5.744-0.459
	c1.312-0.091,2.763,0.944,2.891,2.421c0.128,1.461-0.955,2.763-2.421,2.891c-5.109,0.453-10.085,0.779-14.944,0.965
	c-1.408,0.357-2.789,0.597-4.112,0.779c-0.112,1.429-0.309,2.843-0.565,4.219c-0.245,1.301-1.216,2.373-2.757,2.16
	c-1.328-0.069-2.405-1.104-2.523-2.427c-0.091-1.077-0.197-2.229-0.261-3.424c-2.592,0.123-5.189,0.128-7.792,0
	c0.037,0.528,0.096,1.019,0.144,1.461c0.384,3.099,1.072,6.085,2.048,8.875c0.491,1.392-0.245,2.912-1.637,3.397
	C314.453,364.069,314.155,364.117,313.867,364.117z M315.456,343.707c2.24,0.059,4.517,0.043,6.779,0.091
	c0.091-0.576,0.213-1.157,0.363-1.723c-0.096-0.571-0.187-0.816-0.245-0.923c0,0.043-0.219,0.016-0.757,0.059
	c-1.563,0.112-3.061,0.267-4.331,0.928C316.565,342.507,315.947,343.045,315.456,343.707z M328.032,342.555
	c0.037,0.384,0.069,0.779,0.096,1.168c1.083-0.027,2.171-0.064,3.264-0.107c0.368-0.101,0.736-0.213,1.099-0.336
	c0.011-0.085,0.021-0.16,0.043-0.245c0.133-0.581,0.304-1.157,0.501-1.707c0.021-0.768-0.192-1.659-0.571-2.117
	c-0.133-0.16-0.555-0.656-1.467-0.304C329.813,339.371,328.683,340.773,328.032,342.555z"/>
<polygon style="fill:#E56353;" points="196.267,344.315 191.392,345.621 190.747,343.216 177.408,371.728 186.821,370.032 
	197.696,346.789 "/>
<polygon style="fill:#CE412D;" points="198.789,348.683 197.696,346.789 186.821,370.032 191.547,378.347 205.504,348.512 
	203.157,346.16 "/>
<polygon style="fill:#E56353;" points="217.179,344.315 215.749,346.789 226.624,370.032 236.032,371.728 222.693,343.216 
	222.048,345.621 "/>
<polygon style="fill:#D15241;" points="214.656,348.683 210.288,346.16 207.936,348.512 221.893,378.347 226.624,370.032 
	215.749,346.789 "/>
<g>
	<path style="fill:#FCD462;" d="M233.808,322.64l3.568-3.568l-3.568-3.568l2.523-4.368l-4.368-2.523l1.307-4.869l-4.869-1.307
		v-5.045h-5.045l-1.307-4.869l-4.869,1.307l-2.523-4.368l-4.368,2.523l-3.568-3.568l-3.568,3.568l-4.368-2.523l-2.517,4.368
		l-4.869-1.307l-1.307,4.869h-5.045v5.045l-4.875,1.307l1.307,4.869l-4.368,2.523l2.523,4.368l-3.568,3.568l3.568,3.568
		l-2.523,4.368l4.368,2.523l-1.301,4.869l4.875,1.307v5.045h5.045l0.661,2.464l0.645,2.405l4.869-1.307l1.429,2.475l1.093,1.893
		l4.368-2.523l2.352,2.352l1.216,1.216l1.216-1.216l2.352-2.352l4.368,2.523l1.093-1.893l1.429-2.475l4.869,1.307l0.645-2.405
		l0.661-2.464h5.045v-5.045l4.869-1.307l-1.307-4.869l4.368-2.523L233.808,322.64z M206.72,341.067
		c-12.123,0-21.989-9.867-21.989-21.989c0-12.123,9.867-21.989,21.989-21.989c12.128,0,21.989,9.867,21.989,21.989
		S218.848,341.067,206.72,341.067z"/>
	<circle style="fill:#FCD462;" cx="206.72" cy="319.072" r="18.72"/>
</g>
<path style="fill:#E56353;" d="M206.72,297.083c-12.123,0-21.989,9.867-21.989,21.989c0,12.128,9.867,21.989,21.989,21.989
	c12.128,0,21.989-9.867,21.989-21.989S218.848,297.083,206.72,297.083z M206.72,337.792c-10.32,0-18.72-8.395-18.72-18.72
	c0-10.325,8.4-18.72,18.72-18.72c10.325,0,18.72,8.4,18.72,18.72C225.44,329.397,217.045,337.792,206.72,337.792z"/>
</svg>