<?xml version="1.0" encoding="iso-8859-1"?>
<!-- Uploaded to: SVG Repo, www.svgrepo.com, Generator: SVG Repo Mixer Tools -->
<svg version="1.1" id="Layer_1" xmlns="http://www.w3.org/2000/svg" xmlns:xlink="http://www.w3.org/1999/xlink" 
	 viewBox="0 0 512 512" xml:space="preserve">
<circle style="fill:#FC6F58;" cx="256" cy="256" r="256"/>
<path style="fill:#F1543F;" d="M511.757,266.795l-90.619-90.619c1.052,0-128.212,66.975-187.892,97.868L81.886,332.493
	l180.072,179.431C396.991,508.84,506.178,401.199,511.757,266.795z"/>
<path style="fill:#F4E3C3;" d="M407.404,189.911h-254.08c-11.378,0-20.601,9.223-20.601,20.601l0,0
	c0,11.378,9.223,20.601,20.601,20.601c-11.378,0-20.601,9.223-20.601,20.601c0,11.378,9.223,20.601,20.601,20.601
	c-11.378,0-20.601,9.223-20.601,20.601l0,0c0,11.378,9.223,20.601,20.601,20.601c-11.378,0-20.601,9.223-20.601,20.601l0,0
	c0,11.378,9.223,20.601,20.601,20.601h153.917c17.392,0,31.492-14.1,31.492-31.492h68.67V189.911z"/>
<path style="fill:#FFD15D;" d="M283.377,340.768H101.638c-15.31,0-27.72-12.41-27.72-27.72V190.604c0-15.31,12.41-27.72,27.72-27.72
	h181.739c15.31,0,27.72,12.41,27.72,27.72v122.444C311.098,328.356,298.687,340.768,283.377,340.768z"/>
<path style="fill:#F9B54C;" d="M283.377,162.883h-88.864v177.885h88.864c15.31,0,27.72-12.41,27.72-27.72V190.604
	C311.098,175.294,298.687,162.883,283.377,162.883z"/>
<rect x="73.919" y="203.317" style="fill:#324A5E;" width="237.175" height="37.733"/>
<rect x="194.508" y="203.317" style="fill:#2B3B4E;" width="116.588" height="37.733"/>
<path style="fill:#F4E3C3;" d="M336.067,243.133h-43.391c-11.983,0-21.695-9.714-21.695-21.695l0,0h-65.086
	c-11.983,0-21.695-9.714-21.695-21.695l0,0c0-11.983,9.714-21.695,21.695-21.695h195.26L336.067,243.133z"/>
<rect x="366.209" y="176.183" style="fill:#84DBFF;" width="54.936" height="178.545"/>
</svg>