<?xml version="1.0" encoding="iso-8859-1"?>
<!-- Uploaded to: SVG Repo, www.svgrepo.com, Generator: SVG Repo Mixer Tools -->
<svg version="1.1" id="Layer_1" xmlns="http://www.w3.org/2000/svg" xmlns:xlink="http://www.w3.org/1999/xlink" 
	 viewBox="0 0 512 512" xml:space="preserve">
<path style="fill:#9CA5A3;" d="M510.854,231.801C498.659,101.768,389.222,0,256,0C114.615,0,0,114.615,0,256
	c0,116.645,78.018,215.057,184.713,245.93L510.854,231.801z"/>
<path style="fill:#616F6D;" d="M512,256c0-8.163-0.4-16.232-1.146-24.199L328.743,49.692L189.217,267.13L256,333.913
	l-155.826,83.478l84.539,84.539C207.343,508.478,231.259,512,256,512C397.384,512,512,397.384,512,256z"/>
<polygon style="fill:#394B48;" points="122.435,395.13 122.435,439.652 256,439.652 278.261,395.13 "/>
<rect x="256" y="395.13" style="fill:#263230;" width="133.565" height="44.522"/>
<path style="fill:#F85C67;" d="M256,33.391h-33.391c-30.736,0-55.652,24.917-55.652,55.652l111.304,22.261L256,33.391z"/>
<path style="fill:#F63341;" d="M289.391,33.391H256v77.913l89.043-22.261C345.043,58.308,320.127,33.391,289.391,33.391z"/>
<rect x="244.87" y="244.87" style="fill:#FDE59A;" width="44.522" height="116.87"/>
<rect x="222.609" y="244.87" style="fill:#FEF2CC;" width="33.391" height="116.87"/>
<polygon style="fill:#F9BE02;" points="345.043,111.304 244.87,100.174 256,267.13 322.783,267.13 "/>
<polygon style="fill:#FBD867;" points="166.957,111.304 189.217,267.13 256,267.13 256,100.174 "/>
<polygon style="fill:#F9BE02;" points="322.783,372.87 244.87,384 256,317.217 322.783,317.217 "/>
<g>
	<polygon style="fill:#FBD867;" points="256,317.217 256,384 189.217,372.87 189.217,317.217 	"/>
	<polygon style="fill:#FBD867;" points="411.826,395.13 244.87,406.261 256,339.478 411.826,339.478 	"/>
</g>
<polygon style="fill:#FDE59A;" points="256,339.478 256,406.261 100.174,395.13 100.174,339.478 "/>
<polygon style="fill:#F9BE02;" points="411.826,395.13 411.826,417.391 256,417.391 244.87,406.261 256,395.13 "/>
<g>
	<rect x="100.174" y="395.13" style="fill:#FBD867;" width="155.826" height="22.261"/>
	<polygon style="fill:#FBD867;" points="345.043,89.043 345.043,111.304 256,111.304 244.87,100.174 256,89.043 	"/>
</g>
<rect x="166.957" y="89.043" style="fill:#FDE59A;" width="89.043" height="22.261"/>
</svg>