<?xml version="1.0" encoding="iso-8859-1"?>
<!-- Uploaded to: SVG Repo, www.svgrepo.com, Generator: SVG Repo Mixer Tools -->
<svg version="1.1" id="Layer_1" xmlns="http://www.w3.org/2000/svg" xmlns:xlink="http://www.w3.org/1999/xlink" 
	 viewBox="0 0 511.998 511.998" xml:space="preserve">
<circle style="fill:#FAD24D;" cx="255.999" cy="255.999" r="255.999"/>
<path style="fill:#FEFEFE;" d="M256,52.189C143.438,52.189,52.189,143.438,52.189,256c0,112.56,91.249,203.811,203.811,203.811
	S459.811,368.56,459.811,256S368.562,52.189,256,52.189z M256,442.827c-103.187,0-186.827-83.64-186.827-186.827
	S152.811,69.173,256,69.173c103.187,0,186.827,83.64,186.827,186.827S359.187,442.827,256,442.827z"/>
<g>
	<path style="fill:#21D0C3;" d="M387.303,80.967c16.776,0,30.383,13.604,30.383,30.379c0,16.779-13.606,30.383-30.383,30.383
		c-16.779,0-30.383-13.604-30.383-30.383C356.92,94.57,370.524,80.967,387.303,80.967z"/>
	<path style="fill:#21D0C3;" d="M124.699,80.967c16.774,0,30.383,13.604,30.383,30.379c0,16.779-13.608,30.383-30.383,30.383
		c-16.779,0-30.383-13.604-30.383-30.383C94.316,94.57,107.921,80.967,124.699,80.967z"/>
	<path style="fill:#21D0C3;" d="M387.303,370.268c16.776,0,30.383,13.603,30.383,30.379c0,16.779-13.606,30.383-30.383,30.383
		c-16.779,0-30.383-13.604-30.383-30.383C356.92,383.873,370.524,370.268,387.303,370.268z"/>
	<path style="fill:#21D0C3;" d="M124.699,370.268c16.774,0,30.383,13.603,30.383,30.379c0,16.779-13.608,30.383-30.383,30.383
		c-16.779,0-30.383-13.604-30.383-30.383C94.316,383.873,107.921,370.268,124.699,370.268z"/>
</g>
<path style="fill:#FF5B62;" d="M182.495,207.253h147.008c6.955,0,12.594,5.639,12.594,12.594v131.265
	c0,6.955-5.639,12.594-12.594,12.594H182.495c-6.955,0-12.594-5.639-12.594-12.594V219.848
	C169.9,212.891,175.539,207.253,182.495,207.253z"/>
<path style="fill:#ED4C54;" d="M341.963,352.938c-0.89,6.07-6.152,10.769-12.46,10.769h-147.01c-6.308,0-11.568-4.699-12.46-10.769
	H341.963z"/>
<rect x="169.897" y="224.281" style="fill:#FEFEFE;" width="172.193" height="29.554"/>
<path style="fill:#ECF0F1;" d="M184.1,224.277h30.605l-19.246,29.554H169.9v-7.752L184.1,224.277z M228.245,224.277h30.605
	l-19.246,29.554h-30.605L228.245,224.277z M272.391,224.277h30.605l-19.246,29.554h-30.608l19.246-29.554H272.391z M316.537,224.277
	h25.561v7.748l-14.201,21.806h-30.608l19.246-29.554H316.537z"/>
<path style="fill:#FEFEFE;" d="M193.383,207.255V169.16c0-24.359,16.763-39.758,38.214-46.332c7.797-2.39,16.148-3.585,24.403-3.585
	c8.255,0,16.607,1.198,24.403,3.585c21.451,6.575,38.212,21.973,38.212,46.332v38.095h-20.827V169.16
	c0-13.566-10.306-22.441-23.488-26.482c-5.673-1.74-11.942-2.611-18.302-2.611c-6.359,0-12.629,0.871-18.302,2.611
	c-13.185,4.041-23.488,12.916-23.488,26.482v38.095h-20.827H193.383z"/>
<path style="fill:#ECF0F1;" d="M302.538,170.52v36.735h-4.747V169.16c0-13.566-10.306-22.441-23.488-26.482
	c-5.673-1.74-11.942-2.611-18.302-2.611c-6.359,0-12.629,0.871-18.302,2.611c-13.185,4.041-23.488,12.916-23.488,26.482v38.095
	h-4.747V170.52C209.462,123.98,302.542,123.938,302.538,170.52z"/>
<g>
	<rect x="169.897" y="221.916" style="fill:#ED4C54;" width="172.193" height="2.359"/>
	<rect x="169.897" y="253.833" style="fill:#ED4C54;" width="172.193" height="2.359"/>
	<path style="fill:#ED4C54;" d="M234.871,326.976c3.689,0,6.676,2.987,6.676,6.676c0,3.689-2.987,6.676-6.676,6.676
		c-3.687,0-6.676-2.987-6.676-6.676C228.194,329.966,231.183,326.976,234.871,326.976z M277.127,326.976
		c3.689,0,6.676,2.987,6.676,6.676c0,3.689-2.987,6.676-6.676,6.676c-3.687,0-6.676-2.987-6.676-6.676
		C270.451,329.966,273.438,326.976,277.127,326.976z M256,326.976c3.689,0,6.676,2.987,6.676,6.676c0,3.689-2.987,6.676-6.676,6.676
		c-3.689,0-6.676-2.987-6.676-6.676C249.324,329.966,252.311,326.976,256,326.976z"/>
</g>
<g>
	<path style="fill:#15BDB2;" d="M149.264,104.719c0,17.443-14.144,31.582-31.582,31.582c-1.643,0-3.257-0.126-4.831-0.366
		c-3.448-0.529-6.712-1.616-9.697-3.166c2.238,2.252,4.825,4.152,7.673,5.616c4.158,2.137,8.875,3.344,13.871,3.344
		c16.774,0,30.383-13.604,30.383-30.383c0-3.957-0.759-7.739-2.137-11.207c-1.771-4.456-4.566-8.396-8.094-11.526
		c2.476,4.17,4.021,8.956,4.347,14.073c0.044,0.673,0.064,1.349,0.064,2.033L149.264,104.719L149.264,104.719z"/>
	<path style="fill:#15BDB2;" d="M411.867,104.719c0,17.443-14.144,31.582-31.582,31.582c-1.643,0-3.257-0.126-4.831-0.366
		c-3.448-0.529-6.712-1.616-9.697-3.166c2.238,2.252,4.825,4.152,7.673,5.616c4.159,2.137,8.875,3.344,13.871,3.344
		c16.774,0,30.383-13.604,30.383-30.383c0-3.957-0.759-7.739-2.137-11.207c-1.771-4.456-4.566-8.396-8.094-11.526
		c2.476,4.17,4.021,8.956,4.348,14.073c0.044,0.673,0.064,1.349,0.064,2.033L411.867,104.719L411.867,104.719z"/>
	<path style="fill:#15BDB2;" d="M411.867,394.019c0,17.443-14.144,31.582-31.582,31.582c-1.643,0-3.257-0.126-4.831-0.366
		c-3.448-0.529-6.712-1.616-9.697-3.166c2.238,2.252,4.825,4.152,7.673,5.616c4.159,2.137,8.875,3.344,13.871,3.344
		c16.774,0,30.383-13.604,30.383-30.383c0-3.957-0.759-7.739-2.137-11.207c-1.771-4.456-4.566-8.396-8.094-11.526
		c2.476,4.17,4.021,8.956,4.348,14.073c0.044,0.673,0.064,1.349,0.064,2.033h0.003V394.019z"/>
	<path style="fill:#15BDB2;" d="M149.264,394.019c0,17.443-14.144,31.582-31.582,31.582c-1.643,0-3.257-0.126-4.831-0.366
		c-3.448-0.529-6.712-1.616-9.697-3.166c2.238,2.252,4.825,4.152,7.673,5.616c4.158,2.137,8.875,3.344,13.871,3.344
		c16.774,0,30.383-13.604,30.383-30.383c0-3.957-0.759-7.739-2.137-11.207c-1.771-4.456-4.566-8.396-8.094-11.526
		c2.476,4.17,4.021,8.956,4.347,14.073c0.044,0.673,0.064,1.349,0.064,2.033h0.003V394.019z"/>
</g>
</svg>