<?xml version="1.0" encoding="iso-8859-1"?>
<!-- Uploaded to: SVG Repo, www.svgrepo.com, Generator: SVG Repo Mixer Tools -->
<svg version="1.1" id="Layer_1" xmlns="http://www.w3.org/2000/svg" xmlns:xlink="http://www.w3.org/1999/xlink" 
	 viewBox="0 0 511.997 511.997" xml:space="preserve">
<rect x="147.602" y="358.228" style="fill:#CCC3A8;" width="176.415" height="54.848"/>
<path style="fill:#C9B585;" d="M288.244,372.998c0,14.317,3.166,27.894,8.825,40.077h34.272v-54.848h-41.956
	C288.636,363.04,288.244,367.973,288.244,372.998z"/>
<polyline style="fill:#FFB92E;" points="243.143,175.006 33.161,175.006 199.332,372.998 311.97,372.998 311.97,175.006 
	270.917,175.006 "/>
<path style="fill:#7C7A75;" d="M68.583,139.687c0,0,9.78-32.149,40.671-37.98c30.889-5.831,66.02-16.65,80.982-30.355
	c14.963-13.706,42.344,3.605,50.447,18.753c8.102,15.148,42.581,11.168,53.641,49.585L68.583,139.687z"/>
<path style="fill:#F28838;" d="M311.97,176.119v-35.35H118.466h-94.61c-8.694,0-15.742,7.048-15.742,15.742v3.867
	c0,8.694,7.048,15.742,15.742,15.742h9.309"/>
<path style="fill:#EF9A1D;" d="M226.042,361.852l-2.06-2.523l-0.002-0.004v0.001L68.97,169.465H40.478l155.011,189.862l-0.001-0.001
	l0.003,0.004l2.06,2.523c3.72,3.95,12.73,11.144,29.018,11.144c0.028,0,0.052,0.001,0.079,0.001h28.493
	c-0.027,0-0.052-0.001-0.08-0.001C238.772,372.997,229.763,365.804,226.042,361.852z"/>
<path style="fill:#6B6861;" d="M143.26,117.67c25.353-7.711,54.187-22.018,66.468-40.141c2.882-4.252,6.327-6.223,9.993-6.528
	c-8.023-2.415-16.114-1.951-22.17,3.596c-14.961,13.704-50.092,24.524-80.981,30.355c-30.891,5.833-40.671,37.98-40.671,37.98
	h42.442C123.576,132.166,131.577,121.224,143.26,117.67z"/>
<path style="fill:#EF711D;" d="M37.072,160.378v-3.867c0-8.694,7.048-15.742,15.742-15.742H31.174
	c-8.694,0-15.742,7.048-15.742,15.742v3.867c0,8.694,7.048,15.742,15.742,15.742h9.309h12.33
	C44.118,176.119,37.072,169.072,37.072,160.378z"/>
<path style="fill:#FFB92E;" d="M367.393,138.912c-8.324,0-15.072,6.747-15.072,15.07v153.952c9.726-4.835,20.682-7.569,32.282-7.569
	c40.113,0,72.632,32.519,72.632,72.634c0,5.334-0.592,10.528-1.682,15.536h33.262c8.324,0,15.072-6.747,15.072-15.072V237.824
	l-75.782-98.912H367.393z"/>
<path style="fill:#36A1CB;" d="M403.24,187.244v55.724c0,7.17,5.813,12.984,12.984,12.984h87.661v-18.127l-48.699-63.564h-38.962
	C409.054,174.26,403.24,180.074,403.24,187.244z"/>
<path style="fill:#EF9A1D;" d="M381.277,382.043V153.981c0-8.31,6.76-15.07,15.072-15.07H374.71c-8.312,0-15.072,6.76-15.072,15.07
	v228.061c0,3.585,2.906,6.492,6.492,6.492h21.639C384.183,388.535,381.277,385.628,381.277,382.043z"/>
<path style="fill:#2B80AF;" d="M432.197,242.968v-55.724c0-7.17,5.813-12.984,12.984-12.984h-21.639
	c-7.17,0-12.984,5.813-12.984,12.984v55.724c0,7.17,5.813,12.984,12.984,12.984h21.639
	C438.011,255.951,432.197,250.137,432.197,242.968z"/>
<polyline style="fill:#CCC3A8;" points="311.97,362.605 311.97,175.006 352.321,175.006 352.321,312.285 "/>
<path style="fill:#EF711D;" d="M503.885,290.574h-21.661c-7.17,0-12.984,5.813-12.984,12.984v6.492
	c0,7.17,5.813,12.984,12.984,12.984h21.661V290.574z"/>
<g>
	<circle style="fill:#7C7A75;" cx="103.025" cy="372.997" r="72.633"/>
	<circle style="fill:#7C7A75;" cx="384.597" cy="372.997" r="72.633"/>
</g>
<g>
	<path style="fill:#CCC3A8;" d="M134.487,380.219c0.085-0.371,0.166-0.744,0.239-1.12c0.042-0.224,0.082-0.45,0.12-0.678
		c0.063-0.369,0.118-0.741,0.168-1.114c0.03-0.225,0.061-0.45,0.085-0.676c0.045-0.405,0.08-0.81,0.11-1.218
		c0.015-0.197,0.034-0.391,0.044-0.587c0.034-0.606,0.055-1.214,0.055-1.829c0-1.113-0.057-2.215-0.167-3.301
		c-1.212-11.935-8.928-21.95-19.549-26.441c-3.86-1.634-8.107-2.537-12.564-2.537h-0.001l0,0c-4.457,0-8.702,0.903-12.565,2.537
		c-10.621,4.491-18.336,14.506-19.548,26.441c-0.111,1.086-0.167,2.188-0.167,3.301c0,0.613,0.021,1.223,0.054,1.829
		c0.012,0.197,0.031,0.391,0.045,0.587c0.03,0.408,0.065,0.814,0.11,1.218c0.025,0.226,0.056,0.451,0.085,0.676
		c0.051,0.374,0.106,0.747,0.168,1.114c0.039,0.228,0.078,0.454,0.121,0.678c0.071,0.377,0.153,0.749,0.237,1.12
		c0.034,0.144,0.057,0.29,0.092,0.432l0.012,0.014c2.295,9.416,8.715,17.215,17.242,21.369l0.004,0.004
		c0.015,0.008,0.031,0.014,0.047,0.022c0.507,0.247,1.022,0.479,1.545,0.699c0.098,0.042,0.199,0.077,0.296,0.117
		c0.423,0.173,0.847,0.34,1.28,0.496c0.184,0.067,0.373,0.127,0.56,0.19c0.349,0.118,0.7,0.235,1.055,0.342
		c0.215,0.064,0.431,0.122,0.648,0.184c0.335,0.093,0.671,0.182,1.011,0.265c0.227,0.056,0.457,0.108,0.686,0.158
		c0.336,0.074,0.674,0.143,1.015,0.206c0.233,0.043,0.465,0.087,0.698,0.124c0.351,0.057,0.703,0.106,1.057,0.153
		c0.226,0.029,0.452,0.062,0.678,0.087c0.388,0.042,0.781,0.071,1.173,0.102c0.196,0.014,0.388,0.034,0.585,0.044
		c0.586,0.031,1.177,0.051,1.771,0.051h0.009l0,0h0.001c0.003,0,0.005,0,0.005,0c0.597,0,1.188-0.02,1.774-0.051
		c0.197-0.011,0.39-0.03,0.585-0.044c0.392-0.029,0.784-0.059,1.172-0.102c0.228-0.025,0.452-0.057,0.678-0.087
		c0.354-0.047,0.707-0.095,1.057-0.153c0.235-0.038,0.466-0.081,0.699-0.124c0.339-0.064,0.677-0.132,1.014-0.206
		c0.23-0.051,0.459-0.103,0.687-0.158c0.339-0.083,0.675-0.172,1.011-0.265c0.215-0.062,0.433-0.12,0.647-0.184
		c0.355-0.108,0.705-0.224,1.056-0.342c0.187-0.064,0.375-0.123,0.562-0.19c0.431-0.157,0.858-0.324,1.282-0.497
		c0.096-0.04,0.197-0.075,0.293-0.116c0.522-0.22,1.038-0.453,1.546-0.699c0.016-0.008,0.03-0.014,0.047-0.022l0.003-0.004
		c8.529-4.154,14.947-11.953,17.243-21.369l0.012-0.014C134.43,380.509,134.455,380.363,134.487,380.219z"/>
	<path style="fill:#CCC3A8;" d="M416.061,380.219c0.086-0.371,0.166-0.744,0.239-1.12c0.042-0.224,0.082-0.45,0.12-0.678
		c0.063-0.369,0.118-0.741,0.168-1.114c0.03-0.225,0.061-0.45,0.085-0.676c0.045-0.405,0.08-0.81,0.11-1.218
		c0.015-0.197,0.034-0.391,0.044-0.587c0.034-0.606,0.055-1.214,0.055-1.829c0-1.113-0.057-2.215-0.167-3.301
		c-1.212-11.935-8.928-21.95-19.549-26.441c-3.86-1.634-8.107-2.537-12.564-2.537h-0.001l0,0c-4.457,0-8.702,0.903-12.565,2.537
		c-10.621,4.491-18.336,14.506-19.548,26.441c-0.111,1.086-0.167,2.188-0.167,3.301c0,0.613,0.021,1.223,0.054,1.829
		c0.012,0.197,0.031,0.391,0.045,0.587c0.03,0.408,0.065,0.814,0.11,1.218c0.025,0.226,0.056,0.451,0.085,0.676
		c0.051,0.374,0.106,0.747,0.168,1.114c0.039,0.228,0.078,0.454,0.121,0.678c0.071,0.377,0.153,0.749,0.237,1.12
		c0.034,0.144,0.057,0.29,0.092,0.432l0.012,0.014c2.295,9.416,8.715,17.215,17.242,21.369l0.004,0.004
		c0.015,0.008,0.031,0.014,0.047,0.022c0.507,0.247,1.022,0.479,1.545,0.699c0.098,0.042,0.199,0.077,0.296,0.117
		c0.423,0.173,0.847,0.34,1.28,0.496c0.184,0.067,0.373,0.127,0.56,0.19c0.349,0.118,0.7,0.235,1.055,0.342
		c0.215,0.064,0.431,0.122,0.648,0.184c0.335,0.093,0.671,0.182,1.011,0.265c0.227,0.056,0.457,0.108,0.686,0.158
		c0.336,0.074,0.674,0.143,1.015,0.206c0.233,0.043,0.465,0.087,0.698,0.124c0.351,0.057,0.703,0.106,1.057,0.153
		c0.226,0.029,0.452,0.062,0.678,0.087c0.388,0.042,0.781,0.071,1.173,0.102c0.196,0.014,0.388,0.034,0.585,0.044
		c0.586,0.031,1.177,0.051,1.771,0.051c0,0,0.007,0,0.009,0l0,0h0.001h0.008c0.595,0,1.186-0.02,1.772-0.051
		c0.197-0.011,0.389-0.03,0.585-0.044c0.392-0.029,0.784-0.059,1.172-0.102c0.228-0.025,0.452-0.057,0.678-0.087
		c0.354-0.047,0.707-0.095,1.057-0.153c0.235-0.038,0.466-0.081,0.699-0.124c0.34-0.064,0.677-0.132,1.014-0.206
		c0.23-0.051,0.459-0.103,0.687-0.158c0.34-0.083,0.675-0.172,1.011-0.265c0.215-0.062,0.433-0.12,0.647-0.184
		c0.355-0.108,0.705-0.224,1.056-0.342c0.187-0.064,0.375-0.123,0.56-0.19c0.431-0.157,0.858-0.324,1.282-0.497
		c0.096-0.04,0.197-0.075,0.293-0.116c0.522-0.22,1.038-0.453,1.546-0.699c0.016-0.008,0.03-0.014,0.047-0.022l0.003-0.004
		c8.529-4.154,14.947-11.953,17.242-21.369l0.012-0.014C416.004,380.509,416.029,380.363,416.061,380.219z"/>
</g>
<path style="fill:#6B6861;" d="M59.35,372.998c0-36.439,26.833-66.603,61.814-71.828c-3.532-0.527-7.143-0.806-10.82-0.806
	c-40.113,0-72.634,32.519-72.634,72.634c0,40.113,32.521,72.632,72.634,72.632c3.677,0,7.288-0.279,10.82-0.806
	C86.183,439.598,59.35,409.434,59.35,372.998z"/>
<g>
	<path style="fill:#C9B585;" d="M121.04,403.371c-0.431-0.155-0.856-0.322-1.279-0.496c-0.1-0.04-0.199-0.075-0.296-0.117
		c-0.523-0.22-1.038-0.453-1.546-0.699c-0.015-0.008-0.03-0.014-0.047-0.022l-0.003-0.004c-8.528-4.154-14.948-11.953-17.243-21.369
		l-0.011-0.014c-0.036-0.143-0.06-0.289-0.092-0.432c-0.085-0.371-0.166-0.744-0.238-1.12c-0.042-0.224-0.082-0.45-0.12-0.678
		c-0.064-0.369-0.118-0.741-0.169-1.114c-0.029-0.225-0.06-0.45-0.085-0.676c-0.045-0.405-0.079-0.81-0.109-1.218
		c-0.015-0.197-0.034-0.391-0.045-0.587c-0.034-0.606-0.054-1.214-0.054-1.829c0-1.113,0.056-2.215,0.167-3.301
		c1.211-11.935,8.927-21.95,19.548-26.441c0.572-0.242,1.157-0.463,1.745-0.673c-3.382-1.203-7.023-1.864-10.819-1.864h-0.001
		h-0.001c-4.457,0-8.702,0.903-12.564,2.537c-10.621,4.491-18.337,14.506-19.548,26.441c-0.111,1.086-0.167,2.188-0.167,3.301
		c0,0.613,0.021,1.223,0.054,1.829c0.012,0.197,0.03,0.391,0.045,0.587c0.029,0.408,0.064,0.814,0.109,1.218
		c0.026,0.226,0.056,0.451,0.085,0.676c0.051,0.374,0.106,0.747,0.169,1.114c0.038,0.228,0.078,0.454,0.12,0.678
		c0.071,0.377,0.153,0.749,0.238,1.12c0.032,0.144,0.056,0.29,0.092,0.432l0.011,0.014c2.295,9.416,8.715,17.215,17.243,21.369
		l0.003,0.004c0.016,0.008,0.031,0.014,0.047,0.022c0.509,0.247,1.022,0.479,1.546,0.699c0.098,0.042,0.198,0.077,0.296,0.117
		c0.423,0.173,0.847,0.34,1.279,0.496c0.185,0.067,0.373,0.127,0.56,0.19c0.351,0.118,0.7,0.235,1.056,0.342
		c0.214,0.064,0.431,0.122,0.648,0.184c0.334,0.093,0.67,0.182,1.011,0.265c0.227,0.056,0.457,0.108,0.686,0.158
		c0.336,0.074,0.674,0.143,1.014,0.206c0.233,0.043,0.465,0.087,0.699,0.124c0.349,0.057,0.702,0.106,1.057,0.153
		c0.226,0.029,0.451,0.062,0.678,0.087c0.387,0.042,0.781,0.071,1.172,0.102c0.197,0.014,0.388,0.034,0.585,0.044
		c0.588,0.031,1.177,0.051,1.772,0.051c0,0,0.005,0,0.008,0h0.001h0.001h0.008c0.595,0,1.185-0.02,1.772-0.051
		c0.197-0.011,0.388-0.03,0.585-0.044c0.391-0.029,0.784-0.059,1.172-0.102c0.227-0.025,0.452-0.057,0.678-0.087
		c0.354-0.047,0.707-0.095,1.057-0.153c0.234-0.038,0.466-0.081,0.698-0.124c0.34-0.064,0.677-0.132,1.014-0.206
		c0.229-0.051,0.459-0.103,0.686-0.158c0.34-0.083,0.676-0.172,1.011-0.265c0.216-0.062,0.433-0.12,0.648-0.184
		c0.355-0.108,0.704-0.224,1.056-0.342c0.145-0.05,0.292-0.098,0.436-0.148C121.122,403.399,121.08,403.386,121.04,403.371z"/>
	<path style="fill:#C9B585;" d="M394.499,403.371c-0.431-0.155-0.856-0.322-1.279-0.496c-0.1-0.04-0.199-0.075-0.296-0.117
		c-0.523-0.22-1.038-0.453-1.546-0.699c-0.015-0.008-0.03-0.014-0.047-0.022l-0.003-0.004c-8.528-4.154-14.947-11.953-17.243-21.369
		l-0.011-0.014c-0.036-0.143-0.06-0.289-0.092-0.432c-0.085-0.371-0.166-0.744-0.238-1.12c-0.042-0.224-0.082-0.45-0.12-0.678
		c-0.064-0.369-0.118-0.741-0.169-1.114c-0.029-0.225-0.06-0.45-0.084-0.676c-0.047-0.405-0.08-0.81-0.11-1.218
		c-0.015-0.197-0.034-0.391-0.045-0.587c-0.034-0.606-0.054-1.214-0.054-1.829c0-1.113,0.056-2.215,0.167-3.301
		c1.211-11.935,8.927-21.95,19.548-26.441c0.572-0.242,1.157-0.463,1.745-0.673c-3.382-1.203-7.023-1.864-10.819-1.864h-0.001H383.8
		c-4.457,0-8.702,0.903-12.564,2.537c-10.621,4.491-18.337,14.506-19.548,26.441c-0.111,1.086-0.167,2.188-0.167,3.301
		c0,0.613,0.021,1.223,0.054,1.829c0.012,0.197,0.03,0.391,0.045,0.587c0.029,0.408,0.064,0.814,0.11,1.218
		c0.025,0.226,0.055,0.451,0.084,0.676c0.051,0.374,0.106,0.747,0.169,1.114c0.038,0.228,0.078,0.454,0.12,0.678
		c0.071,0.377,0.153,0.749,0.238,1.12c0.032,0.144,0.056,0.29,0.092,0.432l0.011,0.014c2.295,9.416,8.715,17.215,17.243,21.369
		l0.003,0.004c0.016,0.008,0.031,0.014,0.047,0.022c0.509,0.247,1.022,0.479,1.546,0.699c0.098,0.042,0.198,0.077,0.296,0.117
		c0.423,0.173,0.847,0.34,1.279,0.496c0.185,0.067,0.374,0.127,0.56,0.19c0.351,0.118,0.7,0.235,1.056,0.342
		c0.214,0.064,0.431,0.122,0.648,0.184c0.334,0.093,0.67,0.182,1.011,0.265c0.227,0.056,0.457,0.108,0.686,0.158
		c0.336,0.074,0.674,0.143,1.014,0.206c0.233,0.043,0.465,0.087,0.698,0.124c0.349,0.057,0.702,0.106,1.057,0.153
		c0.226,0.029,0.451,0.062,0.678,0.087c0.387,0.042,0.781,0.071,1.172,0.102c0.197,0.014,0.388,0.034,0.585,0.044
		c0.588,0.031,1.177,0.051,1.772,0.051h0.008h0.001h0.001c0,0,0.004,0,0.008,0c0.595,0,1.185-0.02,1.772-0.051
		c0.197-0.011,0.388-0.03,0.585-0.044c0.391-0.029,0.784-0.059,1.172-0.102c0.227-0.025,0.452-0.057,0.678-0.087
		c0.354-0.047,0.707-0.095,1.057-0.153c0.234-0.038,0.466-0.081,0.698-0.124c0.34-0.064,0.677-0.132,1.014-0.206
		c0.229-0.051,0.459-0.103,0.686-0.158c0.34-0.083,0.676-0.172,1.011-0.265c0.216-0.062,0.433-0.12,0.648-0.184
		c0.355-0.108,0.704-0.224,1.055-0.342c0.146-0.05,0.291-0.098,0.436-0.148C394.582,403.399,394.539,403.386,394.499,403.371z"/>
</g>
<g>
	<path style="fill:#231F20;" d="M510.326,232.888l-48.699-63.564c-0.002-0.003-0.005-0.005-0.008-0.009l-27.075-35.339
		c-1.535-2.005-3.916-3.179-6.441-3.179h-60.71c-12.785,0-23.187,10.4-23.187,23.184v12.91h-24.121v-27.204v-30.644h137.149
		c4.483,0,8.115-3.632,8.115-8.115s-3.632-8.115-8.115-8.115H311.97c-4.483,0-8.115,3.632-8.115,8.115v30.644h-3.694
		c-8.838-23.202-26.039-30.996-38.857-36.799c-6.318-2.86-11.773-5.328-13.467-8.498c-7.239-13.533-26.729-28.024-44.202-28.024
		c-7.271,0-13.801,2.46-18.881,7.115c-11.732,10.745-41.238,21.615-77.007,28.365c-27.122,5.121-39.985,27.19-44.706,37.841H23.856
		C10.702,131.572,0,142.274,0,155.429v3.867c0,13.155,10.702,23.856,23.856,23.856h5.548l93.681,111.621
		c-6.416-1.646-13.136-2.524-20.059-2.524c-44.524,0-80.747,36.223-80.747,80.748c0,44.523,36.223,80.746,80.747,80.746
		c26.475,0,50.013-12.809,64.747-32.554h83.66c4.483,0,8.115-3.632,8.115-8.115s-3.632-8.115-8.115-8.115h-74.272
		c4.246-9.808,6.61-20.613,6.61-31.962c0-2.098-0.106-4.171-0.264-6.23l9.607,11.446c1.543,1.837,3.817,2.899,6.216,2.899h104.929
		c0.842,8.393,2.982,16.406,6.202,23.848h-32.343c-4.483,0-8.115,3.632-8.115,8.115s3.632,8.115,8.115,8.115h41.732
		c14.734,19.745,38.273,32.554,64.748,32.554c36.297,0,67.069-24.076,77.205-57.096h27.006c12.785,0,23.187-10.401,23.187-23.187
		v-50.43v-32.459V255.95v-18.127C512,236.039,511.411,234.305,510.326,232.888z M103.028,437.514
		c-35.575,0-64.518-28.942-64.518-64.517c0-35.576,28.943-64.519,64.518-64.519s64.517,28.943,64.517,64.519
		C167.545,408.573,138.604,437.514,103.028,437.514z M495.77,240.575v7.261h-79.546c-2.684,0-4.869-2.184-4.869-4.869v-55.724
		c0-2.684,2.185-4.869,4.869-4.869h34.955L495.77,240.575z M344.206,303.126c-9.399,5.455-17.61,12.737-24.121,21.378v-97.983
		v-43.399h24.121V303.126z M110.758,109.681c14.669-2.77,64.148-13.284,84.958-32.345c2.097-1.919,4.686-2.854,7.919-2.854
		c10.974,0,25.079,10.456,29.891,19.451c4.293,8.028,12.45,11.72,21.085,15.628c10.319,4.67,20.92,9.467,27.742,22.013H81.254
		C86.238,123.25,95.439,112.573,110.758,109.681z M50.566,183.121h192.577c4.483,0,8.115-3.632,8.115-8.115
		c0-4.483-3.632-8.115-8.115-8.115H33.161c-0.148,0-0.292,0.024-0.439,0.031h-8.867c-4.206,0-7.627-3.421-7.627-7.627v-3.867
		c0-4.206,3.421-7.627,7.627-7.627h44.726l225.745,0.001c0,0,0.009,0,0.017,0.001c0.014,0,0.027-0.002,0.041-0.002h9.469v19.089
		h-32.938c-4.483,0-8.115,3.632-8.115,8.115c0,4.483,3.632,8.115,8.115,8.115h32.938v43.399v136.085v2.278H203.117L50.566,183.121z
		 M384.602,437.514c-35.575,0-64.518-28.942-64.518-64.517c0-25.451,14.816-47.501,36.273-57.995
		c0.63-0.307,1.266-0.593,1.901-0.879c0.414-0.186,0.822-0.384,1.241-0.563c0.99-0.42,1.989-0.811,2.993-1.18
		c0.61-0.224,1.233-0.423,1.852-0.628c0.449-0.149,0.896-0.304,1.347-0.443c0.659-0.202,1.325-0.386,1.994-0.568
		c0.422-0.115,0.845-0.23,1.269-0.337c0.673-0.169,1.35-0.322,2.031-0.47c0.441-0.095,0.884-0.185,1.328-0.271
		c0.66-0.128,1.323-0.249,1.991-0.357c0.503-0.08,1.009-0.149,1.516-0.219c0.613-0.084,1.227-0.169,1.845-0.235
		c0.645-0.068,1.294-0.117,1.942-0.166c0.494-0.038,0.986-0.087,1.483-0.113c1.165-0.063,2.335-0.1,3.512-0.1
		c35.575,0,64.517,28.943,64.517,64.519c0,1.145-0.031,2.292-0.093,3.439c-0.003,0.069-0.012,0.137-0.016,0.207
		c-0.063,1.087-0.147,2.176-0.265,3.263c-0.003,0.026-0.008,0.052-0.01,0.078c-0.122,1.116-0.273,2.229-0.452,3.339
		c-0.013,0.082-0.03,0.162-0.043,0.243c-0.17,1.024-0.364,2.044-0.582,3.061C441.383,415.678,415.5,437.514,384.602,437.514z
		 M488.813,380.42h-23.81c0.048-0.517,0.07-1.034,0.108-1.552c0.048-0.661,0.106-1.319,0.138-1.983
		c0.063-1.297,0.098-2.594,0.098-3.888c0-44.524-36.223-80.748-80.746-80.748c-1.267,0-2.526,0.039-3.784,0.096
		c-0.311,0.014-0.619,0.034-0.928,0.052c-1.044,0.06-2.084,0.138-3.12,0.238c-0.212,0.021-0.425,0.038-0.637,0.061
		c-2.609,0.27-5.191,0.669-7.745,1.19c-0.036,0.008-0.071,0.015-0.107,0.023c-1.258,0.259-2.51,0.549-3.753,0.869
		c-0.045,0.012-0.091,0.023-0.136,0.035c-1.327,0.343-2.648,0.709-3.956,1.121V175.006v-21.025c0-3.835,3.121-6.955,6.957-6.955
		h56.705l14.648,19.118h-22.52c-11.633,0-21.098,9.465-21.098,21.098v55.724c0,11.633,9.465,21.098,21.098,21.098h79.546v18.393
		h-13.546c-11.633,0-21.098,9.465-21.098,21.098v6.492c0,11.633,9.465,21.098,21.098,21.098h13.546v42.315
		C495.77,377.299,492.649,380.42,488.813,380.42z M495.77,314.919h-13.546c-2.684,0-4.869-2.185-4.869-4.869v-6.492
		c0-2.684,2.185-4.869,4.869-4.869h13.546V314.919z"/>
	<path style="fill:#231F20;" d="M273.408,197.706c-4.483,0-8.115,3.632-8.115,8.115v138.182c0,4.483,3.632,8.115,8.115,8.115
		s8.115-3.632,8.115-8.115V205.82C281.523,201.339,277.891,197.706,273.408,197.706z"/>
	<path style="fill:#231F20;" d="M234.847,197.706c-4.483,0-8.115,3.632-8.115,8.115v138.182c0,4.483,3.632,8.115,8.115,8.115
		s8.115-3.632,8.115-8.115V205.82C242.962,201.339,239.328,197.706,234.847,197.706z"/>
	<path style="fill:#231F20;" d="M119.164,197.706c-4.483,0-8.115,3.632-8.115,8.115v18.753c0,4.483,3.632,8.115,8.115,8.115
		s8.115-3.632,8.115-8.115V205.82C127.279,201.339,123.645,197.706,119.164,197.706z"/>
	<path style="fill:#231F20;" d="M157.724,197.706c-4.483,0-8.115,3.632-8.115,8.115V269.5c0,4.483,3.632,8.115,8.115,8.115
		s8.115-3.632,8.115-8.115V205.82C165.839,201.339,162.207,197.706,157.724,197.706z"/>
	<path style="fill:#231F20;" d="M196.286,197.706c-4.483,0-8.115,3.632-8.115,8.115v111.443c0,4.483,3.632,8.115,8.115,8.115
		s8.115-3.632,8.115-8.115V205.82C204.4,201.339,200.768,197.706,196.286,197.706z"/>
	<path style="fill:#231F20;" d="M384.602,332.601c-22.275,0-40.396,18.121-40.396,40.394c0,22.275,18.122,40.396,40.396,40.396
		c6.189,0,12.131-1.365,17.662-4.058c4.029-1.962,5.705-6.819,3.744-10.848c-1.962-4.029-6.814-5.703-10.848-3.744
		c-3.299,1.606-6.851,2.42-10.558,2.42c-13.326,0-24.167-10.841-24.167-24.167c0-13.324,10.841-24.165,24.167-24.165
		c13.324,0,24.166,10.84,24.166,24.165c0,1.943-0.23,3.873-0.683,5.738c-1.059,4.354,1.612,8.743,5.967,9.803
		c4.356,1.06,8.742-1.613,9.803-5.967c0.758-3.118,1.144-6.338,1.144-9.573C424.998,350.722,406.877,332.601,384.602,332.601z"/>
	<path style="fill:#231F20;" d="M103.028,332.601c-22.275,0-40.396,18.121-40.396,40.394c0,22.275,18.122,40.396,40.396,40.396
		c6.189,0,12.131-1.365,17.662-4.058c4.029-1.962,5.705-6.819,3.744-10.848c-1.962-4.029-6.815-5.703-10.848-3.744
		c-3.299,1.606-6.851,2.42-10.558,2.42c-13.326,0-24.167-10.841-24.167-24.167c0-13.324,10.841-24.165,24.167-24.165
		c13.324,0,24.166,10.84,24.166,24.165c0,1.943-0.23,3.873-0.683,5.738c-1.059,4.354,1.612,8.743,5.967,9.803
		c4.352,1.06,8.743-1.613,9.803-5.967c0.758-3.118,1.144-6.338,1.144-9.573C143.424,350.722,125.303,332.601,103.028,332.601z"/>
</g>
</svg>