<?xml version="1.0" encoding="iso-8859-1"?>
<!-- Uploaded to: SVG Repo, www.svgrepo.com, Generator: SVG Repo Mixer Tools -->
<svg height="800px" width="800px" version="1.1" id="Layer_1" xmlns="http://www.w3.org/2000/svg" xmlns:xlink="http://www.w3.org/1999/xlink" 
	 viewBox="0 0 512 512" xml:space="preserve">
<g transform="translate(1)">
	<path id="SVGCleanerId_0" style="fill:#FFDD09;" d="M127,8.533c-18.773,0-34.133,15.36-34.133,34.133v358.4H331.8v58.027
		c0,22.187,16.213,41.813,38.4,44.373c25.6,2.56,46.933-17.92,46.933-42.667V298.667v-204.8V51.2
		c0-23.893,18.773-42.667,42.667-42.667H127z"/>
	<g>
		<path id="SVGCleanerId_0_1_" style="fill:#FFDD09;" d="M127,8.533c-18.773,0-34.133,15.36-34.133,34.133v358.4H331.8v58.027
			c0,22.187,16.213,41.813,38.4,44.373c25.6,2.56,46.933-17.92,46.933-42.667V298.667v-204.8V51.2
			c0-23.893,18.773-42.667,42.667-42.667H127z"/>
	</g>
	<path style="fill:#FFFFFF;" d="M118.467,401.067v-358.4c0-18.773,15.36-34.133,34.133-34.133H127
		c-18.773,0-34.133,15.36-34.133,34.133v358.4H118.467z"/>
	<path style="fill:#FCC309;" d="M374.467,503.467L374.467,503.467c-23.893,0-42.667-18.773-42.667-42.667v-59.733H24.6
		c-9.387,0-17.067,7.68-17.067,17.067V460.8c0,23.893,18.773,42.667,42.667,42.667H374.467z"/>
	<path style="fill:#FFFFFF;" d="M24.6,401.067c-9.387,0-17.067,7.68-17.067,17.067V460.8c0,23.893,18.773,42.667,42.667,42.667
		h24.747c-23.04,0-41.813-19.627-41.813-42.667v-42.667c0-9.387,7.68-17.067,17.067-17.067H24.6z"/>
	<path style="fill:#FCC309;" d="M459.8,8.533L459.8,8.533c-23.893,0-42.667,18.773-42.667,42.667v59.733H485.4
		c9.387,0,17.067-7.68,17.067-17.067V51.2C502.467,27.307,483.693,8.533,459.8,8.533"/>
	<path style="fill:#FD9808;" d="M485.4,110.933c9.387,0,17.067-7.68,17.067-17.067V51.2c0-23.893-18.773-42.667-42.667-42.667
		c-4.267,0-8.533,0.853-12.8,2.56c17.067,5.12,29.867,21.333,29.867,40.107v42.667c0,9.387-7.68,17.067-17.067,17.067H485.4z"/>
	<path style="fill:#1CD759;" d="M383,281.6c0-46.933-38.4-85.333-85.333-85.333s-85.333,38.4-85.333,85.333
		s38.4,85.333,85.333,85.333S383,328.533,383,281.6"/>
	<path style="fill:#15A143;" d="M297.667,196.267c-4.267,0-8.533,0.853-12.8,0.853c40.96,6.827,72.533,41.813,72.533,84.48
		s-31.573,78.507-72.533,84.48c4.267,0.853,8.533,0.853,12.8,0.853c46.933,0,85.333-38.4,85.333-85.333
		S344.6,196.267,297.667,196.267"/>
	<path d="M297.667,375.467c-52.053,0-93.867-41.813-93.867-93.867s41.813-93.867,93.867-93.867s93.867,41.813,93.867,93.867
		S349.72,375.467,297.667,375.467z M297.667,204.8c-42.667,0-76.8,34.133-76.8,76.8s34.133,76.8,76.8,76.8s76.8-34.133,76.8-76.8
		S340.333,204.8,297.667,204.8z"/>
	<path d="M289.133,332.8c-2.56,0-4.267-0.853-5.973-2.56l-34.133-34.133c-3.413-3.413-3.413-8.533,0-11.947
		c3.413-3.413,8.533-3.413,11.947,0l26.453,26.453l45.227-68.267c2.56-4.267,7.68-5.12,11.947-2.56
		c4.267,2.56,5.12,7.68,2.56,11.947l-51.2,76.8C295.107,331.093,292.547,332.8,289.133,332.8
		C289.987,332.8,289.133,332.8,289.133,332.8z"/>
	<path d="M485.4,119.467h-68.267c-5.12,0-8.533-3.413-8.533-8.533V51.2c0-28.16,23.04-51.2,51.2-51.2S511,23.04,511,51.2v42.667
		C511,108.373,499.907,119.467,485.4,119.467z M425.667,102.4H485.4c5.12,0,8.533-4.267,8.533-8.533V51.2
		c0-18.773-15.36-34.133-34.133-34.133s-34.133,15.36-34.133,34.133V102.4z"/>
	<path d="M374.467,512H50.2C22.04,512-1,488.96-1,460.8v-42.667c0-14.507,11.093-25.6,25.6-25.6h307.2
		c5.12,0,8.533,3.413,8.533,8.533V460.8c0,18.773,15.36,34.133,34.133,34.133c5.12,0,8.533,3.413,8.533,8.533
		C383,508.587,379.587,512,374.467,512z M24.6,409.6c-5.12,0-8.533,4.267-8.533,8.533V460.8c0,18.773,15.36,34.133,34.133,34.133
		h285.867c-8.533-9.387-12.8-21.333-12.8-34.133v-51.2H24.6z"/>
	<path id="SVGCleanerId_1" d="M374.467,512c-1.707,0-3.413,0-5.12,0c-25.6-2.56-46.08-25.6-46.08-52.907V409.6h-230.4
		c-5.12,0-8.533-3.413-8.533-8.533v-358.4C84.333,18.773,103.107,0,127,0h332.8c5.12,0,8.533,3.413,8.533,8.533
		s-3.413,8.533-8.533,8.533c-18.773,0-34.133,15.36-34.133,34.133v409.6c0,14.507-5.973,28.16-17.067,37.547
		C399.213,506.88,387.267,512,374.467,512z M101.4,392.533h230.4c5.12,0,8.533,3.413,8.533,8.533v58.027
		c0,18.773,13.653,34.133,30.72,35.84c9.387,0.853,18.773-2.56,26.453-8.533c6.827-6.827,11.093-15.36,11.093-25.6V51.2
		c0-12.8,5.12-24.747,12.8-34.133H127c-14.507,0-25.6,11.093-25.6,25.6V392.533z"/>
	<path d="M306.2,68.267H203.8c-5.12,0-8.533-3.413-8.533-8.533S198.68,51.2,203.8,51.2h102.4c5.12,0,8.533,3.413,8.533,8.533
		S311.32,68.267,306.2,68.267z"/>
	<path d="M365.933,119.467H144.067c-5.12,0-8.533-3.413-8.533-8.533s3.413-8.533,8.533-8.533h221.867
		c5.12,0,8.533,3.413,8.533,8.533S371.053,119.467,365.933,119.467z"/>
	<path d="M365.933,170.667H144.067c-5.12,0-8.533-3.413-8.533-8.533c0-5.12,3.413-8.533,8.533-8.533h221.867
		c5.12,0,8.533,3.413,8.533,8.533C374.467,167.253,371.053,170.667,365.933,170.667z"/>
	<path d="M246.467,221.867h-102.4c-5.12,0-8.533-3.413-8.533-8.533c0-5.12,3.413-8.533,8.533-8.533h102.4
		c5.12,0,8.533,3.413,8.533,8.533C255,218.453,250.733,221.867,246.467,221.867z"/>
	<path d="M214.04,273.067h-69.973c-5.12,0-8.533-3.413-8.533-8.533c0-5.12,3.413-8.533,8.533-8.533h69.973
		c5.12,0,8.533,3.413,8.533,8.533C222.573,269.653,219.16,273.067,214.04,273.067z"/>
	<path d="M219.16,324.267h-75.093c-5.12,0-8.533-3.413-8.533-8.533c0-5.12,3.413-8.533,8.533-8.533h75.093
		c5.12,0,8.533,3.413,8.533,8.533C227.693,320.853,224.28,324.267,219.16,324.267z"/>
	<g>
		<path id="SVGCleanerId_1_1_" d="M374.467,512c-1.707,0-3.413,0-5.12,0c-25.6-2.56-46.08-25.6-46.08-52.907V409.6h-230.4
			c-5.12,0-8.533-3.413-8.533-8.533v-358.4C84.333,18.773,103.107,0,127,0h332.8c5.12,0,8.533,3.413,8.533,8.533
			s-3.413,8.533-8.533,8.533c-18.773,0-34.133,15.36-34.133,34.133v409.6c0,14.507-5.973,28.16-17.067,37.547
			C399.213,506.88,387.267,512,374.467,512z M101.4,392.533h230.4c5.12,0,8.533,3.413,8.533,8.533v58.027
			c0,18.773,13.653,34.133,30.72,35.84c9.387,0.853,18.773-2.56,26.453-8.533c6.827-6.827,11.093-15.36,11.093-25.6V51.2
			c0-12.8,5.12-24.747,12.8-34.133H127c-14.507,0-25.6,11.093-25.6,25.6V392.533z"/>
	</g>
</g>
</svg>