<?xml version="1.0" ?>
<!DOCTYPE svg  PUBLIC '-//W3C//DTD SVG 1.1//EN'  'http://www.w3.org/Graphics/SVG/1.1/DTD/svg11.dtd'>
<!-- Uploaded to: SVG Repo, www.svgrepo.com, Generator: SVG Repo Mixer Tools -->
<svg width="800px" height="800px" viewBox="0 0 512 512" enable-background="new 0 0 512 512" id="Layer_1" version="1.1" xml:space="preserve" xmlns="http://www.w3.org/2000/svg" xmlns:xlink="http://www.w3.org/1999/xlink">
<g>
<g>
<circle cx="405.732" cy="386.987" fill="#65A0D6" r="53.819"/>
<path d="M405.732,450.807c-35.19,0-63.819-28.629-63.819-63.819s28.629-63.819,63.819-63.819    s63.819,28.629,63.819,63.819S440.923,450.807,405.732,450.807z M405.732,343.168c-24.162,0-43.819,19.657-43.819,43.819    s19.657,43.819,43.819,43.819s43.819-19.657,43.819-43.819S429.895,343.168,405.732,343.168z" fill="#444B54"/>
</g>
<g>
<circle cx="256" cy="391.036" fill="#3C74BA" r="53.819"/>
<path d="M256,454.855c-35.19,0-63.819-28.629-63.819-63.819S220.81,327.217,256,327.217    s63.819,28.629,63.819,63.819S291.19,454.855,256,454.855z M256,347.217c-24.162,0-43.819,19.657-43.819,43.819    s19.657,43.819,43.819,43.819s43.819-19.657,43.819-43.819S280.162,347.217,256,347.217z" fill="#444B54"/>
</g>
<g>
<circle cx="109.002" cy="386.987" fill="#D9DCE1" r="53.819"/>
<path d="M109.002,450.807c-35.19,0-63.819-28.629-63.819-63.819s28.629-63.819,63.819-63.819    s63.819,28.629,63.819,63.819S144.192,450.807,109.002,450.807z M109.002,343.168c-24.162,0-43.819,19.657-43.819,43.819    s19.657,43.819,43.819,43.819s43.819-19.657,43.819-43.819S133.164,343.168,109.002,343.168z" fill="#444B54"/>
</g>
<g>
<path d="M239.47,377.5c-2.63,0-5.21-1.07-7.07-2.931c-1.859-1.859-2.93-4.439-2.93-7.069s1.07-5.21,2.93-7.07    c1.86-1.86,4.44-2.93,7.07-2.93s5.21,1.069,7.07,2.93c1.859,1.86,2.93,4.44,2.93,7.07s-1.07,5.21-2.93,7.069    C244.68,376.43,242.1,377.5,239.47,377.5z" fill="#444B54"/>
</g>
<g>
<path d="M274.16,377.5c-2.63,0-5.2-1.07-7.07-2.931c-1.86-1.859-2.93-4.439-2.93-7.069s1.069-5.21,2.93-7.07    s4.44-2.93,7.07-2.93c2.64,0,5.21,1.069,7.069,2.93c1.87,1.86,2.94,4.44,2.94,7.07s-1.07,5.21-2.94,7.069    C279.37,376.43,276.79,377.5,274.16,377.5z" fill="#444B54"/>
</g>
<g>
<path d="M275.14,423.671h-35.671c-5.522,0-10-4.478-10-10c0-15.35,12.485-27.837,27.833-27.837    c15.35,0,27.838,12.487,27.838,27.837C285.14,419.193,280.662,423.671,275.14,423.671z" fill="#444B54"/>
</g>
<g>
<path d="M89.39,373.45c-2.63,0-5.21-1.07-7.07-2.931c-1.859-1.859-2.93-4.439-2.93-7.069    c0-2.631,1.07-5.21,2.93-7.07c1.86-1.86,4.431-2.93,7.07-2.93c2.63,0,5.21,1.069,7.07,2.93c1.859,1.86,2.93,4.439,2.93,7.07    c0,2.63-1.07,5.21-2.93,7.069C94.6,372.38,92.02,373.45,89.39,373.45z" fill="#444B54"/>
</g>
<g>
<path d="M124.08,373.45c-2.63,0-5.2-1.07-7.07-2.931c-1.86-1.859-2.93-4.439-2.93-7.069    c0-2.631,1.069-5.21,2.93-7.07s4.44-2.93,7.07-2.93c2.64,0,5.22,1.069,7.069,2.93c1.87,1.86,2.931,4.439,2.931,7.07    c0,2.63-1.061,5.21-2.931,7.069C129.29,372.38,126.72,373.45,124.08,373.45z" fill="#444B54"/>
</g>
<g>
<path d="M109.005,423.786c-14.816,0-26.871-12.053-26.871-26.867c0-5.522,4.478-10,10-10h33.737    c5.522,0,10,4.478,10,10C135.871,411.733,123.819,423.786,109.005,423.786z" fill="#444B54"/>
</g>
<g>
<path d="M384.229,380.16c-2.63,0-5.21-1.07-7.08-2.931c-1.859-1.87-2.92-4.439-2.92-7.08    c0-2.63,1.061-5.199,2.92-7.069c1.87-1.86,4.44-2.92,7.08-2.92c2.63,0,5.21,1.06,7.07,2.92c1.86,1.87,2.93,4.439,2.93,7.069    c0,2.641-1.069,5.21-2.93,7.08C389.43,379.09,386.859,380.16,384.229,380.16z" fill="#444B54"/>
</g>
<g>
<path d="M426.229,380.16c-2.63,0-5.21-1.07-7.08-2.931c-1.859-1.859-2.92-4.439-2.92-7.08    c0-2.63,1.061-5.21,2.92-7.069c1.87-1.86,4.44-2.92,7.08-2.92c2.63,0,5.21,1.06,7.061,2.92c1.87,1.87,2.93,4.439,2.93,7.069    c0,2.641-1.06,5.21-2.93,7.08C431.43,379.09,428.859,380.16,426.229,380.16z" fill="#444B54"/>
</g>
<g>
<path d="M432.108,416.323h-52.753c-5.522,0-10-4.478-10-10v-8.582c0-5.522,4.478-10,10-10h52.753    c5.522,0,10,4.478,10,10v8.582C442.108,411.846,437.631,416.323,432.108,416.323z" fill="#444B54"/>
</g>
<g>
<path d="M467.826,309.813H44.174c-5.522,0-10-4.478-10-10s4.478-10,10-10h423.652c5.522,0,10,4.478,10,10    S473.349,309.813,467.826,309.813z" fill="#444B54"/>
</g>
<g>
<path d="M157.392,309.813H78.261c-5.522,0-10-4.478-10-10V67.145c0-5.522,4.478-10,10-10h79.131    c5.522,0,10,4.478,10,10v232.668C167.392,305.335,162.914,309.813,157.392,309.813z M88.261,289.813h59.131V77.145H88.261V289.813    z" fill="#444B54"/>
</g>
<g>
<path d="M298.609,309.813h-79.131c-5.522,0-10-4.478-10-10V139.225c0-5.522,4.478-10,10-10h79.131    c5.522,0,10,4.478,10,10v160.588C308.609,305.335,304.132,309.813,298.609,309.813z M229.479,289.813h59.131V149.225h-59.131    V289.813z" fill="#444B54"/>
</g>
<g>
<path d="M439.826,309.813h-79.131c-5.522,0-10-4.478-10-10v-80.294c0-5.522,4.478-10,10-10h79.131    c5.522,0,10,4.478,10,10v80.294C449.826,305.335,445.349,309.813,439.826,309.813z M370.695,289.813h59.131v-60.294h-59.131    V289.813z" fill="#444B54"/>
</g>
<g>
<path d="M109.002,450.807c-35.19,0-63.819-28.629-63.819-63.819s28.629-63.819,63.819-63.819    s63.819,28.629,63.819,63.819S144.192,450.807,109.002,450.807z M109.002,343.168c-24.162,0-43.819,19.657-43.819,43.819    s19.657,43.819,43.819,43.819s43.819-19.657,43.819-43.819S133.164,343.168,109.002,343.168z" fill="#444B54"/>
</g>
<g>
<path d="M256,454.855c-35.19,0-63.819-28.629-63.819-63.819S220.81,327.217,256,327.217    s63.819,28.629,63.819,63.819S291.19,454.855,256,454.855z M256,347.217c-24.162,0-43.819,19.657-43.819,43.819    s19.657,43.819,43.819,43.819s43.819-19.657,43.819-43.819S280.162,347.217,256,347.217z" fill="#444B54"/>
</g>
<g>
<path d="M405.732,450.807c-35.19,0-63.819-28.629-63.819-63.819s28.629-63.819,63.819-63.819    s63.819,28.629,63.819,63.819S440.923,450.807,405.732,450.807z M405.732,343.168c-24.162,0-43.819,19.657-43.819,43.819    s19.657,43.819,43.819,43.819s43.819-19.657,43.819-43.819S429.895,343.168,405.732,343.168z" fill="#444B54"/>
</g>
<g>
<path d="M239.47,377.5c-2.63,0-5.21-1.07-7.07-2.931c-1.859-1.859-2.93-4.439-2.93-7.069s1.07-5.21,2.93-7.07    c1.86-1.86,4.44-2.93,7.07-2.93s5.21,1.069,7.07,2.93c1.859,1.86,2.93,4.44,2.93,7.07s-1.07,5.21-2.93,7.069    C244.68,376.43,242.1,377.5,239.47,377.5z" fill="#444B54"/>
</g>
<g>
<path d="M274.16,377.5c-2.63,0-5.2-1.07-7.07-2.931c-1.86-1.859-2.93-4.439-2.93-7.069s1.069-5.21,2.93-7.07    s4.44-2.93,7.07-2.93c2.64,0,5.21,1.069,7.069,2.93c1.87,1.86,2.94,4.44,2.94,7.07s-1.07,5.21-2.94,7.069    C279.37,376.43,276.79,377.5,274.16,377.5z" fill="#444B54"/>
</g>
<g>
<path d="M275.14,423.671h-35.671c-5.522,0-10-4.478-10-10c0-15.35,12.485-27.837,27.833-27.837    c15.35,0,27.838,12.487,27.838,27.837C285.14,419.193,280.662,423.671,275.14,423.671z" fill="#444B54"/>
</g>
<g>
<path d="M89.39,373.45c-2.63,0-5.21-1.07-7.07-2.931c-1.859-1.859-2.93-4.439-2.93-7.069    c0-2.631,1.07-5.21,2.93-7.07c1.86-1.86,4.431-2.93,7.07-2.93c2.63,0,5.21,1.069,7.07,2.93c1.859,1.86,2.93,4.439,2.93,7.07    c0,2.63-1.07,5.21-2.93,7.069C94.6,372.38,92.02,373.45,89.39,373.45z" fill="#444B54"/>
</g>
<g>
<path d="M124.08,373.45c-2.63,0-5.2-1.07-7.07-2.931c-1.86-1.859-2.93-4.439-2.93-7.069    c0-2.631,1.069-5.21,2.93-7.07s4.44-2.93,7.07-2.93c2.64,0,5.22,1.069,7.069,2.93c1.87,1.86,2.931,4.439,2.931,7.07    c0,2.63-1.061,5.21-2.931,7.069C129.29,372.38,126.72,373.45,124.08,373.45z" fill="#444B54"/>
</g>
<g>
<path d="M109.005,423.786c-14.816,0-26.871-12.053-26.871-26.867c0-5.522,4.478-10,10-10h33.737    c5.522,0,10,4.478,10,10C135.871,411.733,123.819,423.786,109.005,423.786z" fill="#444B54"/>
</g>
<g>
<path d="M384.229,380.16c-2.63,0-5.21-1.07-7.08-2.931c-1.859-1.87-2.92-4.439-2.92-7.08    c0-2.63,1.061-5.199,2.92-7.069c1.87-1.86,4.44-2.92,7.08-2.92c2.63,0,5.21,1.06,7.07,2.92c1.86,1.87,2.93,4.439,2.93,7.069    c0,2.641-1.069,5.21-2.93,7.08C389.43,379.09,386.859,380.16,384.229,380.16z" fill="#444B54"/>
</g>
<g>
<path d="M426.229,380.16c-2.63,0-5.21-1.07-7.08-2.931c-1.859-1.859-2.92-4.439-2.92-7.08    c0-2.63,1.061-5.21,2.92-7.069c1.87-1.86,4.44-2.92,7.08-2.92c2.63,0,5.21,1.06,7.061,2.92c1.87,1.87,2.93,4.439,2.93,7.069    c0,2.641-1.06,5.21-2.93,7.08C431.43,379.09,428.859,380.16,426.229,380.16z" fill="#444B54"/>
</g>
<g>
<path d="M432.108,416.323h-52.753c-5.522,0-10-4.478-10-10v-8.582c0-5.522,4.478-10,10-10h52.753    c5.522,0,10,4.478,10,10v8.582C442.108,411.846,437.631,416.323,432.108,416.323z" fill="#444B54"/>
</g>
<g>
<path d="M467.826,309.813H44.174c-5.522,0-10-4.478-10-10s4.478-10,10-10h423.652c5.522,0,10,4.478,10,10    S473.349,309.813,467.826,309.813z" fill="#444B54"/>
</g>
<g>
<rect fill="#3C74BA" height="232.668" width="79.131" x="78.261" y="67.145"/>
<path d="M157.392,309.813H78.261c-5.522,0-10-4.478-10-10V67.145c0-5.522,4.478-10,10-10h79.131    c5.522,0,10,4.478,10,10v232.668C167.392,305.335,162.914,309.813,157.392,309.813z M88.261,289.813h59.131V77.145H88.261V289.813    z" fill="#444B54"/>
</g>
<g>
<rect fill="#65A0D6" height="160.588" width="79.131" x="219.479" y="139.225"/>
<path d="M298.609,309.813h-79.131c-5.522,0-10-4.478-10-10V139.225c0-5.522,4.478-10,10-10h79.131    c5.522,0,10,4.478,10,10v160.588C308.609,305.335,304.132,309.813,298.609,309.813z M229.479,289.813h59.131V149.225h-59.131    V289.813z" fill="#444B54"/>
</g>
<g>
<rect fill="#D9DCE1" height="80.294" width="79.131" x="360.695" y="219.519"/>
<path d="M439.826,309.813h-79.131c-5.522,0-10-4.478-10-10v-80.294c0-5.522,4.478-10,10-10h79.131    c5.522,0,10,4.478,10,10v80.294C449.826,305.335,445.349,309.813,439.826,309.813z M370.695,289.813h59.131v-60.294h-59.131    V289.813z" fill="#444B54"/>
</g>
</g>
</svg>