<?xml version="1.0" encoding="utf-8"?>
<!-- Uploaded to: SVG Repo, www.svgrepo.com, Generator: SVG Repo Mixer Tools -->
<svg width="800px" height="800px" viewBox="0 0 1024 1024" class="icon"  version="1.1" xmlns="http://www.w3.org/2000/svg"><path d="M819.958085 578.973363c-36.929496-40.94415-86.742541-63.529013-140.226215-63.529013-32.697778 0-64.082935 8.520774-92.00224 24.525125 0 0 168.905243-304.626362 179.779929-324.373014 53.487769-96.783784-88.955157-170.497384-139.669221-77.246004-8.243301 15.242581-38.103892 68.726255-89.821364 162.115859-1.525589-51.81986-20.506375-100.593662-54.80039-137.867183-36.858848-40.114803-86.220359-62.21332-138.838851-62.21332-53.55125 0-103.381701 22.517286-140.308125 63.529013-34.851009 38.65679-54.040667 89.509079-54.040667 143.201625 0 113.966628 87.157214 206.664086 194.348792 206.664086 31.661606 0 61.486362-8.314973 88.058234-22.723087-90.342522 163.083431-167.592622 302.962548-177.981986 321.180539-53.086406 93.045579 89.923753 163.434623 139.669221 77.179452 12.365463-21.474971 91.449342-164.957141 91.449342-164.957141 1.10682 112.859808 87.741853 204.379797 194.157326 204.379798 107.177244 0 194.330363-92.697458 194.330363-206.664086 0-53.69357-19.189659-104.544835-54.104148-143.202649z" fill="#27323A" /><path d="M344.380757 460.573312c-77.799926 0-141.141568-68.864479-141.141568-153.456861 0-40.529477 14.341562-78.700945 40.391252-107.591918 26.688595-29.650695 62.508199-45.93252 100.749292-45.932519 77.70061 0 141.056586 68.864479 141.056586 153.524437 0 84.592382-63.355976 153.456861-141.055562 153.456861z" fill="#F4CE73" /><path d="M347.498488 863.785496c-7.065833 12.886621-23.275985 17.526869-36.16363 10.389364-12.815973-7.133409-17.459293-23.347657-10.321787-36.163629l373.455005-673.959205c7.065833-12.886621 23.275985-17.526869 36.163629-10.39346 12.819044 7.068904 17.459293 23.347657 10.321788 36.166702L347.498488 863.785496z" fill="#FFFFFF" /><path d="M679.73187 875.632873c-77.799926 0-141.088326-68.864479-141.088326-153.456861 0-84.659958 63.2884-153.524437 141.088326-153.524437 38.245189 0 73.993121 16.277729 100.735982 45.93252 26.046619 28.887901 40.388181 67.062441 40.38818 107.591917-0.001024 84.592382-63.321164 153.456861-141.124162 153.456861z" fill="#79CCBF" /><path d="M679.317196 621.926376c-48.011007 0-87.086566 44.893276-87.086566 100.040764 0 55.218136 39.07556 100.111412 87.086566 100.111411 48.081655 0 87.153119-44.893276 87.153119-100.111411 0-55.147487-39.071464-100.040763-87.153119-100.040764z" fill="#27323A" /><path d="M679.317196 786.606044c-28.473227 0-51.615083-29.030221-51.615083-64.639928 0-35.609708 23.141856-64.56928 51.615083-64.56928s51.681636 28.958549 51.681636 64.56928-23.209433 64.639928-51.681636 64.639928z" fill="#FFFFFF" /><path d="M341.471899 205.068872c-48.081655 0-87.153119 44.893276-87.153119 100.040764 0 55.215064 39.071464 100.107316 87.153119 100.107316 48.011007 0 87.05073-44.893276 87.05073-100.107316 0-55.148511-39.039724-100.040763-87.05073-100.040764z" fill="#27323A" /><path d="M341.471899 369.745469c-28.473227 0-51.681636-28.958549-51.681636-64.635833 0-35.609708 23.209433-64.56928 51.681636-64.569281 28.405651 0 51.615083 28.959573 51.615083 64.569281-0.001024 35.67626-23.209433 64.635833-51.615083 64.635833z" fill="#FFFFFF" /></svg>