<?xml version="1.0" encoding="iso-8859-1"?>
<!-- Uploaded to: SVG Repo, www.svgrepo.com, Generator: SVG Repo Mixer Tools -->
<svg version="1.1" id="Layer_1" xmlns="http://www.w3.org/2000/svg" xmlns:xlink="http://www.w3.org/1999/xlink" 
	 viewBox="0 0 512 512" xml:space="preserve">
<g>
	<path style="fill:#88C5CC;" d="M274.156,511.288c-1.716,0.12-3.416,0.296-5.14,0.384
		C270.74,511.584,272.44,511.408,274.156,511.288z"/>
	<path style="fill:#88C5CC;" d="M288.276,509.904c-2.144,0.272-4.272,0.584-6.428,0.8
		C284.004,510.488,286.132,510.172,288.276,509.904z"/>
	<path style="fill:#88C5CC;" d="M314.812,505.132c-2.644,0.624-5.284,1.26-7.96,1.8
		C309.528,506.392,312.168,505.756,314.812,505.132z"/>
	<path style="fill:#88C5CC;" d="M301.776,507.84c-2.432,0.44-4.856,0.908-7.312,1.28C296.92,508.748,299.344,508.276,301.776,507.84
		z"/>
	<path style="fill:#88C5CC;" d="M242.984,511.672c-1.728-0.088-3.428-0.264-5.144-0.384
		C239.556,511.408,241.26,511.584,242.984,511.672z"/>
	<path style="fill:#88C5CC;" d="M192.996,504.164c-2.88-0.732-5.724-1.552-8.568-2.38
		C187.272,502.612,190.112,503.436,192.996,504.164z"/>
	<path style="fill:#88C5CC;" d="M327.52,501.8c-2.824,0.82-5.648,1.64-8.508,2.364C321.872,503.44,324.696,502.62,327.52,501.8z"/>
	<path style="fill:#88C5CC;" d="M205.152,506.932c-2.692-0.544-5.348-1.184-8.008-1.808
		C199.804,505.748,202.46,506.388,205.152,506.932z"/>
	<path style="fill:#88C5CC;" d="M230.156,510.704c-2.164-0.216-4.3-0.532-6.448-0.804
		C225.856,510.172,227.988,510.488,230.156,510.704z"/>
	<path style="fill:#88C5CC;" d="M217.54,509.116c-2.468-0.372-4.9-0.844-7.344-1.284
		C212.636,508.276,215.072,508.744,217.54,509.116z"/>
	<path style="fill:#88C5CC;" d="M425.228,448L425.228,448c-6.06,5.344-12.372,10.412-18.916,15.176
		c9.74-7.076,18.948-14.824,27.584-23.176l0,0C431.064,442.736,428.172,445.4,425.228,448z"/>
	<path style="fill:#88C5CC;" d="M181.096,500.84c-3.04-0.932-6.04-1.948-9.032-2.988
		C175.056,498.888,178.056,499.908,181.096,500.84z"/>
	<path style="fill:#88C5CC;" d="M339.872,497.868c-2.968,1.032-5.944,2.044-8.96,2.964
		C333.928,499.912,336.904,498.9,339.872,497.868z"/>
	<path style="fill:#88C5CC;" d="M406.26,463.212c-3.212,2.336-6.484,4.596-9.804,6.784
		C399.776,467.812,403.044,465.548,406.26,463.212z"/>
	<path style="fill:#88C5CC;" d="M160,100v-4h-8c-2.2,0-4-1.8-4-4v-8c0-2.2,1.8-4,4-4h200c2.2,0,4,1.8,4,4v8c0,2.2-1.8,4-4,4h-8v4v84
		h157.664C470.552,77.68,372.376,0,256,0S41.448,77.68,10.336,184H160V100z"/>
	<path style="fill:#88C5CC;" d="M396.184,470.168c-3.252,2.136-6.556,4.2-9.908,6.188
		C389.632,474.368,392.932,472.304,396.184,470.168z"/>
	<path style="fill:#88C5CC;" d="M385.7,476.688c-3.26,1.92-6.56,3.776-9.908,5.556C379.144,480.468,382.44,478.608,385.7,476.688z"
		/>
	<path style="fill:#88C5CC;" d="M363.54,488.316c-3.176,1.476-6.376,2.904-9.624,4.252
		C357.164,491.22,360.36,489.788,363.54,488.316z"/>
	<path style="fill:#88C5CC;" d="M351.9,493.36c-3.092,1.252-6.196,2.472-9.348,3.604C345.704,495.832,348.808,494.608,351.9,493.36z
		"/>
	<path style="fill:#88C5CC;" d="M374.804,482.752c-3.232,1.7-6.496,3.34-9.804,4.904
		C368.312,486.092,371.576,484.448,374.804,482.752z"/>
	<path style="fill:#88C5CC;" d="M78.108,440c11.504,11.124,24.036,21.184,37.464,30.012C102.152,461.18,89.612,451.124,78.108,440
		L78.108,440z"/>
	<path style="fill:#88C5CC;" d="M136.232,482.256c-3.384-1.796-6.716-3.672-10.008-5.612
		C129.516,478.584,132.848,480.46,136.232,482.256z"/>
	<path style="fill:#88C5CC;" d="M125.748,476.372c-3.384-2.008-6.716-4.088-9.996-6.244
		C119.032,472.28,122.364,474.368,125.748,476.372z"/>
	<path style="fill:#88C5CC;" d="M169.46,496.968c-3.176-1.144-6.312-2.372-9.432-3.636
		C163.144,494.592,166.28,495.824,169.46,496.968z"/>
	<path style="fill:#88C5CC;" d="M147.016,487.66c-3.344-1.576-6.64-3.236-9.904-4.952
		C140.376,484.424,143.672,486.084,147.016,487.66z"/>
	<path style="fill:#88C5CC;" d="M158.1,492.572c-3.276-1.36-6.508-2.8-9.712-4.288C151.596,489.768,154.824,491.212,158.1,492.572z"
		/>
</g>
<path style="fill:#242424;" d="M125.748,476.372c0.156,0.092,0.32,0.18,0.476,0.272c3.292,1.94,6.624,3.816,10.008,5.612
	c0.292,0.156,0.592,0.3,0.884,0.452c3.26,1.716,6.56,3.372,9.904,4.952c0.452,0.216,0.916,0.408,1.372,0.62
	c3.204,1.488,6.436,2.932,9.712,4.288c0.636,0.264,1.288,0.5,1.928,0.76c3.12,1.264,6.252,2.492,9.432,3.636
	c0.86,0.308,1.74,0.58,2.604,0.88c2.992,1.04,5.992,2.06,9.032,2.988c1.1,0.336,2.224,0.624,3.332,0.944
	c2.84,0.828,5.684,1.652,8.568,2.38c1.372,0.348,2.768,0.632,4.148,0.956c2.66,0.628,5.316,1.264,8.008,1.808
	c1.668,0.336,3.364,0.596,5.044,0.9c2.444,0.444,4.876,0.912,7.344,1.284c2.04,0.308,4.112,0.524,6.168,0.784
	c2.148,0.272,4.284,0.584,6.448,0.804c2.544,0.256,5.12,0.404,7.684,0.584c1.716,0.12,3.416,0.296,5.144,0.384
	c4.308,0.228,8.648,0.34,13.012,0.34c4.364,0,8.704-0.112,13.016-0.328c1.724-0.088,3.424-0.264,5.14-0.384
	c2.568-0.18,5.144-0.328,7.692-0.584c2.16-0.216,4.288-0.532,6.428-0.8c2.064-0.26,4.14-0.476,6.188-0.788
	c2.456-0.372,4.88-0.84,7.312-1.28c1.692-0.308,3.4-0.568,5.08-0.908c2.676-0.54,5.316-1.176,7.96-1.8
	c1.396-0.328,2.808-0.616,4.196-0.968c2.86-0.724,5.688-1.544,8.508-2.364c1.128-0.328,2.272-0.62,3.392-0.964
	c3.016-0.924,5.992-1.936,8.96-2.964c0.892-0.308,1.796-0.588,2.68-0.908c3.148-1.132,6.256-2.352,9.348-3.604
	c0.668-0.272,1.352-0.52,2.016-0.796c3.244-1.348,6.448-2.776,9.624-4.252c0.484-0.224,0.98-0.432,1.464-0.66
	c3.308-1.564,6.576-3.204,9.804-4.904c0.328-0.172,0.66-0.332,0.988-0.504c3.348-1.78,6.648-3.636,9.908-5.556
	c0.192-0.112,0.388-0.22,0.576-0.332c3.352-1.988,6.656-4.052,9.908-6.188c0.088-0.06,0.18-0.112,0.268-0.172
	c3.324-2.188,6.592-4.448,9.804-6.784c0.016-0.012,0.036-0.024,0.052-0.036c6.548-4.76,12.856-9.828,18.916-15.176H86.776
	c-2.948-2.6-5.84-5.264-8.668-8c11.504,11.124,24.044,21.18,37.464,30.012c0.06,0.04,0.12,0.076,0.18,0.116
	C119.032,472.28,122.364,474.364,125.748,476.372z"/>
<path style="fill:#333333;" d="M433.892,440H400h-4h-44h-8h-8h-4h-52h-4h-48h-4h-44h-20h-44h-4H78.108c2.828,2.736,5.72,5.4,8.668,8
	h338.448h0.004C428.172,445.4,431.064,442.736,433.892,440z"/>
<path style="fill:#E6E6E6;" d="M56,368c-2.2,0-4-1.8-4-4s1.8-4,4-4h64c2.2,0,4,1.8,4,4s-1.8,4-4,4h-4v72h44V204H5.296
	C1.828,220.792,0,238.18,0,256c0,62.704,22.576,120.108,60,164.62V368H56z M104,216h48v64h-48V216z M104,288h48v64h-48V288z M24,216
	h48v64H24V216z M24,288h48v64H24V288z"/>
<path style="fill:#E78244;" d="M160,184H10.336c-1.54,5.264-2.912,10.6-4.12,16H160V184z"/>
<path style="fill:#BFBFBF;" d="M160,200H6.22c-0.3,1.336-0.644,2.656-0.924,4H160V200z"/>
<path style="fill:#A4BECC;" d="M72,288H24v64h48V288z M68,348H28v-56h40V348z"/>
<rect x="28" y="292" style="fill:#C2E2F2;" width="40" height="56"/>
<path style="fill:#A4BECC;" d="M152,288h-48v64h48V288z M148,348h-40v-56h40V348z"/>
<rect x="108" y="292" style="fill:#C2E2F2;" width="40" height="56"/>
<path style="fill:#A4BECC;" d="M72,216H24v64h48V216z M68,276H28v-56h40V276z"/>
<rect x="28" y="220" style="fill:#C2E2F2;" width="40" height="56"/>
<path style="fill:#A4BECC;" d="M152,216h-48v64h48V216z M148,276h-40v-56h40V276z"/>
<rect x="108" y="220" style="fill:#C2E2F2;" width="40" height="56"/>
<path style="fill:#A4BECC;" d="M112,372v68h4v-72H60v52.62c1.312,1.56,2.652,3.092,4,4.616V372H112z"/>
<path style="fill:#C2E2F2;" d="M112,440v-68H64v53.236c4.504,5.108,9.212,10.028,14.108,14.764l0,0H112z"/>
<path style="fill:#E78244;" d="M124,364c0-2.2-1.8-4-4-4H56c-2.2,0-4,1.8-4,4s1.8,4,4,4h4h56h4C122.2,368,124,366.2,124,364z"/>
<path style="fill:#E6E6E6;" d="M352,440h44v-72h-4c-2.2,0-4-1.8-4-4s1.8-4,4-4h64c2.2,0,4,1.8,4,4s-1.8,4-4,4h-4v52.62
	c37.424-44.512,60-101.916,60-164.62c0-17.82-1.828-35.208-5.296-52H352V440z M440,216h48v64h-48V216z M440,288h48v64h-48V288z
	 M360,216h48v64h-48V216z M408,288v64h-48v-64H408z"/>
<path style="fill:#E78244;" d="M344,200h8h153.78c-1.204-5.4-2.58-10.736-4.12-16H344V200z"/>
<path style="fill:#BFBFBF;" d="M344,200v240h8V204h154.704c-0.276-1.344-0.624-2.664-0.924-4H352H344z"/>
<path style="fill:#A4BECC;" d="M408,352v-64h-48v64H408z M364,292h40v56h-40V292z"/>
<rect x="364" y="292" style="fill:#C2E2F2;" width="40" height="56"/>
<path style="fill:#A4BECC;" d="M488,288h-48v64h48V288z M484,348h-40v-56h40V348z"/>
<rect x="444" y="292" style="fill:#C2E2F2;" width="40" height="56"/>
<path style="fill:#A4BECC;" d="M408,216h-48v64h48V216z M404,276h-40v-56h40V276z"/>
<rect x="364" y="220" style="fill:#C2E2F2;" width="40" height="56"/>
<path style="fill:#A4BECC;" d="M488,216h-48v64h48V216z M484,276h-40v-56h40V276z"/>
<rect x="444" y="220" style="fill:#C2E2F2;" width="40" height="56"/>
<path style="fill:#A4BECC;" d="M396,368v72h4v-68h48v53.236c1.348-1.528,2.688-3.06,4-4.616V368H396z"/>
<path style="fill:#C2E2F2;" d="M400,372v68h33.892l0,0c4.896-4.732,9.6-9.656,14.108-14.764V372H400z"/>
<path style="fill:#E78244;" d="M456,368c2.2,0,4-1.8,4-4s-1.8-4-4-4h-64c-2.2,0-4,1.8-4,4s1.8,4,4,4h4h56H456z"/>
<path style="fill:#F5F5F5;" d="M224,440v-72h-4c-2.2,0-4-1.8-4-4s1.8-4,4-4h64c2.2,0,4,1.8,4,4s-1.8,4-4,4h-4v72h52h4V100H160v84v16
	v4v236h20H224z M236,352h-48v-64h48V352z M236,280h-48v-64h48V280z M316,352h-48v-64h48V352z M316,280h-48v-64h48V280z M268,116h48
	v64h-48V116z M188,116h48v64h-48V116z M168,192h160v8h-4H188h-8h-12V192z"/>
<polygon style="fill:#E6E6E6;" points="336,440 344,440 344,200 344,184 344,100 344,96 336,96 160,96 160,100 336,100 "/>
<path style="fill:#A4BECC;" d="M236,116h-48v64h48V116z M232,176h-40v-56h40V176z"/>
<rect x="192" y="120" style="fill:#C2E2F2;" width="40" height="56"/>
<path style="fill:#A4BECC;" d="M316,116h-48v64h48V116z M312,176h-40v-56h40V176z"/>
<rect x="272" y="120" style="fill:#C2E2F2;" width="40" height="56"/>
<path style="fill:#A4BECC;" d="M188,352h48v-64h-48V352z M192,292h40v56h-40V292z"/>
<rect x="192" y="292" style="fill:#C2E2F2;" width="40" height="56"/>
<path style="fill:#A4BECC;" d="M268,352h48v-64h-48V352z M272,292h40v56h-40V292z"/>
<rect x="272" y="292" style="fill:#C2E2F2;" width="40" height="56"/>
<path style="fill:#A4BECC;" d="M188,280h48v-64h-48V280z M192,220h40v56h-40V220z"/>
<rect x="192" y="220" style="fill:#C2E2F2;" width="40" height="56"/>
<path style="fill:#A4BECC;" d="M268,280h48v-64h-48V280z M272,220h40v56h-40V220z"/>
<rect x="272" y="220" style="fill:#C2E2F2;" width="40" height="56"/>
<polygon style="fill:#A4BECC;" points="224,368 224,440 228,440 228,372 276,372 276,440 280,440 280,368 "/>
<rect x="228" y="372" style="fill:#C2E2F2;" width="48" height="68"/>
<g>
	<path style="fill:#E78244;" d="M344,96h8c2.2,0,4-1.8,4-4v-8c0-2.2-1.8-4-4-4H152c-2.2,0-4,1.8-4,4v8c0,2.2,1.8,4,4,4h8h176H344z"
		/>
	<path style="fill:#E78244;" d="M284,368c2.2,0,4-1.8,4-4s-1.8-4-4-4h-64c-2.2,0-4,1.8-4,4s1.8,4,4,4h4h56H284z"/>
</g>
<polygon style="fill:#E6E6E6;" points="188,200 324,200 328,200 328,192 168,192 168,200 180,200 "/>
</svg>