<?xml version="1.0" encoding="iso-8859-1"?>
<!-- Uploaded to: SVG Repo, www.svgrepo.com, Generator: SVG Repo Mixer Tools -->
<svg version="1.1" id="Layer_1" xmlns="http://www.w3.org/2000/svg" xmlns:xlink="http://www.w3.org/1999/xlink" 
	 viewBox="0 0 512 512" xml:space="preserve">
<circle style="fill:#324A5E;" cx="256" cy="256" r="256"/>
<path style="fill:#2B3B4E;" d="M512,256c0-10.24-0.619-20.332-1.788-30.258L398.224,113.754L220.375,272.089l-83.54,76.967
	l159.396,159.787C418.501,489.543,512,383.695,512,256z"/>
<rect x="238.244" y="113.754" style="fill:#FFD15D;" width="159.978" height="256.414"/>
<rect x="238.244" y="337.73" style="fill:#F9B54C;" width="159.978" height="31.997"/>
<rect x="238.244" y="305.735" style="fill:#FFD15D;" width="159.978" height="31.997"/>
<rect x="238.244" y="273.739" style="fill:#F9B54C;" width="159.978" height="31.997"/>
<rect x="238.244" y="241.743" style="fill:#FFD15D;" width="159.978" height="31.997"/>
<rect x="238.244" y="209.748" style="fill:#F9B54C;" width="159.978" height="31.997"/>
<rect x="238.244" y="177.752" style="fill:#FFD15D;" width="159.978" height="31.997"/>
<rect x="238.244" y="145.756" style="fill:#F9B54C;" width="159.978" height="31.997"/>
<g>
	<rect x="318.061" y="337.73" style="fill:#F4A200;" width="80.162" height="31.997"/>
	<rect x="318.061" y="273.739" style="fill:#F4A200;" width="80.162" height="31.997"/>
	<rect x="318.061" y="209.748" style="fill:#F4A200;" width="80.162" height="31.997"/>
	<rect x="318.061" y="145.756" style="fill:#F4A200;" width="80.162" height="31.997"/>
</g>
<rect x="238.244" y="113.754" style="fill:#FFD15D;" width="159.978" height="31.997"/>
<g>
	<rect x="318.061" y="305.735" style="fill:#F9B54C;" width="80.162" height="31.997"/>
	<rect x="318.061" y="241.743" style="fill:#F9B54C;" width="80.162" height="31.997"/>
	<rect x="318.061" y="177.752" style="fill:#F9B54C;" width="80.162" height="31.997"/>
	<rect x="318.061" y="113.754" style="fill:#F9B54C;" width="80.162" height="31.997"/>
</g>
<circle style="fill:#FFFFFF;" cx="192.905" cy="292.409" r="71.992"/>
<path style="fill:#E6F3FF;" d="M192.91,220.415c-0.233,0-0.462,0.016-0.695,0.017V364.38c0.233,0.002,0.462,0.017,0.695,0.017
	c39.76,0,71.992-32.232,71.992-71.99C264.902,252.647,232.67,220.415,192.91,220.415z"/>
<path style="fill:#FD8469;" d="M192.912,372.155c-43.973,0-79.75-35.776-79.75-79.75s35.776-79.75,79.75-79.75
	s79.748,35.776,79.748,79.75S236.885,372.155,192.912,372.155z M192.912,228.171c-35.419,0-64.234,28.815-64.234,64.234
	s28.815,64.234,64.234,64.234c35.418,0,64.233-28.815,64.233-64.234S228.33,228.171,192.912,228.171z"/>
<path style="fill:#FC6F58;" d="M192.912,212.656c-0.233,0-0.462,0.016-0.695,0.017v15.515c0.233-0.002,0.462-0.017,0.695-0.017
	c35.418,0,64.233,28.815,64.233,64.234s-28.815,64.234-64.233,64.234c-0.233,0-0.462-0.016-0.695-0.017v15.515
	c0.233,0.002,0.462,0.017,0.695,0.017c43.973,0,79.748-35.776,79.748-79.75S236.885,212.656,192.912,212.656z"/>
<polygon style="fill:#324A5E;" points="200.67,300.163 169.35,300.163 169.35,284.648 185.154,284.648 185.154,249.211 
	200.67,249.211 "/>
<rect x="192.215" y="249.208" style="fill:#2B3B4E;" width="8.452" height="50.953"/>
</svg>