<?xml version="1.0" ?>
<!-- Uploaded to: SVG Repo, www.svgrepo.com, Generator: SVG Repo Mixer Tools -->
<svg width="800px" height="800px" viewBox="0 0 24 24" xmlns="http://www.w3.org/2000/svg">
<defs>
<style>.cls-1{fill:#f7bf75;}.cls-2,.cls-4{fill:#ffeabb;}.cls-3{fill:#f1734d;}.cls-4{fill-rule:evenodd;}</style>
</defs>
<g id="Cart">
<path class="cls-1" d="M12,8.12A3.95,3.95,0,1,1,8,12.06,3.93,3.93,0,0,1,12,8.12"/>
<path class="cls-1" d="M15.33,17.61l1.19,2.05A8.87,8.87,0,0,0,20.87,12H18.44v.06a6.5,6.5,0,0,1-3.11,5.55"/>
<path class="cls-2" d="M12,3.11a8.89,8.89,0,1,0,4.54,16.55l-1.19-2.05A6.49,6.49,0,1,1,12,5.57H12V3.11Z"/>
<path class="cls-3" d="M12,3.11V5.57A6.49,6.49,0,0,1,18.44,12h2.43A8.89,8.89,0,0,0,12,3.11"/>
<path class="cls-3" d="M12,9a3.12,3.12,0,1,1-3.11,3.11A3.11,3.11,0,0,1,12,9"/>
<path class="cls-4" d="M11.46,10.18v-.1a.5.5,0,0,1,.5-.5.5.5,0,0,1,.5.5v.1a1.51,1.51,0,0,1,.37.25,1.4,1.4,0,0,1,.26.39.5.5,0,0,1-.92.4.22.22,0,0,0-.05-.08.23.23,0,0,0-.16-.06.23.23,0,1,0,0,.45,1.23,1.23,0,0,1,.5,2.35V14a.5.5,0,0,1-.5.5.5.5,0,0,1-.5-.5v-.11a1.05,1.05,0,0,1-.37-.25,1.36,1.36,0,0,1-.27-.39.5.5,0,0,1,.93-.39.16.16,0,0,0,0,.07A.24.24,0,0,0,12,13h0a.23.23,0,0,0,0-.46,1.23,1.23,0,0,1-.5-2.35Z"/>
</g>
</svg>