<?xml version="1.0" encoding="utf-8"?>
<!-- Uploaded to: SVG Repo, www.svgrepo.com, Generator: SVG Repo Mixer Tools -->
<svg width="800px" height="800px" viewBox="0 0 1024 1024" class="icon"  version="1.1" xmlns="http://www.w3.org/2000/svg"><path d="M213.333333 256c-59.733333 0-106.666667-46.933333-106.666666-106.666667s46.933333-106.666667 106.666666-106.666666 106.666667 46.933333 106.666667 106.666666-46.933333 106.666667-106.666667 106.666667z" fill="#FFB74D" /><path d="M42.666667 469.333333v170.666667l64 42.666667 21.333333 298.666666h170.666667l21.333333-298.666666 64-42.666667v-170.666667c0-93.866667-76.8-170.666667-170.666667-170.666666s-170.666667 76.8-170.666666 170.666666z" fill="#607D8B" /><path d="M477.866667 861.866667c-12.8 53.333333-21.333333 76.8-51.2 76.8-12.8 0-25.6-10.666667-40.533334-23.466667-21.333333-17.066667-46.933333-40.533333-87.466666-40.533333v42.666666c23.466667 0 40.533333 14.933333 59.733333 29.866667 19.2 14.933333 40.533333 34.133333 68.266667 34.133333 66.133333 0 81.066667-61.866667 93.866666-110.933333 12.8-55.466667 21.333333-81.066667 55.466667-81.066667v-42.666666c-70.4 0-87.466667 66.133333-98.133333 115.2z" fill="#263238" /><path d="M307.2 853.333333H213.333333v85.333334h87.466667z" fill="#263238" /><path d="M768 768m-213.333333 0a213.333333 213.333333 0 1 0 426.666666 0 213.333333 213.333333 0 1 0-426.666666 0Z" fill="#4CAF50" /><path d="M746.666667 725.333333c2.133333 4.266667 2.133333 6.4 6.4 8.533334 2.133333 2.133333 6.4 4.266667 10.666666 8.533333 4.266667 2.133333 10.666667 4.266667 17.066667 6.4 10.666667 4.266667 19.2 8.533333 27.733333 12.8 8.533333 4.266667 14.933333 8.533333 21.333334 14.933333 6.4 6.4 10.666667 12.8 14.933333 19.2 4.266667 8.533333 4.266667 17.066667 4.266667 27.733334 0 8.533333-2.133333 17.066667-4.266667 25.6-2.133333 8.533333-6.4 14.933333-12.8 19.2-6.4 6.4-12.8 10.666667-19.2 12.8-8.533333 4.266667-17.066667 6.4-25.6 6.4v32h-25.6v-32c-8.533333 0-17.066667-2.133333-25.6-6.4-8.533333-4.266667-14.933333-8.533333-21.333333-12.8-6.4-6.4-10.666667-12.8-14.933334-23.466667-4.266667-8.533333-6.4-19.2-6.4-32h46.933334c0 8.533333 0 14.933333 2.133333 19.2 2.133333 4.266667 4.266667 8.533333 8.533333 12.8 4.266667 2.133333 6.4 4.266667 10.666667 6.4 4.266667 2.133333 8.533333 2.133333 12.8 2.133333 4.266667 0 8.533333 0 12.8-2.133333 4.266667-2.133333 6.4-4.266667 8.533333-6.4 2.133333-2.133333 4.266667-6.4 6.4-8.533333 2.133333-4.266667 2.133333-6.4 2.133334-10.666667s0-8.533333-2.133334-12.8c-2.133333-4.266667-2.133333-6.4-6.4-8.533333-2.133333-2.133333-6.4-6.4-10.666666-8.533334-4.266667-2.133333-8.533333-4.266667-14.933334-6.4-10.666667-4.266667-19.2-8.533333-27.733333-12.8-8.533333-4.266667-14.933333-8.533333-21.333333-14.933333-6.4-6.4-10.666667-12.8-14.933334-19.2-4.266667-8.533333-4.266667-17.066667-4.266666-27.733333 0-8.533333 2.133333-17.066667 4.266666-25.6 2.133333-6.4 6.4-14.933333 12.8-19.2 6.4-6.4 12.8-10.666667 19.2-12.8 8.533333-4.266667 17.066667-6.4 25.6-6.4v-34.133334H789.333333v34.133334c8.533333 2.133333 17.066667 4.266667 25.6 8.533333 8.533333 4.266667 12.8 8.533333 19.2 14.933333 4.266667 6.4 8.533333 12.8 12.8 21.333334 2.133333 8.533333 4.266667 19.2 4.266667 29.866666h-46.933333c0-12.8-2.133333-21.333333-8.533334-27.733333-4.266667-6.4-12.8-8.533333-21.333333-8.533333-4.266667 0-8.533333 0-12.8 2.133333-4.266667 2.133333-6.4 4.266667-8.533333 6.4-4.266667 0-6.4 2.133333-6.4 6.4s-2.133333 6.4-2.133334 10.666667 0 8.533333 2.133334 10.666666z" fill="#FFFFFF" /></svg>