<?xml version="1.0" encoding="utf-8"?><!-- Uploaded to: SVG Repo, www.svgrepo.com, Generator: SVG Repo Mixer Tools -->
<svg width="800px" height="800px" viewBox="0 0 146 146" xmlns="http://www.w3.org/2000/svg"><title>001-business</title><rect x="0.5" y="0.5" width="145" height="145" fill="none"/><polygon points="33.5 112.07 33.5 121.87 28.1 121.87 26.3 121.87 26.3 84.33 33.5 84.33 33.5 89.88 33.5 112.07" fill="#ffffff" stroke="#000000" stroke-miterlimit="10" stroke-width="0.8"/><polygon points="26.3 121.87 26.3 126.81 6.5 126.81 6.5 84.33 26.3 84.33 26.3 121.87" fill="#a8cbeb"/><path d="M105.17,70.47a0.48,0.48,0,0,1,.42.73l-3.19,5.19,0.09,0.14a15.39,15.39,0,0,0-2.58,1.94L83,89.44l-0.91,0,8.8-13.84a12,12,0,0,1,11.52-5.48Z" fill="#ffffff" stroke="#000000" stroke-miterlimit="10" stroke-width="0.8"/><path d="M82.05,89.46l0.91,0,16.94-11a15.39,15.39,0,0,1,2.58-1.94c2.39-1.49,5.93-3,9.42-2.86,3,0.16,7.28,1.66,7.35,3.48a1.86,1.86,0,0,1-.63,1.32L94.27,98c-5.75,2.49-12,5-18.77,7.26-8.3,2.84-16.18,5.06-23.46,6.8H33.5V89.88h4.06l8-7.65A13.61,13.61,0,0,1,55,78.47H80.3a11.82,11.82,0,0,1-7.23,10.82v0.38C75.63,89.59,79.34,89.52,82.05,89.46Z" fill="#ffffff"/><path d="M57.1,89.67H72c0.25-.08.6-0.2,1-0.38A11.82,11.82,0,0,0,80.3,78.63a0.16,0.16,0,0,0-.16-0.16H55a13.61,13.61,0,0,0-9.4,3.77l-8,7.65H33.5" fill="none" stroke="#515f76" stroke-linecap="round" stroke-miterlimit="10" stroke-width="2.4"/><path d="M33.9,112.07h18l0.19,0c7.26-1.73,15.1-3.95,23.37-6.78,6.75-2.31,13-4.78,18.77-7.26l24.35-19.54a1.86,1.86,0,0,0,.63-1.32c-0.07-1.82-4.37-3.32-7.35-3.48-3.49-.19-7,1.37-9.42,2.86a15.39,15.39,0,0,0-2.58,1.94L83,89.44l-0.91,0c-2.71.06-6.42,0.13-9,.2H72.76" fill="none" stroke="#515f76" stroke-linecap="round" stroke-miterlimit="10" stroke-width="2.4"/><path d="M82.05,89.46l8.8-13.84a12,12,0,0,1,11.52-5.48l2.8,0.33a0.48,0.48,0,0,1,.42.73l-3.19,5.19" fill="none" stroke="#515f76" stroke-miterlimit="10" stroke-width="2.4"/><line x1="73.5" y1="9.27" x2="73.5" y2="19.67" fill="none" stroke="#515f76" stroke-linecap="round" stroke-miterlimit="10" stroke-width="2.4"/><line x1="63.1" y1="14.07" x2="63.1" y2="24.47" fill="none" stroke="#515f76" stroke-linecap="round" stroke-miterlimit="10" stroke-width="2.4"/><line x1="84.7" y1="14.07" x2="84.7" y2="24.47" fill="none" stroke="#515f76" stroke-linecap="round" stroke-miterlimit="10" stroke-width="2.4"/><line x1="120.96" y1="61.93" x2="124.16" y2="65.13" fill="none" stroke="#b8b9ba" stroke-linecap="round" stroke-miterlimit="10" stroke-width="1.6"/><line x1="124.16" y1="61.93" x2="120.96" y2="65.13" fill="none" stroke="#b8b9ba" stroke-linecap="round" stroke-miterlimit="10" stroke-width="1.6"/><circle cx="137.3" cy="69.13" r="2" fill="none" stroke="#b8b9ba" stroke-linecap="round" stroke-miterlimit="10" stroke-width="1.6"/><circle cx="129.1" cy="81.79" r="1.6" fill="#b8b9ba"/><circle cx="44.94" cy="47.5" r="1.6" fill="#b8b9ba"/><line x1="36" y1="131" x2="36" y2="137" fill="none" stroke="#b8b9ba" stroke-linecap="round" stroke-miterlimit="10" stroke-width="2"/><line x1="39" y1="134" x2="33" y2="134" fill="none" stroke="#b8b9ba" stroke-linecap="round" stroke-miterlimit="10" stroke-width="2"/><path d="M45.7,31.42L48,30.2a0.08,0.08,0,0,1,.12.08L47.7,32.87l2,1.95-2.76.4-1.24,2.5-1.24-2.5-2.6-.38a0.08,0.08,0,0,1,0-.14l1.88-1.84-0.47-2.75Z" fill="#a8cbeb"/><circle cx="41.81" cy="124.48" r="1.6" fill="#b8b9ba"/><path d="M5.9,85.27v4l14.63,0.59a2.4,2.4,0,0,1,2.17,2.39v35.42h2.4V85.27H5.9Z" fill="#d2e1ef"/><path d="M26.3,84.33V126a0.8,0.8,0,0,1-.8.8H6.5" fill="none" stroke="#515f76" stroke-miterlimit="10" stroke-width="2.4"/><path d="M6.5,84.33H32.7a0.8,0.8,0,0,1,.8.8v35.94a0.8,0.8,0,0,1-.8.8H26.5" fill="none" stroke="#515f76" stroke-miterlimit="10" stroke-width="2.4"/><path d="M73.9,29.15A19.32,19.32,0,1,1,54.58,48.47,19.32,19.32,0,0,1,73.9,29.15ZM88.18,48.47A14.28,14.28,0,1,0,73.9,62.75,14.28,14.28,0,0,0,88.18,48.47Z" fill="#ffffff"/><circle cx="73.9" cy="48.47" r="14.28" fill="#ed9180"/><circle cx="73.9" cy="48.47" r="19.32" fill="none" stroke="#515f76" stroke-miterlimit="10" stroke-width="2.4"/><path d="M74,48.19a3.24,3.24,0,1,1-3.64,3.22" fill="none" stroke="#515f76" stroke-linecap="round" stroke-miterlimit="10" stroke-width="2.4"/><path d="M77.68,45a3.67,3.67,0,0,0-7.28,0A3.45,3.45,0,0,0,74,48.19" fill="none" stroke="#515f76" stroke-linecap="round" stroke-miterlimit="10" stroke-width="2.4"/><line x1="74" y1="39" x2="74" y2="41" fill="none" stroke="#515f76" stroke-linecap="round" stroke-miterlimit="10" stroke-width="2"/><line x1="74" y1="56" x2="74" y2="57" fill="none" stroke="#515f76" stroke-linecap="round" stroke-miterlimit="10" stroke-width="2"/></svg>