<?xml version="1.0" ?>
<!-- Uploaded to: SVG Repo, www.svgrepo.com, Generator: SVG Repo Mixer Tools -->
<svg width="800px" height="800px" viewBox="0 0 48 48" id="svg5" version="1.1" xml:space="preserve" xmlns="http://www.w3.org/2000/svg" xmlns:svg="http://www.w3.org/2000/svg">
<defs id="defs2"/>
<g id="layer1" transform="translate(-242.00002,-449)">
<path d="m 254.38513,454.3197 c 3.1077,1.22395 7.27919,2.07732 12.56535,0.9004 l -6.28267,9.90449 z" id="path25783" style="fill:#ff5576;fill-opacity:1;fill-rule:evenodd;stroke:none;stroke-width:1.99999;stroke-linecap:round;stroke-linejoin:round;stroke-miterlimit:4.1"/>
<path d="m 249,474.12867 v 14.46899 l -2.72121,2.72204 h 28.79964 l -2.74282,-2.72204 v -14.46899 c 0,-6.46467 -5.22386,-11.70531 -11.66779,-11.70531 -6.44396,0 -11.66782,5.24064 -11.66782,11.70531 z" id="path25785" style="fill:#e7e7e7;fill-opacity:1;fill-rule:evenodd;stroke:none;stroke-width:1.99999;stroke-linecap:round;stroke-linejoin:round;stroke-miterlimit:4.1"/>
<path d="M 260.43359,462.42908 C 254.09838,462.55494 249,467.74259 249,474.12829 v 14.46875 l -2.7207,2.72266 h 12.1582 a 16.399231,17.318275 0 0 0 8.4707,-15.10938 16.399231,17.318275 0 0 0 -6.47461,-13.78124 z" id="path80031" style="fill:#fafafa;fill-opacity:1;fill-rule:evenodd;stroke:none;stroke-width:1.99999;stroke-linecap:round;stroke-linejoin:round;stroke-miterlimit:4.1;stroke-opacity:1"/>
<path d="m 260.66746,467.22595 a 1.0498858,0.95248267 0 0 0 -1.05078,0.95313 v 2.07031 c -2.03048,0.41951 -3.58203,2.02326 -3.58203,3.95704 0,2.25635 2.11135,4.06444 4.63281,4.06444 1.43429,0 2.53125,0.98031 2.53125,2.16211 0,1.18179 -1.09696,2.1582 -2.53125,2.1582 -1.43428,0 -2.53125,-0.97643 -2.53125,-2.1582 a 1.0498858,0.95248267 0 0 0 -1.05078,-0.95313 1.0498858,0.95248267 0 0 0 -1.05078,0.95313 c 0,1.93375 1.55155,3.53751 3.58203,3.95703 v 2.07032 a 1.0498858,0.95248267 0 0 0 1.05078,0.95311 1.0498858,0.95248267 0 0 0 1.05078,-0.95311 v -2.07032 c 2.03049,-0.41952 3.58203,-2.02328 3.58203,-3.95703 0,-2.2564 -2.11134,-4.06446 -4.63281,-4.06446 -1.43428,0 -2.53125,-0.98035 -2.53125,-2.16209 10e-6,-1.18179 1.09699,-2.15822 2.53125,-2.15822 1.43428,0 2.53125,0.97643 2.53125,2.15822 a 1.0498858,0.95248267 0 0 0 1.05078,0.95311 1.0498858,0.95248267 0 0 0 1.05078,-0.95311 c 0,-1.93378 -1.55154,-3.53753 -3.58203,-3.95704 v -2.07031 a 1.0498858,0.95248267 0 0 0 -1.05078,-0.95313 z" id="path76006" style="color:#000000;fill:#808b9b;fill-opacity:1;fill-rule:evenodd;stroke:none;stroke-width:0.999993;stroke-linecap:round;stroke-linejoin:round;stroke-miterlimit:4.1;stroke-opacity:1"/>
<path d="m 270.00003,472.3197 c 0,4.41826 3.58171,7.99998 7.99998,7.99998 4.41828,0 8,-3.58172 8,-7.99998 0,-4.41827 -3.58172,-8 -8,-8 -4.41827,0 -7.99998,3.58173 -7.99998,8 z" id="path25801" style="fill:#f2a50c;fill-opacity:1;fill-rule:evenodd;stroke:none;stroke-width:2;stroke-linecap:round;stroke-linejoin:round;stroke-miterlimit:4.1;stroke-opacity:1"/>
<path d="M 275.56836,464.69665 C 272.33929,465.72593 270,468.74943 270,472.3197 c 0,4.41826 3.58173,8 8,8 1.45363,0 2.81547,-0.38877 3.99023,-1.06641 1.05719,-1.50996 1.67969,-3.34691 1.67969,-5.33007 0,-4.73124 -3.53131,-8.63536 -8.10156,-9.22657 z" id="path74900" style="fill:#fcca3d;fill-opacity:1;fill-rule:evenodd;stroke:none;stroke-width:2;stroke-linecap:round;stroke-linejoin:round;stroke-miterlimit:4.1;stroke-opacity:1"/>
<path d="m 278,465.9779 a 1.005548,0.99447354 0 0 0 -1.00391,0.99415 v 0.88476 c -1.10746,0.39472 -1.92187,1.42097 -1.92187,2.64062 0,1.5666 1.3438,2.81641 2.92578,2.81641 0.54071,0 0.91602,0.38349 0.91602,0.82813 0,0.44462 -0.3753,0.82422 -0.91602,0.82422 -0.54071,0 -0.91602,-0.3796 -0.91602,-0.82422 a 1.005548,0.99447354 0 0 0 -1.00585,-0.9961 1.005548,0.99447354 0 0 0 -1.00391,0.9961 c 0,1.21965 0.81441,2.2459 1.92187,2.64062 v 0.88477 A 1.005548,0.99447354 0 0 0 278,478.6615 a 1.005548,0.99447354 0 0 0 1.00586,-0.99414 v -0.88672 c 1.10669,-0.39534 1.92187,-1.41988 1.92187,-2.63867 0,-1.56661 -1.34574,-2.81641 -2.92773,-2.81641 -0.54071,0 -0.91602,-0.38352 -0.91602,-0.82813 10e-6,-0.44462 0.37532,-0.82422 0.91602,-0.82422 0.5407,0 0.91601,0.3796 0.91602,0.82422 a 1.005548,0.99447354 0 0 0 1.00586,0.9961 1.005548,0.99447354 0 0 0 1.00585,-0.9961 c 0,-1.21879 -0.81518,-2.24332 -1.92187,-2.63867 v -0.88671 A 1.005548,0.99447354 0 0 0 278,465.9779 Z" id="path25803" style="color:#000000;fill:#808b9b;fill-opacity:1;fill-rule:evenodd;stroke:none;stroke-width:0.999995;stroke-linecap:round;stroke-linejoin:round;stroke-miterlimit:4.1;-inkscape-stroke:none"/>
<path d="m 272.68646,475.62818 c -4.26771,1.14353 -6.80037,5.53021 -5.65684,9.79793 1.14353,4.26773 5.53023,6.80039 9.79794,5.65686 4.26772,-1.14353 6.80039,-5.53023 5.65685,-9.79796 -1.14353,-4.26772 -5.53023,-6.80036 -9.79795,-5.65683 z" id="path74959" style="fill:#f2a50c;fill-opacity:1;fill-rule:evenodd;stroke:none;stroke-width:2;stroke-linecap:round;stroke-linejoin:round;stroke-miterlimit:4.1;stroke-opacity:1"/>
<path d="m 281.49095,479.03378 c -1.82995,-2.85264 -5.35588,-4.32969 -8.8045,-3.40563 -4.26771,1.14353 -6.80039,5.53024 -5.65685,9.79796 0.37622,1.4041 1.10422,2.61891 2.06282,3.57826 1.73213,0.63036 3.6676,0.75621 5.58319,0.24293 4.57002,-1.22454 7.42714,-5.64598 6.81534,-10.21352 z" id="path74961" style="fill:#fcca3d;fill-opacity:1;fill-rule:evenodd;stroke:none;stroke-width:2;stroke-linecap:round;stroke-linejoin:round;stroke-miterlimit:4.1;stroke-opacity:1"/>
<path d="m 274.757,477.01376 a 1.005548,0.99447354 0 0 0 -1.00391,0.99415 v 0.88476 c -1.10746,0.39472 -1.92187,1.42097 -1.92187,2.64062 0,1.5666 1.3438,2.81641 2.92578,2.81641 0.54071,0 0.91602,0.38349 0.91602,0.82813 0,0.44462 -0.3753,0.82422 -0.91602,0.82422 -0.54071,0 -0.91602,-0.3796 -0.91602,-0.82422 a 1.005548,0.99447354 0 0 0 -1.00585,-0.9961 1.005548,0.99447354 0 0 0 -1.00391,0.9961 c 0,1.21965 0.81441,2.2459 1.92187,2.64062 v 0.88477 a 1.005548,0.99447354 0 0 0 1.00391,0.99414 1.005548,0.99447354 0 0 0 1.00586,-0.99414 v -0.88672 c 1.10669,-0.39534 1.92187,-1.41988 1.92187,-2.63867 0,-1.56661 -1.34574,-2.81641 -2.92773,-2.81641 -0.54071,0 -0.91602,-0.38352 -0.91602,-0.82813 10e-6,-0.44462 0.37532,-0.82422 0.91602,-0.82422 0.5407,0 0.91601,0.3796 0.91602,0.82422 a 1.005548,0.99447354 0 0 0 1.00586,0.9961 1.005548,0.99447354 0 0 0 1.00585,-0.9961 c 0,-1.21879 -0.81518,-2.24332 -1.92187,-2.63867 v -0.88671 a 1.005548,0.99447354 0 0 0 -1.00586,-0.99415 z" id="path74965" style="color:#000000;fill:#808b9b;fill-opacity:1;fill-rule:evenodd;stroke:none;stroke-width:0.999995;stroke-linecap:round;stroke-linejoin:round;stroke-miterlimit:4.1;-inkscape-stroke:none"/>
</g>
</svg>