<?xml version="1.0" encoding="iso-8859-1"?>
<!-- Uploaded to: SVG Repo, www.svgrepo.com, Generator: SVG Repo Mixer Tools -->
<svg version="1.1" id="Layer_1" xmlns="http://www.w3.org/2000/svg" xmlns:xlink="http://www.w3.org/1999/xlink" 
	 viewBox="0 0 512 512" xml:space="preserve">
<path style="fill:#9D2217;" d="M16.552,71.724v368.552h478.897V71.724H16.552z M318.286,137.662c0,8.895-7.211,16.106-16.106,16.106
	h-91.511c-8.895,0-16.106-7.211-16.106-16.106v-24.696c0-8.895,7.211-16.106,16.106-16.106h91.511
	c8.895,0,16.106,7.211,16.106,16.106V137.662z"/>
<path style="fill:#DE3205;" d="M495.448,456.828H16.552C7.411,456.828,0,449.417,0,440.276V71.724
	c0-9.141,7.411-16.552,16.552-16.552h478.897c9.141,0,16.552,7.411,16.552,16.552v368.552
	C512,449.417,504.589,456.828,495.448,456.828z M33.103,423.724h445.793V88.276H33.103V423.724z"/>
<path style="fill:#690812;" d="M256,96.861h46.18c8.895,0,16.106,7.211,16.106,16.106v24.696c0,8.895-7.211,16.106-16.106,16.106
	H256v286.507h239.448V71.724H256V96.861z"/>
<path style="fill:#9D2217;" d="M495.448,55.172H256v33.103h222.897v335.448H256v33.103h239.448c9.141,0,16.552-7.411,16.552-16.552
	V71.724C512,62.583,504.589,55.172,495.448,55.172z"/>
<rect x="77.056" y="252.546" style="fill:#8A8A91;" width="163.211" height="36.502"/>
<path style="fill:#57565C;" d="M426.845,289.057H325.498c-2.735,0-4.952-2.218-4.952-4.952v-26.601c0-2.735,2.218-4.952,4.952-4.952
	h101.346V289.057z"/>
<path style="fill:#2D2E30;" d="M468.963,291.218c0,5.922-4.801,10.724-10.724,10.724h-35.446v-64.371h35.446
	c5.922,0,10.724,4.801,10.724,10.724V291.218z"/>
<path style="fill:#57565C;" d="M426.845,384.262H325.498c-2.735,0-4.952-2.218-4.952-4.952v-26.601c0-2.735,2.218-4.952,4.952-4.952
	h101.346V384.262z"/>
<g>
	<path style="fill:#797882;" d="M373.562,289.057h-48.064c-2.735,0-4.952-2.218-4.952-4.952v-26.601
		c0-2.735,2.218-4.952,4.952-4.952h48.064L373.562,289.057L373.562,289.057z"/>
	<path style="fill:#797882;" d="M373.562,384.262h-48.064c-2.735,0-4.952-2.218-4.952-4.952v-26.601
		c0-2.735,2.218-4.952,4.952-4.952h48.064L373.562,384.262L373.562,384.262z"/>
</g>
<path style="fill:#2D2E30;" d="M468.963,386.422c0,5.922-4.801,10.724-10.724,10.724h-35.446v-64.371h35.446
	c5.922,0,10.724,4.801,10.724,10.724V386.422z"/>
<rect x="77.056" y="347.752" style="fill:#8A8A91;" width="163.211" height="36.502"/>
<g>
	<rect x="77.056" y="252.546" style="fill:#C6C5CA;" width="81.603" height="36.502"/>
	<rect x="77.056" y="347.752" style="fill:#C6C5CA;" width="81.603" height="36.502"/>
</g>
<path style="fill:#8A8A91;" d="M95.218,147.67v-9.503c0-2.735-2.218-4.952-4.952-4.952H75.119c-2.735,0-4.952,2.218-4.952,4.952
	v9.503h-4.789c-3.73,0-6.754,3.023-6.754,6.754v51.912c0,3.73,3.023,6.754,6.754,6.754h34.628c3.73,0,6.754-3.023,6.754-6.754
	v-51.912c0-3.73-3.023-6.754-6.754-6.754H95.218z"/>
<path style="fill:#C6C5CA;" d="M82.692,133.214h-7.573c-2.735,0-4.952,2.218-4.952,4.953v9.503h-4.789
	c-3.73,0-6.754,3.023-6.754,6.753v51.912c0,3.73,3.023,6.754,6.754,6.754h17.314V133.214z"/>
<path style="fill:#8A8A91;" d="M166.799,147.67v-9.503c0-2.735-2.218-4.952-4.952-4.952h-15.145c-2.735,0-4.952,2.218-4.952,4.952
	v9.503h-4.789c-3.73,0-6.754,3.023-6.754,6.754v51.912c0,3.73,3.023,6.754,6.754,6.754h34.628c3.73,0,6.754-3.023,6.754-6.754
	v-51.912c0-3.73-3.023-6.754-6.754-6.754H166.799z"/>
<path style="fill:#C6C5CA;" d="M154.273,133.214H146.7c-2.735,0-4.952,2.218-4.952,4.953v9.503h-4.789
	c-3.73,0-6.754,3.023-6.754,6.753v51.912c0,3.73,3.023,6.754,6.754,6.754h17.314L154.273,133.214L154.273,133.214z"/>
<path style="fill:#2D2E30;" d="M380.113,147.67v-9.503c0-2.735-2.218-4.952-4.952-4.952h-15.145c-2.735,0-4.952,2.218-4.952,4.952
	v9.503h-4.789c-3.73,0-6.754,3.023-6.754,6.754v51.912c0,3.73,3.023,6.754,6.754,6.754h34.628c3.73,0,6.754-3.023,6.754-6.754
	v-51.912c0-3.73-3.023-6.754-6.754-6.754H380.113z"/>
<path style="fill:#57565C;" d="M367.587,133.214h-7.573c-2.735,0-4.952,2.218-4.952,4.953v9.503h-4.789
	c-3.73,0-6.754,3.023-6.754,6.753v51.912c0,3.73,3.023,6.754,6.754,6.754h17.314V133.214z"/>
<path style="fill:#2D2E30;" d="M451.694,147.67v-9.503c0-2.735-2.218-4.952-4.952-4.952h-15.145c-2.735,0-4.952,2.218-4.952,4.952
	v9.503h-4.789c-3.73,0-6.754,3.023-6.754,6.754v51.912c0,3.73,3.023,6.754,6.754,6.754h34.628c3.73,0,6.754-3.023,6.754-6.754
	v-51.912c0-3.73-3.023-6.754-6.754-6.754H451.694z"/>
<path style="fill:#57565C;" d="M439.169,133.214h-7.573c-2.735,0-4.952,2.218-4.952,4.953v9.503h-4.789
	c-3.73,0-6.754,3.023-6.754,6.753v51.912c0,3.73,3.023,6.754,6.754,6.754h17.314V133.214z"/>
<path style="fill:#2D2E30;" d="M273.547,291.218c0,5.922-4.801,10.724-10.724,10.724h-35.446v-64.371h35.446
	c5.922,0,10.724,4.801,10.724,10.724V291.218z"/>
<path style="fill:#57565C;" d="M89.94,302.989H54.494c-5.922,0-10.724-4.801-10.724-10.724v-42.923
	c0-5.922,4.801-10.724,10.724-10.724H89.94V302.989z"/>
<path style="fill:#2D2E30;" d="M273.547,386.422c0,5.922-4.801,10.724-10.724,10.724h-35.446v-64.371h35.446
	c5.922,0,10.724,4.801,10.724,10.724V386.422z"/>
<path style="fill:#57565C;" d="M89.94,398.193H54.494c-5.922,0-10.724-4.801-10.724-10.724v-42.923
	c0-5.922,4.801-10.724,10.724-10.724H89.94V398.193z"/>
</svg>