<?xml version="1.0" encoding="iso-8859-1"?>
<!-- Uploaded to: SVG Repo, www.svgrepo.com, Generator: SVG Repo Mixer Tools -->
<svg version="1.1" id="Layer_1" xmlns="http://www.w3.org/2000/svg" xmlns:xlink="http://www.w3.org/1999/xlink"
	 viewBox="0 0 512 512" xml:space="preserve">
<circle style="fill:#8665eb;" cx="256" cy="256" r="256"/>
<rect x="64" y="164" style="fill:#FFFFFF;" width="384" height="232"/>
<rect x="64" y="116" width="384" height="48.08"/>
<circle style="fill:#00C454;" cx="97.144" cy="140.04" r="6.696"/>
<circle style="fill:#FFFFFF;" cx="117.224" cy="140.04" r="6.696"/>
<g>
	<circle style="fill:#666666;" cx="137.28" cy="140.04" r="6.696"/>
	<polygon style="fill:#666666;" points="400,151.8 192.328,151.8 206.672,128.288 414.352,128.288 	"/>
</g>
<g>
	<path style="fill:#FFFFFF;" d="M221.776,134.792l1.392,5.344c0.304,1.168,0.584,2.256,0.784,3.344h0.064
		c0.24-1.064,0.584-2.192,0.936-3.32l1.712-5.368h1.608l1.632,5.256c0.392,1.256,0.696,2.368,0.936,3.432h0.064
		c0.176-1.064,0.456-2.168,0.808-3.408l1.504-5.28h1.888l-3.392,10.512h-1.736l-1.608-5.016c-0.368-1.176-0.672-2.216-0.936-3.464
		h-0.04c-0.264,1.264-0.584,2.352-0.96,3.48l-1.696,5H223l-3.168-10.512L221.776,134.792L221.776,134.792z"/>
	<path style="fill:#FFFFFF;" d="M238,134.792l1.392,5.344c0.304,1.168,0.584,2.256,0.784,3.344h0.064
		c0.24-1.064,0.584-2.192,0.936-3.32l1.712-5.368h1.608l1.632,5.256c0.392,1.256,0.696,2.368,0.936,3.432h0.064
		c0.168-1.064,0.456-2.168,0.808-3.408l1.504-5.28h1.888l-3.392,10.512H246.2l-1.608-5.016c-0.368-1.176-0.672-2.216-0.936-3.464
		h-0.04c-0.264,1.264-0.584,2.352-0.96,3.48l-1.696,5h-1.736l-3.168-10.512L238,134.792L238,134.792z"/>
	<path style="fill:#FFFFFF;" d="M254.224,134.792l1.392,5.344c0.304,1.168,0.584,2.256,0.784,3.344h0.064
		c0.24-1.064,0.584-2.192,0.936-3.32l1.712-5.368h1.608l1.632,5.256c0.392,1.256,0.696,2.368,0.936,3.432h0.064
		c0.168-1.064,0.456-2.168,0.8-3.408l1.504-5.28h1.888l-3.392,10.512h-1.736l-1.616-5.016c-0.368-1.176-0.672-2.216-0.936-3.464
		h-0.04c-0.264,1.264-0.584,2.352-0.96,3.48l-1.696,5h-1.736l-3.168-10.512L254.224,134.792L254.224,134.792z"/>
</g>
<g>
	<polygon style="fill:#666666;" points="64,372.688 126.144,372.688 149.456,396 64,396 	"/>
	<polygon style="fill:#666666;" points="448,372.688 385.856,372.688 362.544,396 448,396 	"/>
</g>
<rect x="206.672" y="289.92" style="fill:#00C454;" width="16.44" height="44.968"/>
<rect x="179.272" y="308.312" width="16.44" height="26.584"/>
<rect x="234.08" y="264.96" width="16.44" height="69.96"/>
<rect x="261.48" y="219.96" style="fill:#00C454;" width="16.44" height="114.928"/>
<rect x="288.88" y="243.152" width="16.44" height="91.744"/>
<rect x="316.288" y="280.08" style="fill:#00C454;" width="16.44" height="54.96"/>
</svg>
