<?xml version="1.0" encoding="iso-8859-1"?>
<!-- Uploaded to: SVG Repo, www.svgrepo.com, Generator: SVG Repo Mixer Tools -->
<svg height="800px" width="800px" version="1.1" id="Layer_1" xmlns="http://www.w3.org/2000/svg" xmlns:xlink="http://www.w3.org/1999/xlink" 
	 viewBox="0 0 392.598 392.598" xml:space="preserve">
<path style="fill:#FFFFFF;" d="M286.19,215.976V65.673c0-6.012-4.848-10.925-10.925-10.925H117.269
	c-6.012,0-10.925,4.848-10.925,10.925v150.303l89.859,73.632L286.19,215.976z"/>
<path style="fill:#FFC10D;" d="M242.554,76.404H149.98c0,12.024-9.762,21.786-21.786,21.786v135.628l68.073,55.79l68.073-55.79
	V98.19C252.38,98.19,242.554,88.493,242.554,76.404z"/>
<g>
	<path style="fill:#194F82;" d="M186.893,103.168h18.683c6.012,0,10.925-4.848,10.925-10.925c0-6.012-4.848-10.925-10.925-10.925
		h-18.683c-6.012,0-10.925,4.848-10.925,10.925C176.032,98.255,180.881,103.168,186.893,103.168z"/>
	<path style="fill:#194F82;" d="M207.192,191.927v-12.671c0-4.719,3.879-8.469,8.598-8.469s8.469,3.879,8.469,8.469v32.065
		c0,6.012,4.848,10.925,10.925,10.925c6.012,0,10.925-4.848,10.925-10.925v-19.717h3.879c6.012,0,10.925-4.848,10.925-10.925
		c0-6.012-4.848-10.925-10.925-10.925h-5.43c-4.008-12.154-15.386-20.881-28.832-20.881c-16.743,0-30.384,13.576-30.384,30.384
		v12.671c0,4.719-3.879,8.469-8.469,8.469c-4.719,0-8.598-3.879-8.598-8.469v-32.065c0-6.012-4.848-10.925-10.925-10.925
		s-10.925,4.848-10.925,10.925v9.956h-3.879c-6.012,0-10.925,4.848-10.925,10.925s4.848,10.925,10.925,10.925h3.879v0.323
		c0,16.743,13.576,30.384,30.384,30.384C193.552,222.246,207.192,208.606,207.192,191.927z"/>
	<path style="fill:#194F82;" d="M388.396,143.313c-0.065-0.065-0.065-0.129-0.129-0.129L308.04,82.158V65.673
		c0-18.036-14.675-32.711-32.711-32.711h-32L202.861,2.19c-3.943-2.909-9.244-2.909-13.188,0l-40.404,30.707h-32
		c-18.036,0-32.711,14.675-32.711,32.711v16.549L4.267,143.184c0,0,0,0,0,0.065C1.745,145.253,0,148.356,0,151.846v229.818
		c0,6.012,4.848,10.925,10.925,10.925h370.747c6.012,0,10.925-4.848,10.925-10.925V151.846
		C392.533,148.356,390.917,145.317,388.396,143.313z M307.976,109.568l56.048,42.667l-56.048,45.899V109.568z M196.267,24.558
		l10.99,8.339h-21.98L196.267,24.558z M106.343,65.673c0-6.012,4.848-10.925,10.925-10.925h157.996
		c6.012,0,10.925,4.848,10.925,10.925v150.303l-89.923,73.632l-89.923-73.632V65.673z M84.558,109.568v88.566l-56.048-45.899
		L84.558,109.568z M21.786,174.861l99.168,81.196l-99.168,99.232V174.861z M37.236,370.739l100.655-100.655l51.459,42.085
		c4.267,3.232,9.826,3.168,13.834,0l51.459-42.085l100.655,100.655H37.236L37.236,370.739z M370.747,355.289l-99.232-99.168
		l99.168-81.196v180.364H370.747z"/>
</g>
<g>
	<polygon style="fill:#FFFFFF;" points="21.786,174.861 21.786,355.289 121.018,256.121 	"/>
	<polygon style="fill:#FFFFFF;" points="84.558,109.568 28.509,152.105 84.558,198.133 	"/>
	<polygon style="fill:#FFFFFF;" points="307.976,198.133 364.024,152.105 307.976,109.568 	"/>
	<polygon style="fill:#FFFFFF;" points="196.267,24.558 185.277,32.897 207.257,32.897 	"/>
	<polygon style="fill:#FFFFFF;" points="370.747,355.289 370.747,174.861 271.515,256.121 	"/>
</g>
<path style="fill:#56ACE0;" d="M203.119,312.17c-3.943,3.168-9.568,3.232-13.834,0l-51.459-42.085L37.236,370.739h318.061
	L254.578,270.085L203.119,312.17z"/>
</svg>