<?xml version="1.0" encoding="iso-8859-1"?>
<!-- Uploaded to: SVG Repo, www.svgrepo.com, Generator: SVG Repo Mixer Tools -->
<svg height="800px" width="800px" version="1.1" id="Layer_1" xmlns="http://www.w3.org/2000/svg" xmlns:xlink="http://www.w3.org/1999/xlink" 
	 viewBox="0 0 512 512" xml:space="preserve">
<path style="fill:#F1F4FB;" d="M362.889,401.37H72.15c-9.446,0-17.102-7.656-17.102-17.102V25.119
	c0-9.446,7.656-17.102,17.102-17.102h290.739c9.446,0,17.102,7.656,17.102,17.102v359.148
	C379.992,393.713,372.335,401.37,362.889,401.37z"/>
<path style="fill:#D5DCED;" d="M379.992,384.267v-83.715c-0.169,0.047-0.348,0.063-0.516,0.112
	c-6.849-5.608-15.304-9.287-24.652-10.222c-0.161-0.016-0.324-0.031-0.484-0.046v-81.428c0-25.932-21.097-47.03-47.029-47.031
	h-0.001c-1.57,0-3.158,0.078-4.761,0.238c-24.098,2.412-42.272,23.053-42.272,48.013v95.044l-18.401,18.401
	c-16.872,16.872-23.683,40.814-18.218,64.041l3.223,13.696h136.009C372.334,401.37,379.992,393.712,379.992,384.267z"/>
<circle style="fill:#B4E66E;" cx="132.008" cy="110.63" r="25.653"/>
<circle style="fill:#DAE169;" cx="132.008" cy="204.693" r="25.653"/>
<circle style="fill:#FFDC64;" cx="132.008" cy="298.756" r="25.653"/>
<path style="fill:#F0C087;" d="M437.778,333.072c-12.797-1.281-23.583,8.733-23.583,21.267v-7.332
	c0-11.183-8.046-21.372-19.174-22.486c-12.797-1.281-23.583,8.733-23.583,21.267v-7.332c0-11.183-8.046-21.373-19.174-22.486
	c-12.797-1.281-23.583,8.733-23.583,21.267V208.969c0-12.534-10.786-22.548-23.583-21.267
	c-11.127,1.114-19.174,11.304-19.174,22.486v105.67l-25.914,25.914c-10.47,10.47-14.777,25.612-11.386,40.026l17.891,76.037
	c6.362,27.039,30.489,46.148,58.268,46.148h72.311c33.059,0,59.858-26.799,59.858-59.858v-88.567
	C456.952,344.375,448.906,334.185,437.778,333.072z"/>
<g>
	<path style="fill:#E6AF78;" d="M337.236,358.077c4.722,0,8.551-3.829,8.551-8.551v-33.123
		c-9.738,1.997-17.102,10.504-17.102,20.833v12.29C328.685,354.248,332.514,358.077,337.236,358.077z"/>
	<path style="fill:#E6AF78;" d="M379.992,366.628c4.722,0,8.551-3.829,8.551-8.551v-33.123
		c-9.738,1.997-17.102,10.504-17.102,20.833v12.29C371.441,362.8,375.269,366.628,379.992,366.628z"/>
	<path style="fill:#E6AF78;" d="M422.747,375.179c4.722,0,8.551-3.829,8.551-8.551v-33.123
		c-9.738,1.997-17.102,10.504-17.102,20.833v12.29C414.196,371.351,418.025,375.179,422.747,375.179z"/>
	<path style="fill:#E6AF78;" d="M287.855,457.835l-19.826-84.261c-2.188-9.3,0.591-19.071,7.348-25.828l10.553-10.553v21.421
		c0,4.722,3.829,8.551,8.551,8.551c4.722,0,8.551-3.829,8.551-8.551V188.127c-10.02,2.105-17.102,11.598-17.102,22.06v105.671
		l-25.914,25.914c-10.47,10.47-14.777,25.612-11.386,40.026l17.891,76.037c6.362,27.039,30.489,46.148,58.266,46.148h21.336
		C318.344,503.983,294.217,484.874,287.855,457.835z"/>
</g>
<path d="M157.662,102.614c-4.427,0-8.017,3.589-8.017,8.017c0,9.725-7.912,17.637-17.637,17.637
	c-9.725,0-17.637-7.912-17.637-17.637s7.912-17.637,17.637-17.637c4.427,0,8.017-3.589,8.017-8.017c0-4.427-3.589-8.017-8.017-8.017
	c-18.566,0-33.67,15.105-33.67,33.67s15.105,33.67,33.67,33.67c18.566,0,33.67-15.105,33.67-33.67
	C165.678,106.203,162.089,102.614,157.662,102.614z"/>
<path d="M157.662,196.676c-4.427,0-8.017,3.589-8.017,8.017c0,9.725-7.912,17.637-17.637,17.637
	c-9.725,0-17.637-7.912-17.637-17.637s7.912-17.637,17.637-17.637c4.427,0,8.017-3.589,8.017-8.017s-3.589-8.017-8.017-8.017
	c-18.566,0-33.67,15.105-33.67,33.67s15.105,33.67,33.67,33.67c18.566,0,33.67-15.105,33.67-33.67
	C165.678,200.266,162.089,196.676,157.662,196.676z"/>
<path d="M251.724,213.779h-59.858c-4.427,0-8.017,3.589-8.017,8.017s3.589,8.017,8.017,8.017h59.858
	c4.427,0,8.017-3.589,8.017-8.017S256.152,213.779,251.724,213.779z"/>
<path d="M251.724,179.574h-59.858c-4.427,0-8.017,3.589-8.017,8.017s3.589,8.017,8.017,8.017h59.858
	c4.427,0,8.017-3.589,8.017-8.017S256.152,179.574,251.724,179.574z"/>
<path d="M242.639,315.858c0-4.427-3.589-8.017-8.017-8.017h-42.756c-4.427,0-8.017,3.589-8.017,8.017
	c0,4.427,3.589,8.017,8.017,8.017h42.756C239.049,323.875,242.639,320.285,242.639,315.858z"/>
<path d="M251.724,273.637h-59.858c-4.427,0-8.017,3.589-8.017,8.017c0,4.427,3.589,8.017,8.017,8.017h59.858
	c4.427,0,8.017-3.589,8.017-8.017C259.741,277.226,256.152,273.637,251.724,273.637z"/>
<path d="M336.701,127.733c0-4.427-3.589-8.017-8.017-8.017H191.866c-4.427,0-8.017,3.589-8.017,8.017
	c0,4.427,3.589,8.017,8.017,8.017h136.818C333.112,135.749,336.701,132.16,336.701,127.733z"/>
<path d="M191.866,101.545H294.48c4.427,0,8.017-3.589,8.017-8.017c0-4.427-3.589-8.017-8.017-8.017H191.866
	c-4.427,0-8.017,3.589-8.017,8.017C183.85,97.956,187.439,101.545,191.866,101.545z"/>
<path d="M132.008,281.119c4.427,0,8.017-3.589,8.017-8.017c0-4.427-3.589-8.017-8.017-8.017c-18.566,0-33.67,15.105-33.67,33.67
	c0,18.566,15.105,33.67,33.67,33.67c18.566,0,33.67-15.105,33.67-33.67c0-4.427-3.589-8.017-8.017-8.017
	c-4.427,0-8.017,3.589-8.017,8.017c0,9.725-7.912,17.637-17.637,17.637c-9.725,0-17.637-7.912-17.637-17.637
	C114.372,289.031,122.284,281.119,132.008,281.119z"/>
<path d="M217.52,393.353H72.15c-5.01,0-9.086-4.076-9.086-9.086V25.119c0-5.01,4.076-9.086,9.086-9.086h290.739
	c5.01,0,9.086,4.076,9.086,9.086v265.087c0,4.427,3.589,8.017,8.017,8.017c4.427,0,8.017-3.589,8.017-8.017V25.119
	C388.008,11.268,376.74,0,362.889,0H72.15C58.3,0,47.031,11.268,47.031,25.119v359.148c0,13.851,11.268,25.119,25.119,25.119h145.37
	c4.427,0,8.017-3.589,8.017-8.017C225.537,396.942,221.947,393.353,217.52,393.353z"/>
<path d="M438.578,325.094c-7.451-0.743-14.898,1.369-20.792,5.844c-4.695-7.878-12.701-13.467-21.964-14.395
	c-7.453-0.742-14.899,1.37-20.792,5.844c-4.695-7.878-12.701-13.467-21.964-14.395c-5.69-0.568-11.372,0.528-16.365,3.069V208.969
	c0-8.289-3.526-16.235-9.677-21.8c-6.145-5.56-14.426-8.274-22.721-7.444c-14.799,1.481-26.391,14.863-26.391,30.463v102.35
	l-23.566,23.566c-12.523,12.523-17.578,30.291-13.521,47.53l17.891,76.037c7.249,30.811,34.418,52.329,66.07,52.329h72.307
	c37.426,0,67.875-30.448,67.875-67.875v-88.567C464.969,339.957,453.377,326.576,438.578,325.094z M448.935,444.125
	c0,28.585-23.256,51.841-51.841,51.841h-72.307c-24.175,0-44.927-16.435-50.464-39.968l-17.891-76.037
	c-2.776-11.795,0.683-23.953,9.251-32.521l12.229-12.229v27.678c0,4.427,3.589,8.017,8.017,8.017c4.427,0,8.017-3.589,8.017-8.017
	V210.188c0-7.465,5.251-13.839,11.956-14.509c3.851-0.387,7.534,0.814,10.366,3.379c2.797,2.531,4.401,6.144,4.401,9.912v141.094
	c0,4.427,3.589,8.017,8.017,8.017c4.427,0,8.017-3.589,8.017-8.017v-12.827c0-3.768,1.603-7.381,4.401-9.912
	c2.834-2.564,6.515-3.767,10.366-3.379c6.704,0.671,11.956,7.045,11.956,14.51v20.157c0,4.427,3.589,8.017,8.017,8.017
	c4.427,0,8.017-3.589,8.017-8.017v-12.827c0-3.768,1.603-7.381,4.401-9.912c2.834-2.564,6.516-3.766,10.366-3.379
	c6.704,0.671,11.956,7.045,11.956,14.51v20.158c0,4.427,3.589,8.017,8.017,8.017c4.427,0,8.017-3.589,8.017-8.017v-12.827
	c0-3.768,1.603-7.381,4.401-9.912c2.834-2.563,6.513-3.767,10.366-3.378c6.704,0.67,11.956,7.044,11.956,14.509V444.125z"/>
</svg>