<?xml version="1.0" encoding="iso-8859-1"?>
<!-- Uploaded to: SVG Repo, www.svgrepo.com, Generator: SVG Repo Mixer Tools -->
<svg version="1.1" id="Layer_1" xmlns="http://www.w3.org/2000/svg" xmlns:xlink="http://www.w3.org/1999/xlink" 
	 viewBox="0 0 512 512" xml:space="preserve">
<circle style="fill:#D9E6E8;" cx="256" cy="256" r="256"/>
<path style="fill:#263740;" d="M216,156c-4.4,0-9.608-3.22-11.58-7.156l-8.844-17.688C193.608,127.22,188.4,124,184,124H76
	c-4.4,0-8,3.6-8,8v16c0,4.4,0,11.6,0,16v220c0,4.4,3.6,8,8,8h360c4.4,0,8-3.6,8-8V164c0-4.4-3.6-8-8-8H216z"/>
<g>
	<path style="fill:#1E2C33;" d="M187.58,131.156l8.844,17.688C198.392,152.78,203.6,156,208,156h8c-4.4,0-9.608-3.22-11.58-7.156
		l-8.844-17.688C193.608,127.22,188.4,124,184,124h-8C180.4,124,185.608,127.22,187.58,131.156z"/>
	<path style="fill:#1E2C33;" d="M436,156h-8c4.4,0,8,3.6,8,8v220c0,4.4-3.6,8-8,8h8c4.4,0,8-3.6,8-8V164
		C444,159.6,440.4,156,436,156z"/>
	<rect x="88" y="180" style="fill:#1E2C33;" width="348" height="208"/>
</g>
<rect x="92" y="184" style="fill:#E6E6E6;" width="340" height="200"/>
<rect x="100" y="192" style="fill:#FFFFFF;" width="324" height="184"/>
<path style="fill:#F8CF25;" d="M176,204l-68,68v120h328c4.4,0,8-3.6,8-8V204H176z"/>
<g>
	<path style="fill:#EFC822;" d="M436,204v180c0,4.4-3.6,8-8,8h8c4.4,0,8-3.6,8-8V204H436z"/>
	<polygon style="fill:#EFC822;" points="180,276 108,276 108,272 176,204 180,204 	"/>
</g>
<polygon style="fill:#F8DB63;" points="176,272 108,272 176,204 "/>
<path style="fill:#FFFFFF;" d="M390,372c-14.336,0-26-11.664-26-26v-62.856c0-10.872,8.972-19.716,20-19.716s20,8.844,20,19.716
	v53.424c0,7.28-6.416,13.428-14,13.428s-14-6.144-14-13.424V308c0-2.208,1.788-4,4-4s4,1.792,4,4v28.572c0,2.844,2.86,5.428,6,5.428
	s6-2.584,6-5.428v-53.428c0-6.348-5.496-11.716-12-11.716s-12,5.368-12,11.716V346c0,9.92,8.08,18,18,18s18-8.08,18-18v-58
	c0-2.208,1.788-4,4-4s4,1.792,4,4v58C416,360.336,404.336,372,390,372z"/>
</svg>