<?xml version="1.0" encoding="iso-8859-1"?>
<!-- Uploaded to: SVG Repo, www.svgrepo.com, Generator: SVG Repo Mixer Tools -->
<svg version="1.1" id="Layer_1" xmlns="http://www.w3.org/2000/svg" xmlns:xlink="http://www.w3.org/1999/xlink" 
	 viewBox="0 0 392.533 392.533" xml:space="preserve">
<rect x="92.153" y="21.786" style="fill:#FFFFFF;" width="254.448" height="348.962"/>
<rect x="113.939" y="228.655" style="fill:#56ACE0;" width="210.877" height="120.178"/>
<circle style="fill:#FFC10D;" cx="219.313" cy="125.931" r="84.687"/>
<g>
	<path style="fill:#194F82;" d="M219.313,163.491c-7.37,0-13.382-5.947-13.382-13.382c0-6.012-4.848-10.925-10.925-10.925
		s-10.925,4.848-10.925,10.925c0,15.515,10.214,28.832,24.242,33.358v5.56c0,6.012,4.848,10.925,10.925,10.925
		c6.077,0,10.925-4.848,10.925-10.925v-5.56c14.093-4.655,24.242-17.842,24.242-33.358c0-19.394-17.067-35.103-36.461-35.103
		c0.259,0,0.065,0-0.065,0c-6.723-0.711-11.96-6.335-11.96-13.317c0-7.37,5.947-13.382,13.382-13.382
		c7.37,0,13.382,5.947,13.382,13.382c0,6.012,4.848,10.925,10.925,10.925c6.012,0,10.925-4.848,10.925-10.925
		c0-15.515-10.214-28.832-24.242-33.358v-5.56c0-6.012-4.848-10.925-10.925-10.925c-6.077,0-10.925,4.848-10.925,10.925v5.56
		c-14.093,4.655-24.242,17.842-24.242,33.358c0,19.394,15.774,35.168,35.168,35.168c-0.259,0-0.065,0,0.065,0
		c6.723,0.711,13.317,6.271,13.317,13.188C232.695,157.479,226.683,163.491,219.313,163.491z"/>
	<path style="fill:#194F82;" d="M357.462,0H81.228c-6.012,0-10.925,4.848-10.925,10.925V45.64H35.135
		c-6.012,0-10.925,4.848-10.925,10.925s4.848,10.925,10.925,10.925h35.103v31.741H35.135c-6.012,0-10.925,4.848-10.925,10.925
		c0,6.012,4.848,10.925,10.925,10.925h35.103v150.432H35.135c-6.012,0-10.925,4.848-10.925,10.925s4.848,10.796,10.925,10.796
		h35.103v31.741H35.135c-6.012,0-10.925,4.848-10.925,10.925c0,6.012,4.848,10.925,10.925,10.925h35.103v34.78
		c0,6.012,4.848,10.925,10.925,10.925h276.234c6.012,0,10.925-4.848,10.925-10.925V10.861C368.388,4.848,363.539,0,357.462,0z
		 M346.602,370.747H92.153V21.786h254.448V370.747z"/>
	<path style="fill:#194F82;" d="M152.533,274.23h133.624c6.012,0,10.925-4.848,10.925-10.925c0-6.012-4.848-10.925-10.925-10.925
		H152.533c-6.012,0-10.925,4.848-10.925,10.925C141.608,269.382,146.521,274.23,152.533,274.23z"/>
	<path style="fill:#194F82;" d="M152.533,326.723h133.624c6.012,0,10.925-4.849,10.925-10.925c0-6.012-4.848-10.925-10.925-10.925
		H152.533c-6.012,0-10.925,4.848-10.925,10.925C141.672,321.81,146.521,326.723,152.533,326.723z"/>
</g>
</svg>