<?xml version="1.0" encoding="iso-8859-1"?>
<!-- Uploaded to: SVG Repo, www.svgrepo.com, Generator: SVG Repo Mixer Tools -->
<svg version="1.1" id="Layer_1" xmlns="http://www.w3.org/2000/svg" xmlns:xlink="http://www.w3.org/1999/xlink"
	 viewBox="0 0 484.185 484.185" xml:space="preserve">
<g>
	<g id="XMLID_31_">
		<g>
			<rect x="142.267" y="37.448" style="fill:#E7ECED;" width="39.931" height="59.896"/>
			<rect x="301.989" y="237.101" style="fill:#E7ECED;" width="39.931" height="59.896"/>
			<polygon style="fill:#C69C6D;" points="232.111,77.379 232.111,157.24 92.353,157.24 92.353,37.448 142.267,37.448
				142.267,97.344 182.197,97.344 182.197,37.448 232.111,37.448 			"/>
			<polygon style="fill:#C69C6D;" points="391.833,237.101 391.833,356.893 252.076,356.893 252.076,277.032 252.076,237.101
				301.989,237.101 301.989,296.997 341.919,296.997 341.919,237.101 			"/>
			<rect x="232.111" y="77.379" style="fill:#A67C52;" width="149.74" height="79.861"/>
			<rect x="102.336" y="277.032" style="fill:#A67C52;" width="149.74" height="79.861"/>
			<polygon style="fill:#E7ECED;" points="436.755,157.24 436.755,187.188 42.44,187.188 42.44,157.24 92.353,157.24
				232.111,157.24 381.851,157.24 			"/>
			<polygon style="fill:#E7ECED;" points="436.755,356.893 436.755,386.841 42.44,386.841 42.44,356.893 102.336,356.893
				252.076,356.893 391.833,356.893 			"/>
			<polygon style="fill:#AFB6BB;" points="42.44,386.841 42.44,476.685 7.501,476.685 7.501,7.5 42.44,7.5 42.44,157.24
				42.44,187.188 42.44,356.893 			"/>
			<polygon style="fill:#AFB6BB;" points="476.685,7.5 476.685,476.685 436.755,476.685 436.755,386.841 436.755,356.893
				436.755,187.188 436.755,157.24 436.755,7.5 			"/>
		</g>
		<g>
			<path d="M429.255,0v149.74h-39.904V69.878h-149.74v-39.93H84.854V149.74H49.94V0H0.001v484.185h49.938v-89.844h379.315v89.844
				h54.931V0H429.255z M239.611,84.878h134.74v64.861h-134.74V84.878z M149.767,44.948h24.931v44.896h-24.931V44.948z
				 M99.854,44.948h34.913v59.896h54.931V44.948h34.913V149.74H99.854V44.948z M429.255,164.74v14.948H49.94V164.74H429.255z
				 M244.576,229.601v39.931H94.836v79.861H49.94V194.688h379.315v154.705h-29.922V229.601H244.576z M259.576,244.601h34.913v59.896
				h54.931v-59.896h34.913v104.792H259.576V244.601z M309.49,289.497v-44.896h24.931v44.896H309.49z M244.576,284.532v64.861
				h-134.74v-64.861H244.576z M34.94,469.185H15.001V15h19.938L34.94,469.185L34.94,469.185z M49.94,379.341v-14.948h379.315v14.948
				H49.94z M469.185,469.185h-24.931V15h24.931V469.185z"/>
			<rect x="326.945" y="109.809" width="29.948" height="15"/>
			<rect x="267.049" y="109.809" width="49.913" height="15"/>
			<rect x="197.171" y="309.462" width="29.948" height="15"/>
			<rect x="137.275" y="309.462" width="49.913" height="15"/>
		</g>
	</g>
</g>
</svg>
