<?xml version="1.0" encoding="iso-8859-1"?>
<!-- Uploaded to: SVG Repo, www.svgrepo.com, Generator: SVG Repo Mixer Tools -->
<svg height="800px" width="800px" version="1.1" id="Layer_1" xmlns="http://www.w3.org/2000/svg" xmlns:xlink="http://www.w3.org/1999/xlink" 
	 viewBox="0 0 512 512" xml:space="preserve">
<path style="fill:#FF7069;" d="M256,0c141.439,0,256,114.561,256,256S397.439,512,256,512S0,397.439,0,256S114.561,0,256,0z"/>
<path style="fill:#E4E7ED;" d="M355.151,19.95v174.768H163.897V17.083C192.567,5.973,223.627,0,256.119,0
	c35.121,0,68.569,7.048,99.151,19.95H355.151z"/>
<path style="fill:#C6CBD6;" d="M355.151,194.718c-31.059,0-62.119,0-93.178,0C264.959,106.199,352.164,102.734,355.151,194.718z"/>
<path style="fill:#FFFFFF;" d="M133.077,126.148h129.374h45.992c-23.056,0-42.288,26.042-45.992,60.088V408.31l-18.755-27.237
	l-19.95,29.028l-19.95-29.028l-19.95,29.028l-19.95-29.028l-19.95,29.028l-19.95-29.028l-19.95,29.028l-19.95-29.028l-19.95,29.028
	V195.434c0-38.227,31.179-69.286,69.286-69.286H133.077z"/>
<polygon style="fill:#5D718F;" points="283.237,235.692 471.145,235.692 471.145,460.274 283.237,460.274 "/>
<g>
	<path style="fill:#FFFFFF;" d="M305.575,309.04h19.352c2.628,0,4.778,2.15,4.778,4.778v19.352c0,2.628-2.15,4.778-4.778,4.778
		h-19.352c-2.628,0-4.778-2.15-4.778-4.778v-19.352C300.797,311.19,302.947,309.04,305.575,309.04z"/>
	<path style="fill:#FFFFFF;" d="M343.085,309.04h19.352c2.628,0,4.778,2.15,4.778,4.778v19.352c0,2.628-2.15,4.778-4.778,4.778
		h-19.352c-2.628,0-4.778-2.15-4.778-4.778v-19.352C338.307,311.19,340.457,309.04,343.085,309.04z"/>
</g>
<path style="fill:#83CF8F;" d="M380.595,309.04h19.352c2.628,0,4.778,2.15,4.778,4.778v19.352c0,2.628-2.15,4.778-4.778,4.778
	h-19.352c-2.628,0-4.778-2.15-4.778-4.778v-19.352C375.817,311.19,377.967,309.04,380.595,309.04z"/>
<path style="fill:#FFE356;" d="M418.105,309.04h19.352c2.628,0,4.778,2.15,4.778,4.778v19.352c0,2.628-2.15,4.778-4.778,4.778
	h-19.352c-2.628,0-4.778-2.15-4.778-4.778v-19.352C413.327,311.19,415.477,309.04,418.105,309.04z"/>
<g>
	<path style="fill:#FFFFFF;" d="M305.575,345.714h19.352c2.628,0,4.778,2.15,4.778,4.778v19.352c0,2.628-2.15,4.778-4.778,4.778
		h-19.352c-2.628,0-4.778-2.15-4.778-4.778v-19.352C300.797,347.864,302.947,345.714,305.575,345.714z"/>
	<path style="fill:#FFFFFF;" d="M343.085,345.714h19.352c2.628,0,4.778,2.15,4.778,4.778v19.352c0,2.628-2.15,4.778-4.778,4.778
		h-19.352c-2.628,0-4.778-2.15-4.778-4.778v-19.352C338.307,347.864,340.457,345.714,343.085,345.714z"/>
	<path style="fill:#FFFFFF;" d="M380.595,345.714h19.352c2.628,0,4.778,2.15,4.778,4.778v19.352c0,2.628-2.15,4.778-4.778,4.778
		h-19.352c-2.628,0-4.778-2.15-4.778-4.778v-19.352C375.817,347.864,377.967,345.714,380.595,345.714z"/>
	<path style="fill:#FFFFFF;" d="M418.105,345.714h19.352c2.628,0,4.778,2.15,4.778,4.778v19.352c0,2.628-2.15,4.778-4.778,4.778
		h-19.352c-2.628,0-4.778-2.15-4.778-4.778v-19.352C413.327,347.864,415.477,345.714,418.105,345.714z"/>
	<path style="fill:#FFFFFF;" d="M305.575,382.507h19.352c2.628,0,4.778,2.15,4.778,4.778v19.352c0,2.628-2.15,4.778-4.778,4.778
		h-19.352c-2.628,0-4.778-2.15-4.778-4.778v-19.352C300.797,384.657,302.947,382.507,305.575,382.507z"/>
	<path style="fill:#FFFFFF;" d="M343.085,382.507h19.352c2.628,0,4.778,2.15,4.778,4.778v19.352c0,2.628-2.15,4.778-4.778,4.778
		h-19.352c-2.628,0-4.778-2.15-4.778-4.778v-19.352C338.307,384.657,340.457,382.507,343.085,382.507z"/>
	<path style="fill:#FFFFFF;" d="M380.595,382.507h19.352c2.628,0,4.778,2.15,4.778,4.778v19.352c0,2.628-2.15,4.778-4.778,4.778
		h-19.352c-2.628,0-4.778-2.15-4.778-4.778v-19.352C375.817,384.657,377.967,382.507,380.595,382.507z"/>
	<path style="fill:#FFFFFF;" d="M418.105,382.507h19.352c2.628,0,4.778,2.15,4.778,4.778v19.352c0,2.628-2.15,4.778-4.778,4.778
		h-19.352c-2.628,0-4.778-2.15-4.778-4.778v-19.352C413.327,384.657,415.477,382.507,418.105,382.507z"/>
	<path style="fill:#FFFFFF;" d="M305.575,419.181h19.352c2.628,0,4.778,2.15,4.778,4.778v19.352c0,2.628-2.15,4.778-4.778,4.778
		h-19.352c-2.628,0-4.778-2.15-4.778-4.778v-19.352C300.797,421.331,302.947,419.181,305.575,419.181z"/>
	<path style="fill:#FFFFFF;" d="M343.085,419.181h19.352c2.628,0,4.778,2.15,4.778,4.778v19.352c0,2.628-2.15,4.778-4.778,4.778
		h-19.352c-2.628,0-4.778-2.15-4.778-4.778v-19.352C338.307,421.331,340.457,419.181,343.085,419.181z"/>
	<path style="fill:#FFFFFF;" d="M380.595,419.181h19.352c2.628,0,4.778,2.15,4.778,4.778v19.352c0,2.628-2.15,4.778-4.778,4.778
		h-19.352c-2.628,0-4.778-2.15-4.778-4.778v-19.352C375.817,421.331,377.967,419.181,380.595,419.181z"/>
	<path style="fill:#FFFFFF;" d="M418.105,419.181h19.352c2.628,0,4.778,2.15,4.778,4.778v19.352c0,2.628-2.15,4.778-4.778,4.778
		h-19.352c-2.628,0-4.778-2.15-4.778-4.778v-19.352C413.327,421.331,415.477,419.181,418.105,419.181z"/>
</g>
<polygon style="fill:#ECF0F1;" points="296.019,247.518 458.363,247.518 458.363,283.475 296.019,283.475 "/>
<path style="fill:#807E7E;" d="M441.639,251.819c2.509,0,4.898,1.075,6.57,2.748l0,0l0,0c1.672,1.672,2.748,4.062,2.748,6.57v6.809
	c0,2.628-1.075,4.898-2.748,6.57c-1.672,1.672-4.062,2.748-6.57,2.748s-4.898-1.075-6.57-2.748l0,0
	c-1.672-1.672-2.748-4.062-2.748-6.57v-6.809c0-2.628,1.075-4.898,2.748-6.57S439.13,251.819,441.639,251.819z M445.82,256.956
	c-1.075-1.075-2.628-1.792-4.181-1.792c-1.672,0-3.106,0.717-4.181,1.792c-1.075,1.075-1.792,2.628-1.792,4.181v6.809
	c0,1.672,0.717,3.106,1.792,4.181c1.075,1.075,2.628,1.792,4.181,1.792c1.672,0,3.106-0.717,4.181-1.792s1.792-2.628,1.792-4.181
	v-6.809C447.612,259.464,446.895,258.031,445.82,256.956L445.82,256.956z"/>
<polygon style="fill:#83CF8F;" points="118.145,173.454 205.708,173.454 205.708,181.577 118.145,181.577 "/>
<g>
	<polygon style="fill:#C6CBD6;" points="143.589,194.718 241.665,194.718 241.665,202.841 143.589,202.841 	"/>
	<polygon style="fill:#C6CBD6;" points="143.589,224.941 241.665,224.941 241.665,232.944 143.589,232.944 	"/>
	<polygon style="fill:#C6CBD6;" points="143.589,255.044 241.665,255.044 241.665,263.168 143.589,263.168 	"/>
	<polygon style="fill:#C6CBD6;" points="143.589,285.267 241.665,285.267 241.665,293.271 143.589,293.271 	"/>
</g>
<polygon style="fill:#FF7069;" points="143.589,315.371 192.687,315.371 192.687,323.494 143.589,323.494 "/>
<path style="fill:#C6CBD6;" d="M72.153,347.864h8.482v8.482h-8.482V347.864z M242.621,347.864h8.482v8.482h-8.482V347.864z
	 M223.627,347.864h8.482v8.482h-8.482V347.864z M204.633,347.864h8.482v8.482h-8.482V347.864z M185.639,347.864h8.482v8.482h-8.482
	V347.864z M166.645,347.864h8.482v8.482h-8.482V347.864z M147.651,347.864h8.482v8.482h-8.482V347.864z M128.657,347.864h8.482
	v8.482h-8.482V347.864z M109.663,347.864h8.482v8.482h-8.482V347.864z M90.669,347.864h8.482v8.482h-8.482V347.864z"/>
<path style="fill:#FFE356;" d="M85.174,218.49c0-5.017,1.075-9.079,3.106-12.185s5.137-5.137,9.198-5.973v-5.495h9.557v5.495
	c4.181,0.836,7.287,2.867,9.437,5.853c2.031,3.106,3.106,7.168,3.106,12.304v2.389h-11.11v-3.106c0-2.748-0.478-4.539-1.553-5.734
	c-1.075-1.075-2.509-1.672-4.301-1.672s-3.225,0.597-4.301,1.672c-1.075,1.075-1.553,2.986-1.553,5.734
	c0,2.509,0.597,4.778,1.672,6.57c1.075,1.792,2.509,3.584,4.301,5.137c1.672,1.553,3.464,3.106,5.495,4.659
	c1.911,1.553,3.823,3.225,5.495,5.137c1.672,1.911,3.106,4.181,4.301,6.69c1.075,2.509,1.672,5.495,1.672,9.079
	c0,5.137-1.075,9.198-3.225,12.304c-2.15,3.106-5.256,5.137-9.437,5.973v5.376h-9.557v-5.376c-4.301-0.836-7.406-2.867-9.557-5.973
	c-2.031-3.106-3.106-7.287-3.106-12.304v-5.137h11.11v5.853c0,2.748,0.597,4.539,1.672,5.615s2.509,1.553,4.42,1.553
	c1.792,0,3.345-0.478,4.42-1.553s1.672-2.986,1.672-5.615c0-2.509-0.597-4.778-1.672-6.57s-2.509-3.584-4.301-5.137
	c-1.672-1.553-3.584-3.106-5.495-4.659s-3.823-3.225-5.495-5.137c-1.672-1.911-3.106-4.181-4.301-6.69S85.174,222.074,85.174,218.49
	z"/>
</svg>