<?xml version="1.0" encoding="iso-8859-1"?>
<!-- Uploaded to: SVG Repo, www.svgrepo.com, Generator: SVG Repo Mixer Tools -->
<svg version="1.1" id="Layer_1" xmlns="http://www.w3.org/2000/svg" xmlns:xlink="http://www.w3.org/1999/xlink" 
	 viewBox="0 0 511.99 511.99" xml:space="preserve">
<rect y="42.673" style="fill:#965353;" width="511.99" height="426.64"/>
<rect x="42.655" y="106.675" style="fill:#FFCE54;" width="181.34" height="319.98"/>
<g>
	<path style="fill:#434A54;" d="M149.324,85.327h-31.999c-5.891,0-10.672,4.781-10.672,10.672v26.671h53.343V95.999
		C159.996,90.108,155.215,85.327,149.324,85.327z"/>
	<path style="fill:#434A54;" d="M138.652,351.992H95.998c-5.891,0-10.672,4.781-10.672,10.655c0,5.891,4.781,10.672,10.672,10.672
		h42.654c5.891,0,10.672-4.781,10.672-10.672C149.324,356.773,144.543,351.992,138.652,351.992z"/>
	<path style="fill:#434A54;" d="M95.998,202.668h74.654c5.89,0,10.671-4.781,10.671-10.671c0-5.891-4.781-10.672-10.671-10.672
		H95.998c-5.891,0-10.672,4.781-10.672,10.672C85.326,197.887,90.107,202.668,95.998,202.668z"/>
	<path style="fill:#434A54;" d="M170.652,223.996H95.998c-5.891,0-10.672,4.78-10.672,10.671s4.781,10.656,10.672,10.656h74.654
		c5.89,0,10.671-4.766,10.671-10.656S176.542,223.996,170.652,223.996z"/>
	<path style="fill:#434A54;" d="M170.652,266.666H95.998c-5.891,0-10.672,4.766-10.672,10.656s4.781,10.672,10.672,10.672h74.654
		c5.89,0,10.671-4.781,10.671-10.672S176.542,266.666,170.652,266.666z"/>
	<path style="fill:#434A54;" d="M170.652,309.321H95.998c-5.891,0-10.672,4.781-10.672,10.672s4.781,10.656,10.672,10.656h74.654
		c5.89,0,10.671-4.766,10.671-10.656S176.542,309.321,170.652,309.321z"/>
</g>
<rect x="287.993" y="106.675" style="fill:#A0D468;" width="181.32" height="319.98"/>
<path style="fill:#8CC153;" d="M447.988,373.319L447.988,373.319V149.326l0,0c-11.781,0-21.343-9.547-21.343-21.328h-95.997
	c0,11.781-9.547,21.328-21.328,21.328v223.993c11.781,0,21.328,9.547,21.328,21.328h95.997
	C426.645,382.866,436.207,373.319,447.988,373.319z"/>
<path style="fill:#A0D468;" d="M426.645,266.666c0,26.499-21.483,47.983-47.999,47.983c-26.499,0-47.998-21.484-47.998-47.983
	c0-26.515,21.499-47.998,47.998-47.998C405.162,218.668,426.645,240.151,426.645,266.666z"/>
<polygon style="fill:#A85D5D;" points="511.986,213.324 245.322,383.991 245.322,469.317 511.986,469.317 "/>
<rect x="245.323" y="42.673" style="fill:#7F4545;" width="21.327" height="426.64"/>
<path style="fill:#656D78;" d="M170.652,117.327H95.998c-5.891,0-10.672,4.78-10.672,10.671s4.781,10.672,10.672,10.672h74.654
	c5.89,0,10.671-4.781,10.671-10.672S176.542,117.327,170.652,117.327z"/>
</svg>