<?xml version="1.0" ?><!-- Uploaded to: SVG Repo, www.svgrepo.com, Generator: SVG Repo Mixer Tools -->
<svg width="800px" height="800px" viewBox="0 0 64 64" id="fill" xmlns="http://www.w3.org/2000/svg"><circle cx="32" cy="32" r="24" style="fill:#e5e6eb"/><path d="M32,32V8A24,24,0,0,1,49,48.941Z" style="fill:#d9dae2"/><path d="M47.938,14.062A24,24,0,0,1,14.062,47.938,24,24,0,1,0,47.938,14.062Z" style="fill:#cfcfd9"/><rect height="18" style="fill:#444" width="6" x="3" y="43"/><rect height="16" style="fill:#444" width="6" x="13" y="40"/><rect height="12" style="fill:#444" width="6" x="23" y="35"/><path d="M32,32V3A29,29,0,0,1,61,32Z" style="fill:#027de5"/><path d="M32,32H25a7,7,0,0,1,7-7Z" style="fill:#fff"/><path d="M32,2a1,1,0,0,0-1,1V7.025a24.976,24.976,0,0,0-18,41.2V44.944A22.984,22.984,0,0,1,31,9.025V32a.994.994,0,0,0,.294.708h0L47.561,48.919A22.944,22.944,0,0,1,19,50.96v2.386A24.985,24.985,0,0,0,56.975,33H61a1,1,0,0,0,1-1A30.034,30.034,0,0,0,32,2ZM48.974,47.5,34.42,33H54.975A22.912,22.912,0,0,1,48.974,47.5ZM33,31V4.018A28.035,28.035,0,0,1,59.982,31Z"/></svg>