<?xml version="1.0" encoding="iso-8859-1"?>
<!-- Uploaded to: SVG Repo, www.svgrepo.com, Generator: SVG Repo Mixer Tools -->
<svg version="1.1" id="Layer_1" xmlns="http://www.w3.org/2000/svg" xmlns:xlink="http://www.w3.org/1999/xlink" 
	 viewBox="0 0 512 512" xml:space="preserve">
<circle style="fill:#FFD15D;" cx="256" cy="256" r="256"/>
<path style="fill:#F9B54C;" d="M416.371,304.318l-19.873-19.873l-5.373,9.152L228.459,129.472l-72.104,33.392l-31.397,17.284
	l37.378,35.952V309.8l-42.429,46.714l154.802,154.802c48.792-3.524,93.787-20.727,131.188-47.787l1.936-1.936l0.303,0.303
	c32.201-23.831,58.608-55.036,76.738-91.119l-67.372-67.37L416.371,304.318z"/>
<rect x="225.832" y="284.444" style="fill:#FFFFFF;" width="170.667" height="18.963"/>
<rect x="311.889" y="284.444" style="fill:#E6F3FF;" width="84.609" height="18.963"/>
<path style="fill:#2B3B4E;" d="M225.959,128.431h-98.516c-1.943,0-3.518,1.576-3.518,3.518v45.739c0,1.943,1.576,3.518,3.518,3.518
	h19.809c1.943,0,3.518,1.576,3.518,3.518v124.644c0,1.943,1.576,3.518,3.518,3.518h21.407c1.943,0,3.518-1.576,3.518-3.518V184.725
	c0-1.943,1.576-3.518,3.518-3.518h43.225c1.943,0,3.518-1.576,3.518-3.518v-45.739C229.478,130.007,227.902,128.431,225.959,128.431
	z"/>
<rect x="135.533" y="138.981" style="fill:#2B9ED8;" width="82.332" height="31.666"/>
<path style="fill:#324A5E;" d="M408.793,359.434h-281.45c-6.063,0-10.98-4.915-10.98-10.978v-38.379
	c0-6.063,4.915-10.978,10.98-10.978h281.45c6.063,0,10.978,4.915,10.978,10.978v38.379
	C419.771,354.519,414.856,359.434,408.793,359.434z"/>
<path style="fill:#2B3B4E;" d="M408.793,299.098h-96.909v60.337h96.909c6.063,0,10.978-4.915,10.978-10.98v-38.379
	C419.771,304.012,414.856,299.098,408.793,299.098z"/>
</svg>