<?xml version="1.0" encoding="iso-8859-1"?>
<!-- Uploaded to: SVG Repo, www.svgrepo.com, Generator: SVG Repo Mixer Tools -->
<svg height="800px" width="800px" version="1.1" id="Layer_1" xmlns="http://www.w3.org/2000/svg" xmlns:xlink="http://www.w3.org/1999/xlink" 
	 viewBox="0 0 512 512" xml:space="preserve">
<circle style="fill:#FF9839;" cx="256" cy="256" r="191.286"/>
<g>
	<path style="fill:#4C1D1D;" d="M113.527,113.527C75.471,151.583,54.513,202.18,54.513,256s20.958,104.417,59.014,142.473
		s88.654,59.014,142.473,59.014s104.417-20.958,142.473-59.014S457.485,309.819,457.485,256s-20.958-104.417-59.014-142.473
		S309.82,54.513,256,54.513S151.583,75.471,113.527,113.527z M437.089,256c0,48.371-18.837,93.846-53.04,128.049
		s-79.678,53.04-128.049,53.04s-93.846-18.837-128.049-53.04S74.911,304.371,74.911,256s18.837-93.846,53.04-128.049
		S207.629,74.911,256,74.911s93.846,18.837,128.049,53.04S437.089,207.629,437.089,256z"/>
	<path style="fill:#4C1D1D;" d="M198.523,187.883c16.434-14.768,29.538-14.145,33.283-17.89c3.744-3.744,1.04-11.024-1.665-13.728
		c-6.864-6.864-28.707,4.576-44.307,18.93l-6.032-6.032c-2.081-2.081-6.449-1.457-8.737,0.83c-2.705,2.705-2.912,6.657-0.831,8.738
		l6.448,6.448c-16.85,19.346-28.291,47.428-2.081,73.638c26.626,26.626,52.421,13.314,77.175,1.456l60.533,60.533
		c-26.418,25.172-47.427,13.314-52.42,18.307c-3.12,3.12-1.873,10.607,1.456,13.936c7.489,7.489,37.652,6.865,64.069-19.138
		l7.489,7.489c2.08,2.08,6.032,1.873,8.737-0.832c2.288-2.288,2.911-6.656,0.831-8.736l-8.112-8.112
		c18.096-23.507,19.762-50.965-5.409-76.135c-28.499-28.499-55.333-19.138-78.84-8.112L198.523,187.883z M186.459,244.463
		c-15.394-15.394-8.946-33.075,3.121-47.22l48.26,48.26C219.534,254.241,202.686,260.69,186.459,244.463z M316.886,262.145
		c15.394,15.394,16.226,32.451,3.953,49.3l-56.79-56.79C281.732,247.376,298.789,244.048,316.886,262.145z"/>
	<path style="fill:#4C1D1D;" d="M244.099,20.681c0.163,0,0.328-0.004,0.495-0.012c3.768-0.178,7.605-0.27,11.407-0.27
		c5.632,0,10.199-4.567,10.199-10.199S261.632,0,256,0c-4.125,0-8.29,0.099-12.381,0.295c-5.627,0.269-9.969,5.048-9.7,10.674
		C234.18,16.429,238.689,20.681,244.099,20.681z"/>
	<path style="fill:#4C1D1D;" d="M491.196,154.751c-11.092-25.733-26.152-49.183-44.851-69.929h3.918
		c5.632,0,10.199-4.567,10.199-10.199s-4.567-10.199-10.199-10.199h-28.743c-5.632,0-10.199,4.567-10.199,10.199v28.743
		c0,5.632,4.567,10.199,10.199,10.199c5.632,0,10.199-4.567,10.199-10.199v-4.311c38.727,43.211,59.884,98.333,59.884,156.944
		c0,129.911-105.69,235.602-235.602,235.602S20.398,385.911,20.398,256c0-106.18,71.488-199.702,173.844-227.427
		c5.437-1.473,8.65-7.075,7.178-12.511c-1.473-5.437-7.076-8.654-12.511-7.178C77.682,39.012,0,140.63,0,256
		c0,68.381,26.628,132.667,74.981,181.019C123.333,485.372,187.619,512,256,512s132.667-26.628,181.019-74.981
		C485.372,388.667,512,324.381,512,256C512,220.843,505,186.778,491.196,154.751z"/>
</g>
</svg>