<?xml version="1.0" encoding="iso-8859-1"?>
<!-- Uploaded to: SVG Repo, www.svgrepo.com, Generator: SVG Repo Mixer Tools -->
<svg height="800px" width="800px" version="1.1" id="Layer_1" xmlns="http://www.w3.org/2000/svg" xmlns:xlink="http://www.w3.org/1999/xlink" 
	 viewBox="0 0 297 297" xml:space="preserve">
<g>
	<g>
		<circle style="fill:#79302A;" cx="148.5" cy="148.5" r="148.5"/>
	</g>
	<g>
		<path style="fill:#5B201D;" d="M286.459,203.54L130.239,62.644l-76.902,74.399L207.39,284.854
			C243.325,269.313,271.904,239.988,286.459,203.54z"/>
	</g>
	<g>
		<circle style="fill:#FFCD02;" cx="202.125" cy="202.125" r="53.625"/>
	</g>
	<g>
		<circle style="fill:#FFCD02;" cx="210.375" cy="94.875" r="20.625"/>
	</g>
	<g>
		<circle style="fill:#FFCD02;" cx="86.625" cy="218.625" r="20.625"/>
	</g>
	<g>
		<circle style="fill:#FFCD02;" cx="51.563" cy="175.313" r="10.313"/>
	</g>
	<g>
		<circle style="fill:#FFCD02;" cx="257.813" cy="138.188" r="10.313"/>
	</g>
	<g>
		<circle style="fill:#F9B65F;" cx="202.125" cy="202.125" r="40.219"/>
	</g>
	<g>
		<circle style="fill:#FFCD02;" cx="94.875" cy="103.125" r="53.625"/>
	</g>
	<g>
		<circle style="fill:#F9B65F;" cx="94.875" cy="103.125" r="40.219"/>
	</g>
	<path style="fill:#D35400;" d="M218.905,214.406c0-7.692-5.209-14.176-12.28-16.149v-16.193h3.555c2.485,0,4.5-2.015,4.5-4.5
		s-2.015-4.5-4.5-4.5h-3.555v-1.31c0-2.485-2.015-4.5-4.5-4.5s-4.5,2.015-4.5,4.5v1.94c-7.071,1.974-12.28,8.458-12.28,16.15
		s5.209,14.177,12.28,16.15v16.191h-4.348c-2.485,0-4.5,2.015-4.5,4.5s2.015,4.5,4.5,4.5h4.348v1.31c0,2.485,2.015,4.5,4.5,4.5
		s4.5-2.015,4.5-4.5v-1.94C213.696,228.582,218.905,222.099,218.905,214.406z M194.345,189.845c0-2.613,1.299-4.924,3.28-6.336
		v12.672C195.644,194.769,194.345,192.458,194.345,189.845z M206.625,220.741v-12.67c1.981,1.412,3.28,3.722,3.28,6.335
		S208.606,219.33,206.625,220.741z"/>
	<path style="fill:#D35400;" d="M111.762,116.504c-1.93-1.567-4.764-1.273-6.33,0.656c-2.582,3.18-5.889,4.931-9.31,4.931
		c-4.854,0-9.13-3.406-11.623-8.551h11.623c2.485,0,4.5-2.015,4.5-4.5s-2.015-4.5-4.5-4.5h-13.87
		c-0.026-0.469-0.053-0.938-0.053-1.415s0.027-0.946,0.053-1.415h13.87c2.485,0,4.5-2.015,4.5-4.5s-2.015-4.5-4.5-4.5H84.499
		c2.493-5.145,6.769-8.551,11.623-8.551c3.421,0,6.728,1.751,9.31,4.931c1.566,1.927,4.398,2.224,6.33,0.656
		c1.93-1.566,2.223-4.401,0.656-6.33c-4.324-5.324-10.111-8.257-16.296-8.257c-9.623,0-17.874,7.275-21.268,17.551h-2.779
		c-2.485,0-4.5,2.015-4.5,4.5s2.015,4.5,4.5,4.5h1.154c-0.019,0.469-0.03,0.94-0.03,1.415s0.01,0.946,0.03,1.415h-1.154
		c-2.485,0-4.5,2.015-4.5,4.5s2.015,4.5,4.5,4.5h2.779c3.393,10.276,11.645,17.551,21.268,17.551c6.185,0,11.972-2.933,16.296-8.257
		C113.984,120.905,113.691,118.07,111.762,116.504z"/>
</g>
</svg>