<?xml version="1.0" encoding="iso-8859-1"?>
<!-- Uploaded to: SVG Repo, www.svgrepo.com, Generator: SVG Repo Mixer Tools -->
<svg height="800px" width="800px" version="1.1" id="Layer_1" xmlns="http://www.w3.org/2000/svg" xmlns:xlink="http://www.w3.org/1999/xlink" 
	 viewBox="0 0 512 512" xml:space="preserve">
<path style="fill:#FFC1A6;" d="M194.11,0v239.684c59.977,0,108.589-48.612,108.589-108.589v-22.505
	C302.699,48.623,254.087,0,194.11,0z"/>
<path style="fill:#FFDBCC;" d="M194.11,0c41.331,0,74.831,48.623,74.831,108.589v22.505c0,59.977-33.499,108.589-74.831,108.589
	c-59.977,0-108.589-48.612-108.589-108.589v-22.505C85.521,48.623,134.133,0,194.11,0z"/>
<path style="fill:#FEDC3D;" d="M196.034,272.89l147.175,182.846h33.758C376.967,355.384,296.139,273.926,196.034,272.89z"/>
<path style="fill:#FFE777;" d="M196.034,272.89c81.459,1.272,147.175,82.64,147.175,182.846H11.253
	c0-100.993,81.864-182.857,182.857-182.857C194.751,272.879,195.393,272.879,196.034,272.89z"/>
<path style="fill:#D5F6F5;" d="M216.615,274.252l-22.506,63.713c31.069,0,56.253-25.172,56.264-56.253
	C239.526,278.202,228.239,275.681,216.615,274.252z"/>
<path style="fill:#FFFFFF;" d="M216.615,274.252v7.449c0,31.08-10.071,56.264-22.506,56.264c-31.069,0-56.264-25.184-56.264-56.264
	c17.723-5.728,36.628-8.822,56.264-8.822C201.728,272.879,209.234,273.341,216.615,274.252z"/>
<g>
	<path style="fill:#272727;" d="M235.745,127.363c-4.662,0-8.44-3.779-8.44-8.44v-16.879c0-4.661,3.778-8.44,8.44-8.44
		s8.44,3.779,8.44,8.44v16.879C244.185,123.586,240.406,127.363,235.745,127.363z"/>
	<path style="fill:#272727;" d="M152.475,127.363c-4.662,0-8.44-3.779-8.44-8.44v-16.879c0-4.661,3.778-8.44,8.44-8.44
		s8.44,3.779,8.44,8.44v16.879C160.914,123.586,157.136,127.363,152.475,127.363z"/>
</g>
<path style="fill:#FE5F1A;" d="M194.11,179.838c-11.791,0-22.091-7.984-25.05-19.414c-1.168-4.512,1.543-9.118,6.056-10.285
	c4.515-1.17,9.117,1.544,10.285,6.055c1.031,3.983,4.613,6.765,8.708,6.765c4.096,0,7.678-2.782,8.709-6.765
	c1.168-4.511,5.775-7.222,10.285-6.055c4.513,1.168,7.224,5.773,6.056,10.285C216.201,171.854,205.899,179.838,194.11,179.838z"/>
<path style="fill:#02ACAB;" d="M388.22,286.945V512c62.149,0,112.527-50.379,112.527-112.527S450.369,286.945,388.22,286.945z"/>
<path style="fill:#42C8C6;" d="M388.22,286.945c43.503,0,78.769,50.379,78.769,112.527S431.723,512,388.22,512
	c-62.149,0-112.527-50.379-112.527-112.527S326.071,286.945,388.22,286.945z"/>
<path style="fill:#FFFFFF;" d="M444.484,382.593h-39.385v-39.385c0-9.322-7.557-16.879-16.879-16.879
	c-9.322,0-16.879,7.557-16.879,16.879v39.385h-39.385c-9.322,0-16.879,7.557-16.879,16.879c0,9.322,7.557,16.879,16.879,16.879
	h39.385v39.385c0,9.322,7.557,16.879,16.879,16.879c9.322,0,16.879-7.557,16.879-16.879v-39.385h39.385
	c9.322,0,16.879-7.557,16.879-16.879C461.363,390.151,453.805,382.593,444.484,382.593z"/>
</svg>