<?xml version="1.0" encoding="iso-8859-1"?>
<!-- Uploaded to: SVG Repo, www.svgrepo.com, Generator: SVG Repo Mixer Tools -->
<svg version="1.1" id="Layer_1" xmlns="http://www.w3.org/2000/svg" xmlns:xlink="http://www.w3.org/1999/xlink" 
	 viewBox="0 0 512 512" xml:space="preserve">
<circle style="fill:#B5F1F4;" cx="256" cy="256" r="256"/>
<path style="fill:#84DBFF;" d="M273.899,511.367c104.893-7.247,192.402-77.667,224.727-173.496L327.542,166.788l-33.04,24.278
	L99.987,337.455L273.899,511.367z"/>
<path style="fill:#4F6777;" d="M412.158,337.455H312.027V223.677h40.288c10.174,0,19.477,5.749,24.026,14.85l14.402,28.803
	c4.056,8.113,12.347,13.238,21.418,13.238l0,0c7.537,0,13.645,6.11,13.645,13.646v29.594
	C425.805,331.345,419.695,337.455,412.158,337.455z"/>
<path style="fill:#B5F1F4;" d="M369.948,245.253c-3.61-7.22-10.99-11.781-19.063-11.781h-31.963v33.851h62.061L369.948,245.253z"/>
<rect x="99.987" y="166.788" style="fill:#324A5E;" width="227.556" height="170.667"/>
<rect x="212.333" y="166.788" style="fill:#2B3B4E;" width="115.214" height="170.667"/>
<circle style="fill:#FC6F58;" cx="151.704" cy="337.455" r="28.444"/>
<circle style="fill:#F1543F;" cx="358.572" cy="337.455" r="28.444"/>
</svg>