<?xml version="1.0" encoding="iso-8859-1"?>
<!-- Uploaded to: SVG Repo, www.svgrepo.com, Generator: SVG Repo Mixer Tools -->
<svg height="800px" width="800px" version="1.1" id="Layer_1" xmlns="http://www.w3.org/2000/svg" xmlns:xlink="http://www.w3.org/1999/xlink" 
	 viewBox="0 0 512 512" xml:space="preserve">
<g transform="translate(1 1)">
	<polygon style="fill:#FFDD09;" points="289.133,426.093 220.867,426.093 255,349.293 	"/>
	<g>
		<path style="fill:#FD9808;" d="M163.693,298.947l-2.56-0.853l-8.533,34.133l68.267,93.867l34.133-76.8
			C219.16,349.293,186.733,328.813,163.693,298.947"/>
		<path style="fill:#FD9808;" d="M346.307,298.947c-23.04,29.867-55.467,50.347-91.307,50.347l34.133,76.8l68.267-93.867
			l-8.533-34.133L346.307,298.947z"/>
		<polygon style="fill:#FD9808;" points="212.333,502.04 220.867,426.093 289.133,426.093 297.667,502.04 		"/>
		<path style="fill:#FD9808;" d="M481.987,397.933c-46.933-24.747-91.307-43.52-133.12-48.64H344.6l-55.467,76.8l8.533,75.947h204.8
			v-69.973C502.467,417.56,494.787,404.76,481.987,397.933"/>
	</g>
	<path style="fill:#FFDD09;" d="M458.947,397.933c-41.813-24.747-81.067-43.52-116.907-48.64h-3.413l-49.493,76.8l7.68,75.947
		h180.053v-69.973C476.867,417.56,470.04,404.76,458.947,397.933"/>
	<path style="fill:#FFFFFF;" d="M28.013,397.933c46.933-24.747,91.307-43.52,133.12-48.64h4.267l55.467,76.8l-8.533,75.947H7.533
		v-69.973C7.533,417.56,15.213,404.76,28.013,397.933"/>
	<path style="fill:#FFDD09;" d="M51.053,397.933c41.813-24.747,81.067-43.52,116.907-48.64h3.413l49.493,76.8l-7.68,75.947H33.133
		v-69.973C33.133,417.56,39.96,404.76,51.053,397.933"/>
	<path style="fill:#FD9808;" d="M127,135.96c0-70.827,57.173-128,128-128s128,57.173,128,128v59.733
		c0,75.093-57.173,153.6-128,153.6s-128-78.507-128-153.6V135.96z"/>
	<path style="fill:#FFDD09;" d="M127,135.96c0-70.827,51.2-128,115.2-128s115.2,57.173,115.2,128v59.733
		c0,75.093-51.2,153.6-115.2,153.6S127,270.787,127,195.693V135.96z"/>
	<path style="fill:#FFFFFF;" d="M255,7.96c2.56,0,4.267,0,6.827,0C201.24,11.373,152.6,67.693,152.6,135.96v59.733
		c0,73.387,48.64,148.48,109.227,152.747c-2.56,0-4.267,0.853-6.827,0.853c-70.827,0-128-78.507-128-153.6V135.96
		C127,65.133,184.173,7.96,255,7.96"/>
	<path d="M289.133,434.627h-68.267c-2.56,0-5.973-1.707-6.827-4.267c-0.853-2.56-1.707-5.12-0.853-8.533l34.133-76.8
		c1.707-3.413,4.267-5.12,7.68-5.12c3.413,0,6.827,1.707,7.68,5.12l34.133,76.8c0.853,2.56,0.853,5.973-0.853,8.533
		C294.253,432.92,291.693,434.627,289.133,434.627z M233.667,417.56h41.813L255,369.773L233.667,417.56z"/>
	<path d="M212.333,510.573c-2.56,0-5.12-0.853-5.973-2.56c-1.707-1.707-2.56-4.267-1.707-6.827l8.533-75.947
		c0.853-4.267,4.267-7.68,8.533-7.68h68.267c4.267,0,7.68,3.413,8.533,7.68l8.533,75.947c0,2.56-0.853,5.12-1.707,6.827
		c-0.853,1.707-5.12,2.56-7.68,2.56H212.333L212.333,510.573z M228.547,434.627l-6.827,58.88h66.56l-6.827-58.88H228.547z"/>
	<path d="M220.867,434.627c-2.56,0-5.12-1.707-6.827-3.413l-68.267-93.867c-1.707-2.56-1.707-5.12-1.707-7.68l8.533-34.133
		c0.853-2.56,2.56-4.267,5.12-5.973c2.56-0.853,5.12-0.853,7.68,0l2.56,0.853c0.853,0.853,1.707,1.707,2.56,2.56
		c23.893,29.867,53.76,46.933,84.48,46.933c2.56,0,5.973,1.707,6.827,4.267c0.853,2.56,1.707,5.12,0.853,8.533l-34.133,76.8
		c-0.853,2.56-4.267,5.12-6.827,5.12C221.72,434.627,220.867,434.627,220.867,434.627z M161.987,330.52l57.173,78.507l23.04-52.053
		c-27.307-3.413-54.613-17.92-76.8-41.813L161.987,330.52z"/>
	<path d="M289.133,434.627h-0.853c-3.413,0-5.973-2.56-6.827-5.12l-34.133-76.8c-0.853-2.56-0.853-5.973,0.853-8.533
		c1.707-2.56,4.267-4.267,6.827-4.267c31.573,0,61.44-16.213,84.48-46.933c0.853-0.853,1.707-1.707,2.56-2.56l2.56-0.853
		c2.56-0.853,5.12-1.707,7.68,0c2.56,0.853,4.267,3.413,5.12,5.973l8.533,34.133c0.853,2.56,0,5.12-1.707,6.827L295.96,430.36
		C294.253,432.92,291.693,434.627,289.133,434.627z M267.8,356.973l23.04,52.053l57.173-78.507l-3.413-15.36
		C322.413,339.053,295.107,353.56,267.8,356.973z"/>
	<path d="M502.467,510.573h-204.8c-4.267,0-7.68-3.413-8.533-7.68l-8.533-75.947c0-1.707,0-4.267,1.707-5.973l55.467-76.8
		c1.707-2.56,4.267-3.413,6.827-3.413h4.267h0.853c37.547,4.267,79.36,19.627,135.68,49.493l0,0C500.76,398.787,511,415,511,432.067
		v69.973C511,507.16,507.587,510.573,502.467,510.573z M305.347,493.507h188.587v-61.44c0-11.093-5.973-21.333-16.213-27.307l0,0
		c-53.76-28.16-93.867-42.667-128.853-47.787l-51.2,70.827L305.347,493.507z"/>
	<path d="M212.333,510.573H7.533c-5.12,0-8.533-3.413-8.533-8.533v-69.973c0-17.92,9.387-34.133,25.6-41.813
		c56.32-29.867,98.133-45.227,135.68-49.493h0.853h4.267c2.56,0,5.12,1.707,6.827,3.413l55.467,76.8
		c0.853,1.707,1.707,4.267,1.707,5.973l-8.533,75.947C220.013,507.16,216.6,510.573,212.333,510.573z M16.067,493.507h188.587
		l7.68-64.853l-51.2-70.827c-34.987,4.267-74.24,18.773-128.853,47.787c-10.24,5.12-16.213,15.36-16.213,26.453V493.507z"/>
	<path d="M255,357.827c-78.507,0-136.533-85.333-136.533-162.133V135.96c0-75.093,61.44-136.533,136.533-136.533
		s136.533,61.44,136.533,136.533v59.733C391.533,272.493,333.507,357.827,255,357.827z M255,16.493
		c-65.707,0-119.467,53.76-119.467,119.467v59.733c0,82.773,63.147,145.067,119.467,145.067s119.467-62.293,119.467-145.067V135.96
		C374.467,70.253,320.707,16.493,255,16.493z"/>
</g>
</svg>