<?xml version="1.0" encoding="iso-8859-1"?>
<!-- Uploaded to: SVG Repo, www.svgrepo.com, Generator: SVG Repo Mixer Tools -->
<svg height="800px" width="800px" version="1.1" id="Layer_1" xmlns="http://www.w3.org/2000/svg" xmlns:xlink="http://www.w3.org/1999/xlink" 
	 viewBox="0 0 508 508" xml:space="preserve">
<circle style="fill:#324A5E;" cx="254" cy="254" r="254"/>
<path style="fill:#2B3B4E;" d="M102.4,457.6C144.8,489.2,197.2,508,254,508s109.2-18.8,151.6-50.4H102.4z"/>
<path style="fill:#54C0EB;" d="M384.4,273.2H123.6l11.6-36l73.6-35.6c-5.6,24.4,4.8,63.6,5.2,62.8c9.2-29.2,40-31.6,40-31.6
	s30.8,2.4,40,31.6c0.4,0.8,10.8-38.8,5.2-62.8l73.6,35.6L384.4,273.2z"/>
<ellipse style="fill:#F1543F;" cx="254" cy="47.2" rx="33.2" ry="22"/>
<path style="fill:#FF7058;" d="M311.2,111.6c0,8-0.8,16-2.4,24.4c-1.6-1.2-3.6-1.2-5.6-0.4l0,0c1.2-20.4-11.2-23.2-11.2-23.2
	c-12.8-4.8-18-17.2-20-26.4c-5.6,6-14.4,12.4-28.4,18c-40,16.4-38.4,31.6-38.4,32l0,0l-0.4-0.4l0,0c-2-0.8-4-0.8-5.6,0.4
	c-1.6-8-2.4-16.4-2.4-24.4c0-45.2,25.6-62.8,57.2-62.8S311.2,66.4,311.2,111.6z"/>
<path style="fill:#F9B54C;" d="M290.8,186.4c0,0,4.8,26-36.8,46.4h-0.4c-41.2-20.4-36.8-46.4-36.8-46.4l0,0c0.4-2.8,1.6-5.2,2.4-8
	c9.2,16,21.2,27.2,34.4,27.2c13.2,0,25.6-11.2,34.4-27.2C289.6,181.2,290.4,184,290.8,186.4C291.2,186.4,290.8,186.4,290.8,186.4z"
	/>
<g>
	<path style="fill:#FFFFFF;" d="M290.8,186.4c0,0,4.8,26-36.8,46.4c0,0,30.8,2.4,40,31.6C294.4,265.2,311.2,202,290.8,186.4z"/>
	<path style="fill:#FFFFFF;" d="M217.2,186.4c-20.4,15.6-3.6,78.8-3.2,78c9.2-29.2,40-31.6,40-31.6
		C212.4,212.8,217.2,186.4,217.2,186.4z"/>
</g>
<path style="fill:#FFD05B;" d="M309.2,136.4c-1.6-1.2-3.6-1.2-6-0.4l0,0c1.2-20.4-11.2-23.2-11.2-23.2c-12.8-4.8-18-17.2-20-26.4
	c-5.6,6-14.4,12.4-28.4,18c-40,16.4-38.4,31.6-38.4,32l0,0l-0.4-0.4l0,0c-2-0.8-4.4-0.8-6,0.4c-4,2.8-4,11.6-0.4,18.8
	s9.6,10.8,13.6,8.4c9.6,23.6,24.8,42.4,42,42.4s32.4-18.8,41.6-42.8c4,2.4,10-1.2,13.6-8.4C313.2,147.6,313.2,139.2,309.2,136.4z"/>
<path style="fill:#E6E9EE;" d="M366.4,457.2H141.6c-8.4,0-14.8-6.8-14.8-14.8l0,0c0-3.6,2.8-6.4,6.4-6.4h242c3.6,0,6.4,2.8,6.4,6.4
	l0,0C381.6,450.4,374.8,457.2,366.4,457.2z"/>
<path style="fill:#FFFFFF;" d="M368.8,435.6H139.2c-6.8,0-14-4-15.6-9.2L80.8,290c-2.8-9.2,2.4-17.2,12.4-17.2h322
	c9.6,0,15.2,7.6,12.4,17.2l-42.8,136.4C382.8,431.6,376,435.6,368.8,435.6z"/>
<path style="fill:#E6E9EE;" d="M280,368c-0.8,11.6-12.4,20.8-26,20.8s-25.6-9.2-26-20.8c-0.8-12.4,10.8-22.8,26-22.8
	C269.2,345.2,280.8,355.6,280,368z"/>
<path style="fill:#FFFFFF;" d="M302.8,327.6c12.8,0,12.8-20,0-20S290,327.6,302.8,327.6L302.8,327.6z"/>
</svg>